<?xml version="1.0" encoding="UTF-8"?>
<svg width="200px" height="168px" viewBox="0 0 200 168" version="1.1" xmlns="http://www.w3.org/2000/svg" xmlns:xlink="http://www.w3.org/1999/xlink">
    <title>5D80F703-BD03-4427-A859-36679259740F@0.5x</title>
    <g id="Final-Designs" stroke="none" stroke-width="1" fill="none" fill-rule="evenodd">
        <g id="Assets" transform="translate(-1347.000000, -8057.000000)" fill-rule="nonzero">
            <g id="Team-Logos" transform="translate(139.500000, 7908.000000)">
                <g id="Group" transform="translate(1207.500000, 133.000000)">
                    <g id="Maulers" transform="translate(0.000000, 16.250000)">
                        <path d="M200,13.2891687 L183.187792,13.2891687 L183.187792,0 L16.8122078,0 L16.8122078,13.2891687 L0,13.2891687 L0,99.6422927 C8.61991813,94.0798902 17.7175798,89.2959785 27.1853224,85.347171 L24.2568581,92.0005795 L21.7694275,105.289748 L23.4277146,121.702666 L41.0690659,118.508324 C42.9214078,145.792593 68.6248567,167.5 99.9558966,167.5 C132.50419,167.5 158.966217,144.098356 158.966217,115.349278 C158.966217,98.7775261 150.145541,83.988252 136.455853,74.4228743 C159.046423,78.6765876 180.607931,87.2386785 199.964717,99.6422927 L200,13.2891687 Z" id="Path" fill="#FF4D00"></path>
                        <path d="M132.945224,60.2512907 L132.945224,50.9506374 L139.701861,50.9506374 L139.701861,67.840059 C132.5922,66.4490593 125.413873,65.4358039 118.197054,64.8045517 L118.197054,58.5041092 L120.155244,58.6805921 L120.155244,26.2783163 L118.197054,26.2783163 L118.197054,20.2602465 L139.701861,20.2602465 L139.701861,35.4201349 L132.945224,35.4201349 L132.945224,26.2783163 L126.682544,26.2783163 L126.682544,40.1498788 L136.526418,40.1498788 L136.526418,46.3973765 L126.682544,46.3973765 L126.682544,59.3865241 C127.476405,59.4747656 130.845903,60.0042145 132.945224,60.2512907 Z" id="Path" fill="#31006F"></path>
                        <path d="M95.3867866,57.7981772 L95.3867866,64.0456748 L99.9911793,64.0456748 C105.283585,64.0456748 110.57599,64.2574544 115.868396,64.645717 L115.868396,40.1498788 L109.376378,40.1498788 L109.376378,57.9570119 L104.083973,57.7981772 L104.083973,26.2783163 L106.059804,26.2783163 L106.059804,20.2602465 L95.3867866,20.2602465 L95.3867866,26.2783163 L97.3449766,26.2783163 L97.3449766,57.7628806 L95.3867866,57.7981772 Z" id="Path" fill="#31006F"></path>
                        <path d="M7.05654053,78.7290591 L7.05654053,86.176641 C10.5142454,84.4000457 14.0425157,82.7352228 17.6413513,81.1821726 L17.6413513,73.9816668 L15.6831613,74.7934886 L15.6831613,38.4379939 L22.84555,68.4401011 L30.02558,38.4379939 L30.02558,69.3048678 L28.06739,69.9931514 L28.06739,76.9112844 C31.5956602,75.6406069 34.9827997,74.4405226 38.4934286,73.3816247 L38.4934286,66.6223264 L36.5352386,67.2047203 L36.5352386,26.2783163 L38.4934286,26.2783163 L38.4934286,20.2602465 L28.5789892,20.2602465 L22.9337567,42.3559161 L17.1650348,20.2602465 L7.05654053,20.2602465 L7.05654053,26.2783163 L8.92652377,26.2783163 L8.92652377,77.7936993 L7.05654053,78.7290591 Z" id="Path" fill="#31006F"></path>
                        <path d="M186.55729,83.0352439 C187.958261,83.6990116 189.601117,83.600722 190.913023,82.7746469 C192.224929,81.9485718 193.024019,80.5092268 193.031666,78.958487 L193.031666,45.0384575 C193.031666,42.1143917 190.662176,39.743968 187.739261,39.743968 L180.188762,39.743968 C179.923355,39.7304296 179.674592,39.6104905 179.498654,39.4112375 C179.322717,39.2119845 179.234444,38.9502234 179.253771,38.6850701 L179.253771,27.619587 C179.25374,27.2607809 179.397415,26.9169214 179.652682,26.6648708 C179.907948,26.4128203 180.253521,26.2735952 180.612155,26.2783163 L184.140425,26.2783163 C184.883804,26.2782536 185.489155,26.8759779 185.498809,27.619587 L185.498809,33.9200295 L192.996384,33.9200295 L192.996384,20.2602465 L185.498809,20.2602465 L185.498809,22.1839111 C185.113789,21.0385258 184.042894,20.2651909 182.834965,20.2602465 L177.295581,20.2602465 C174.372666,20.2602465 172.003175,22.6306702 172.003175,25.5547361 L172.003175,42.1794331 C172.003175,45.103499 174.372666,47.4739227 177.295581,47.4739227 L184.5991,47.4739227 C184.864729,47.4777 185.116715,47.5922656 185.294244,47.7899699 C185.471773,47.9876741 185.558716,48.2505566 185.534092,48.5151723 L185.534092,73.9463702 C185.534092,74.6875988 184.916645,75.0405647 184.175708,74.7405437 L180.647438,73.2757349 C179.86989,72.9400629 179.345449,72.1973807 179.289054,71.3520704 L179.289054,53.350806 L172.020817,53.350806 L172.020817,76.9642293 C174.455323,77.8819408 176.872188,78.7290591 179.271412,79.8232536 L179.271412,77.6525129 C179.684326,79.0681515 180.642566,80.2616618 181.935256,80.970393 C182.623269,81.1821726 185.057775,82.2940154 186.55729,83.0352439 Z" id="Path" fill="#31006F"></path>
                        <path d="M84.6784864,64.5574755 C87.645908,64.2461299 89.9159152,61.7708477 89.9708918,58.7864819 L89.9708918,26.2783163 L91.9290818,26.2783163 L91.9290818,20.2602465 L81.7147393,20.2602465 L81.7147393,26.2783163 L83.4788745,26.2783163 L83.4788745,57.0040038 C83.4732368,57.7735793 82.8863708,58.4140489 82.1204904,58.4864609 L78.5922202,58.8041302 C78.2426245,58.845035 77.8924441,58.7325511 77.632001,58.4956914 C77.3715579,58.2588316 77.2263519,57.920787 77.2338361,57.5687493 L77.2338361,26.2783163 L78.9979712,26.2783163 L78.9979712,20.2602465 L68.6954221,20.2602465 L68.6954221,26.2783163 L70.6536121,26.2783163 L70.6536121,60.621905 C70.6277525,61.9885792 71.1964012,63.2991366 72.2120243,64.2135573 C73.2276473,65.127978 74.5901434,65.5561354 75.9460175,65.3869455 C76.4399753,65.298704 80.9208785,64.8222 84.6784864,64.5574755 Z" id="Path" fill="#31006F"></path>
                        <path d="M52.1478345,69.6048888 L52.1478345,63.0573701 L50.3836994,63.463281 L50.3836994,46.3973765 L56.6463791,46.3973765 L56.6463791,62.0867137 L54.882244,62.457328 L54.882244,68.9519018 C58.4105142,68.1753767 61.8152951,67.5047413 65.325924,66.9046992 L65.325924,60.4983669 L63.5088648,60.8336845 L63.5088648,25.5370878 C63.5088648,22.6130219 61.1393742,20.2425983 58.2164594,20.2425983 L48.9371086,20.2425983 C46.0141938,20.2425983 43.6447032,22.6130219 43.6447032,25.5370878 L43.6447032,65.1575176 L41.6865132,65.7046149 L41.6865132,72.3580234 C45.144218,71.3697187 48.6195643,70.4343589 52.1478345,69.6048888 Z M50.3836994,28.4843536 C50.393388,27.2631436 51.385742,26.2783163 52.6065097,26.2783163 L55.3056364,26.2783163 C56.0490155,26.2783163 56.6543662,26.8759779 56.6640205,27.619587 L56.6640205,40.1498788 L50.4189821,40.1498788 L50.3836994,28.4843536 Z" id="Shape" fill="#31006F"></path>
                        <path d="M168.033871,75.5170688 L168.033871,68.669529 L167.187087,68.3871563 C166.53201,68.1583624 166.088576,67.54576 166.075681,66.8517543 L166.075681,47.8798335 C166.094495,46.0324889 165.070707,44.3323328 163.429479,43.4854072 C165.057129,42.5453585 166.064337,40.812278 166.075681,38.9321462 L166.075681,25.5370878 C166.075681,22.6130219 163.706191,20.2425983 160.783276,20.2425983 L143.6006,20.2425983 L143.6006,26.260668 L145.55879,26.260668 L145.55879,62.5632178 L143.6006,62.1396586 L143.6006,68.6342324 C147.281762,69.4342886 150.921761,70.3284691 154.520596,71.3167738 L154.520596,64.6810136 L152.562406,64.1868612 L152.562406,46.6444526 L157.466702,46.6444526 C158.216917,46.6444526 158.825086,47.2528614 158.825086,48.0033716 L158.825086,69.4284059 C158.831711,71.2324553 159.989152,72.8307784 161.700626,73.399273 C162.300432,73.5934043 166.05804,74.8111369 168.033871,75.5170688 Z M152.562406,26.2782 L157.466702,26.2782 C157.825336,26.2735952 158.170909,26.4128203 158.426175,26.6648708 C158.681442,26.9169214 158.825117,27.2607809 158.825086,27.619587 L158.825086,38.8262565 C158.829878,39.1881124 158.688302,39.5365508 158.432509,39.792444 C158.176717,40.0483372 157.828415,40.1899689 157.466702,40.1852933 L152.562406,40.1852933 L152.562406,26.2782 Z" id="Shape" fill="#31006F"></path>
                        <path d="M99.9911793,161.887841 C70.5654053,161.887841 46.5908089,141.009904 46.5908089,115.349278 C46.6023114,109.498191 47.8591999,103.716634 50.2778513,98.3892635 L44.1033783,99.5011063 L43.5564964,102.483669 L39.7283232,113.072648 L28.3496516,115.137499 L27.3970186,105.536824 L29.6021875,93.6771678 L34.4006351,82.7881677 L45.0736526,80.8468549 L45.8675135,90.6416605 L45.0736526,94.930197 L52.924054,93.5359815 C61.9211432,78.8702455 79.6859839,68.8283637 100.061745,68.8283637 C129.452236,68.8283637 153.479757,89.6886524 153.479757,115.349278 C153.479757,141.009904 129.452236,161.887841 99.9911793,161.887841 Z" id="Path" fill="#31006F"></path>
                        <polygon id="Path" fill="#FF4D00" points="42.0569816 85.7530819 37.1350445 86.6354968 33.28923 94.6478243 31.7720737 102.78369 32.7776308 109.966547"></polygon>
                        <path d="M124.777278,125.638236 L104.895475,117.961226 C103.987573,117.607399 103.274705,116.881401 102.937285,115.966969 L96.357061,90.8357918 L105.989239,112.437309 L128.922996,124.314614 L128.922996,134.62122 L124.777278,125.638236 Z" id="Path" fill="#FF4D00"></path>
                        <path d="M119.502514,104.319092 L133.42154,104.477926 L131.057599,102.236593 L131.057599,102.236593 C131.403787,99.245387 130.460606,96.248201 128.464006,93.9948259 C126.467406,91.7414507 123.606242,90.4450293 120.596278,90.4298809 C125.183029,91.1358129 129.152333,97.7892214 127.494046,102.589559 L119.502514,104.319092 Z" id="Path" fill="#FF4D00"></path>
                        <path d="M81.3619123,132.485776 L66.4373291,132.485776 C65.3820963,132.485498 64.3785713,132.028586 63.6852783,131.232747 L59.151451,125.938257 C58.3558948,125.002645 58.0781024,123.732237 58.4105142,122.549784 L61.1978478,112.94911 L64.1615948,108.731166 L67.8309959,99.2716784 L64.8496075,95.7420188 L56.5581724,97.2421241 C53.6160659,102.359991 52.0594188,108.157135 52.0419864,114.060952 C52.0419864,128.179591 60.8626621,140.5334 74.3230131,147.592719 L81.3619123,132.485776 Z" id="Path" fill="#FFFFFF"></path>
                        <path d="M99.9911793,74.2816879 C83.2848196,74.2816879 68.5542913,81.3410073 59.9629532,92.2123591 L64.726118,91.3299442 L66.9136456,87.4120219 C67.2524206,86.8105634 67.8404123,86.3904039 68.5190086,86.2648825 L76.1929964,84.9765567 C77.2011428,84.7950105 78.2189375,85.2413428 78.7686337,86.1060478 L80.3034312,88.4885681 L80.6033342,88.4885681 L82.2439799,84.9589084 C82.5895029,84.2600208 83.2424964,83.7635503 84.008115,83.6176378 L93.1110523,82.0822358 C94.2165925,81.8904633 95.3200223,82.4317129 95.8454618,83.4235065 L97.0274323,85.4530608 L112.26956,82.6822779 L111.405134,87.3414287 L99.1973185,89.5651143 L109.076475,108.237014 L112.234277,110.001844 L111.140513,105.88979 L108.476669,105.88979 L109.764488,103.330787 C109.02177,98.3490785 111.177485,93.3787132 115.321514,90.5181224 C118.081819,88.683038 121.480984,88.0798548 124.703797,88.8532328 C127.926611,89.6266108 130.682358,91.7067875 132.310135,94.5948794 C133.539186,96.6614059 134.191086,99.0201414 134.19776,101.424771 L138.290553,107.089875 L132.998148,107.089875 L133.298051,111.607839 L131.304578,111.607839 L131.004675,118.03182 L128.411396,118.7554 L132.874658,121.190865 C133.74067,121.686805 134.273064,122.610433 134.268325,123.608682 L134.268325,133.244653 C134.273323,134.345513 133.856677,135.406484 133.103996,136.209567 L124.900767,144.557212 L121.725324,145.086661 L115.127459,151.863608 C134.07427,146.604415 147.958014,131.656306 147.958014,114.078601 C147.958014,92.1241176 126.435565,74.2816879 99.9911793,74.2816879 Z" id="Path" fill="#FFFFFF"></path>
                        <path d="M83.9375496,92.3006006 L80.9914439,92.8300495 L75.2932875,93.8712991 L78.8215577,95.7243705 L75.8578107,115.631651 L79.8623975,114.431567 L80.9738026,112.772627 C81.3885974,112.134426 82.0122201,111.660286 82.7379377,111.431356 L91.188145,108.907649 L88.0127018,94.2242651 L83.9375496,92.3006006 Z" id="Path" fill="#FFFFFF"></path>
                        <path d="M36.1118462,10.0242335 C36.1118462,12.0890844 34.4712005,13.0773891 31.98377,13.0773891 L29.4610567,13.0773891 L29.4610567,15.2128332 L26.162124,15.2128332 L26.162124,7.05931936 L31.98377,7.05931936 C34.4712005,7.05931936 36.1118462,7.95938257 36.1118462,10.0242335 Z M32.7952721,10.112475 C32.7952721,9.47713623 32.336597,9.23006006 31.7191497,9.23006006 L29.4610567,9.23006006 L29.4610567,10.9948899 L31.7544324,10.9948899 C32.336597,10.9948899 32.7952721,10.7478137 32.7952721,10.112475 L32.7952721,10.112475 Z" id="Shape" fill="#FFFFFF"></path>
                        <polygon id="Path" fill="#FFFFFF" points="42.2157537 15.2128332 42.2157537 7.05931936 45.4970451 7.05931936 45.4970451 15.2128332"></polygon>
                        <polygon id="Path" fill="#FFFFFF" points="61.0743583 9.38889474 57.9694805 9.38889474 57.9694805 15.2128332 54.6881891 15.2128332 54.6881891 9.38889474 51.5656699 9.38889474 51.5656699 7.05931936 61.0743583 7.05931936"></polygon>
                        <polygon id="Path" fill="#FFFFFF" points="76.0695069 9.38889474 72.9646291 9.38889474 72.9646291 15.2128332 69.6833377 15.2128332 69.6833377 9.38889474 66.5784599 9.38889474 66.5784599 7.05931936 76.0695069 7.05931936"></polygon>
                        <path d="M91.6115374,12.477347 C91.6115374,14.2421768 89.9885331,15.495206 86.9012966,15.495206 C84.9637262,15.5596348 83.0536097,15.0233587 81.4324777,13.959804 L83.0201993,12.1949742 C84.1982034,12.9344788 85.5635565,13.3203583 86.9542207,13.306817 C87.9068537,13.306817 88.3655288,13.1656306 88.3655288,12.8656095 C88.3655288,12.5655885 88.0479845,12.4596987 86.6013937,12.3361606 C84.008115,12.124381 81.7500221,11.5243388 81.7500221,9.58302602 C81.7500221,7.6417132 83.8317015,6.70635339 86.5484696,6.70635339 C88.1944978,6.66553636 89.8212642,7.06781674 91.2587104,7.87114108 L89.7768369,9.63597092 C88.8039572,9.06929788 87.6913009,8.7879663 86.566111,8.82414919 C85.8428156,8.82414919 85.0489547,8.82414919 85.0489547,9.21241176 C85.0489547,9.60067432 85.613478,9.56537773 86.8130899,9.67126752 C89.6004234,9.95364029 91.6115374,10.4654409 91.6115374,12.477347 Z" id="Path" fill="#FFFFFF"></path>
                        <path d="M108.035636,12.9714993 C108.035636,14.31277 106.694893,15.2128332 104.507365,15.2128332 L97.8389345,15.2128332 L97.8389345,7.05931936 L104.083973,7.05931936 C106.236218,7.05931936 107.612243,7.87114108 107.612243,9.14181856 C107.536956,10.1667845 106.662926,10.947476 105.636412,10.9066484 C106.906589,11.0478348 108.035636,11.7361184 108.035636,12.9714993 Z M101.084943,10.1477716 L103.572374,10.1477716 C103.978125,10.1477716 104.31331,9.97128859 104.31331,9.56537773 C104.31331,9.15946686 103.978125,8.98298388 103.572374,8.98298388 L101.084943,8.98298388 L101.084943,10.1477716 Z M104.613213,12.5655885 C104.613213,12.1596776 104.31331,11.9126014 103.836994,11.9126014 L101.084943,11.9126014 L101.084943,13.2185755 L103.889918,13.2185755 C104.366234,13.2185755 104.666137,12.9714993 104.666137,12.5655885 L104.613213,12.5655885 Z" id="Shape" fill="#FFFFFF"></path>
                        <path d="M124.212755,7.05931936 L124.212755,11.3302076 C124.212755,13.9068591 122.44862,15.495206 119.149687,15.495206 C115.850754,15.495206 114.10426,13.9068591 114.10426,11.3302076 L114.10426,7.05931936 L117.385552,7.05931936 L117.385552,11.0654831 C117.385552,12.0401717 118.175382,12.8303129 119.149687,12.8303129 C120.123992,12.8303129 120.913822,12.0401717 120.913822,11.0654831 L120.913822,7.05931936 L124.212755,7.05931936 Z" id="Path" fill="#FFFFFF"></path>
                        <path d="M137.284996,15.2128332 L135.520861,12.953851 L134.038987,12.953851 L134.038987,15.2128332 L130.704772,15.2128332 L130.704772,7.05931936 L136.614625,7.05931936 C138.890359,7.05931936 140.742701,7.99467917 140.742701,10.0418818 C140.75126,11.2674575 139.943914,12.3491497 138.76687,12.6891265 L141.007321,15.2834264 L137.284996,15.2128332 Z M133.968422,10.8890001 L136.332363,10.8890001 C136.967452,10.8890001 137.408485,10.6772205 137.408485,10.0595301 C137.408485,9.44183964 136.967452,9.23006006 136.332363,9.23006006 L133.968422,9.23006006 L133.968422,10.8890001 Z" id="Shape" fill="#FFFFFF"></path>
                        <path d="M157.096234,13.8539142 C155.802588,15.0345288 154.079076,15.6284167 152.333069,15.495206 C148.804798,15.495206 146.617271,13.959804 146.617271,11.1007797 C146.617271,8.24175535 148.840081,6.70635339 152.333069,6.70635339 C153.956438,6.61990298 155.555682,7.12809836 156.831613,8.13586556 L154.626444,9.8124539 C154.021069,9.31707346 153.255764,9.05977946 152.4742,9.08887367 C150.710064,9.08887367 149.951486,9.8653988 149.951486,11.1007797 C149.951486,12.3361606 150.78063,13.1479823 152.4742,13.1479823 C153.02038,13.1605033 153.562568,13.0520229 154.061921,12.8303129 L154.061921,12.1949742 L151.997883,12.1949742 L151.997883,10.2536614 L157.096234,10.2536614 L157.096234,13.8539142 Z" id="Path" fill="#FFFFFF"></path>
                        <polygon id="Path" fill="#FFFFFF" points="173.837876 7.05931936 173.837876 15.2128332 170.538943 15.2128332 170.538943 12.3538089 166.781335 12.3538089 166.781335 15.2128332 163.482403 15.2128332 163.482403 7.05931936 166.781335 7.05931936 166.781335 9.77715731 170.538943 9.77715731 170.538943 7.05931936"></polygon>
                    </g>
                </g>
            </g>
        </g>
    </g>
</svg>