<?xml version="1.0" encoding="UTF-8"?>
<svg width="200px" height="192px" viewBox="0 0 200 192" version="1.1" xmlns="http://www.w3.org/2000/svg" xmlns:xlink="http://www.w3.org/1999/xlink">
    <title>DB4EB73C-7556-41D1-860A-5D02DB3570AA@0.5x</title>
    <g id="Final-Designs" stroke="none" stroke-width="1" fill="none" fill-rule="evenodd">
        <g id="Assets" transform="translate(-2247.000000, -8045.000000)" fill-rule="nonzero">
            <g id="Team-Logos" transform="translate(139.500000, 7908.000000)">
                <g id="Group" transform="translate(2107.500000, 133.000000)">
                    <g id="Stars" transform="translate(0.000000, 4.000000)">
                        <path d="M131.878307,178.906514 C129.440665,184.57469 132.199546,192 142.328042,192 L171.201814,192 C183.692366,192 190.26833,188.391262 192.705971,181.721708 C195.275888,174.655383 191.685563,165.869711 181.972789,165.869711 L176.70068,165.869711 C176.166214,165.91563 175.640041,165.714956 175.271929,165.324809 C174.903816,164.934662 174.73408,164.397771 174.811036,163.866955 C175.156148,162.70577 176.246045,161.927377 177.456538,161.977563 L195.672714,161.977563 L200,150.962409 L179.62963,150.962409 C170.918367,150.962409 163.359788,155.761464 161.1678,162.903365 C160.104142,166.303905 160.721499,170.007552 162.830688,172.879354 C165.154951,175.637867 168.613001,176.960441 173.356009,176.960441 L176.927438,176.960441 C177.443305,176.906316 177.956044,177.08791 178.32282,177.454637 C178.689596,177.821364 178.871215,178.334035 178.817082,178.849833 C178.462519,179.995981 177.390028,180.767454 176.190476,180.739225 L148.337113,180.739225 C147.766068,180.81629 147.194376,180.602253 146.814393,180.169131 C146.43441,179.736008 146.296651,179.141379 146.447468,178.585318 C147.050185,177.342032 148.046575,176.332493 149.281935,175.713442 C153.011041,173.209646 155.854611,169.592846 157.407407,165.378469 C159.297052,158.387719 154.176115,150.546743 142.762661,150.546743 C132.842026,150.546743 125.58579,155.326904 122.335601,163.621334 L111.22449,191.962212 L125.094482,191.962212 L135.147392,166.266483 C135.972519,163.90927 138.150807,162.292612 140.646259,162.185397 C143.14059,162.185397 144.028723,163.923637 143.575208,165.510726 C143.215622,166.460818 142.55105,167.264842 141.685563,167.79689 C134.807256,172.728203 133.238851,175.713442 131.878307,178.906514 Z" id="Path" fill="#C10230"></path>
                        <polygon id="Path" fill="#C10230" points="93.2917611 150.924621 61.0922147 192 76.7762661 192 98.5260771 164.282622 98.4882842 192 111.130008 192 111.205593 150.924621"></polygon>
                        <path d="M84.4671202,150.924621 L80.0831444,162.090927 L69.1421013,162.090927 L57.388511,192 L43.4618292,192 L55.2910053,161.939776 L28.3446712,161.939776 C27.1410882,161.898394 26.0614377,162.675017 25.718065,163.829167 C25.6333586,164.361505 25.800445,164.903014 26.17039,165.295103 C26.540335,165.687192 27.0712733,165.885491 27.6077098,165.831923 L32.8798186,165.831923 C42.5925926,165.831923 46.1073318,174.617595 43.6130008,181.68392 C41.1564626,188.353474 34.5993953,191.962212 22.0899471,191.962212 L0,191.962212 L4.38397581,180.8148 L27.0597128,180.8148 C28.2642146,180.845162 29.3432902,180.074496 29.7052154,178.925408 C29.7593478,178.40961 29.577729,177.89694 29.210953,177.530213 C28.844177,177.163486 28.3314379,176.981891 27.8155707,177.036017 L24.2630385,177.036017 C19.5200302,177.036017 16.0619803,175.713442 13.7377173,172.95493 C11.6285288,170.083128 11.0111715,166.37948 12.0748299,162.978941 C14.2668178,155.83704 21.8065004,151.037985 30.5366591,151.037985 L84.4671202,150.924621 Z" id="Path" fill="#C10230"></path>
                        <path d="M42.3658352,135.847274 L48.0347695,135.847274 C49.9244142,135.847274 50.9826153,136.527455 50.170068,138.567998 C49.5778574,140.216872 47.9698803,141.278457 46.2207105,141.175359 L43.5752079,141.175359 L42.5736961,143.707144 L39.2668178,143.707144 L42.3658352,135.847274 Z M44.25548,139.531588 L44.9357521,139.531588 C46.1073318,139.531588 46.6364324,139.267073 46.9387755,138.492423 C47.2411187,137.717772 46.9387755,137.491045 46.0695389,137.491045 L45.0680272,137.491045 L44.25548,139.531588 Z" id="Shape" fill="#FFB71B"></path>
                        <polygon id="Path" fill="#FFB71B" points="54.9697657 135.847274 58.276644 135.847274 57.1428571 138.756938 60.4686319 138.756938 61.6213152 135.847274 64.9281935 135.847274 61.8291761 143.707144 58.446712 143.707144 59.6560847 140.665223 56.3869992 140.665223 55.1776266 143.707144 51.8707483 143.707144"></polygon>
                        <polygon id="Path" fill="#FFB71B" points="69.7656841 135.847274 73.0725624 135.847274 69.9168556 143.707144 66.6666667 143.707144"></polygon>
                        <polygon id="Path" fill="#FFB71B" points="77.9856387 135.847274 81.2547241 135.847274 78.9493575 141.704389 82.5774754 141.704389 81.8216175 143.593781 74.8866213 143.593781"></polygon>
                        <path d="M90.9108088,135.847274 L95.0302343,135.847274 L95.9372638,143.707144 L92.2902494,143.707144 L92.2902494,142.403464 L88.1708239,142.403464 L87.037037,143.707144 L83.8057445,143.707144 L90.9108088,135.847274 Z M92.1390779,140.684117 L91.9879063,137.925605 L89.6447468,140.684117 L92.1390779,140.684117 Z" id="Shape" fill="#FFB71B"></path>
                        <path d="M101.587302,135.847274 L105.820106,135.847274 C108.125472,135.847274 109.599395,136.055107 110.204082,137.132061 C110.541669,138.004797 110.493605,138.97969 110.071807,139.814997 C109.655749,140.96043 108.897001,141.949968 107.898715,142.649085 C106.500903,143.486414 104.872757,143.857 103.250189,143.707144 L98.4882842,143.707144 L101.587302,135.847274 Z M102.494331,141.912222 L103.401361,141.912222 C104.829815,142.010358 106.152524,141.156864 106.65155,139.814997 C107.237339,138.341271 106.65155,137.66109 105.102041,137.66109 L104.176115,137.66109 L102.494331,141.912222 Z" id="Shape" fill="#FFB71B"></path>
                        <polygon id="Path" fill="#FFB71B" points="115.079365 135.847274 122.637944 135.847274 121.976568 137.491045 117.630385 137.491045 117.063492 138.945877 121.126228 138.945877 120.464853 140.608542 116.402116 140.608542 115.835223 142.044479 120.219199 142.044479 119.557823 143.707144 111.999244 143.707144"></polygon>
                        <polygon id="Path" fill="#FFB71B" points="127.267574 135.847274 130.574452 135.847274 128.231293 141.704389 131.85941 141.704389 131.103553 143.593781 124.168556 143.593781"></polygon>
                        <path d="M137.301587,135.847274 L142.970522,135.847274 C144.860166,135.847274 145.918367,136.527455 145.10582,138.567998 C144.518849,140.220981 142.907354,141.284889 141.156463,141.175359 L138.492063,141.175359 L137.509448,143.707144 L134.164777,143.707144 L137.301587,135.847274 Z M139.191232,139.531588 L139.833711,139.531588 C141.005291,139.531588 141.534392,139.267073 141.836735,138.492423 C142.139078,137.717772 141.836735,137.491045 140.948602,137.491045 L139.94709,137.491045 L139.191232,139.531588 Z" id="Shape" fill="#FFB71B"></path>
                        <polygon id="Path" fill="#FFB71B" points="149.905518 135.847274 153.212396 135.847274 152.059713 138.756938 155.328798 138.756938 156.481481 135.847274 159.78836 135.847274 156.689342 143.707144 153.382464 143.707144 154.57294 140.665223 151.303855 140.665223 150.113379 143.707144 146.8065 143.707144"></polygon>
                        <polygon id="Path" fill="#FFB71B" points="164.701436 135.847274 168.008314 135.847274 164.909297 143.707144 161.602419 143.707144"></polygon>
                        <path d="M175.58579,135.847274 L179.705215,135.847274 L180.612245,143.707144 L176.965231,143.707144 L176.965231,142.403464 L172.845805,142.403464 L171.730915,143.707144 L168.480726,143.707144 L175.58579,135.847274 Z M176.814059,140.684117 L176.681784,137.925605 L174.319728,140.684117 L176.814059,140.684117 Z" id="Shape" fill="#FFB71B"></path>
                        <polygon id="Path" fill="#FFFFFF" points="118.065004 0 125.26455 42.1145444 161.904762 42.1145444 190.778534 65.8642 153.873772 86.9687069 161.602419 132.16296 125.888133 102.952962 72.8269085 133.277701 88.9077853 107.109624 60.6575964 123.245031 76.7195767 97.0958473 48.4693878 113.231254 78.5714286 64.2582169 51.6250945 42.1145444 92.1768707 42.1145444"></polygon>
                        <polygon id="Path" fill="#FF6B00" points="140.47619 73.9130093 147.108844 70.1153316 134.901738 60.1204487 128.269085 63.8992324"></polygon>
                        <polygon id="Path" fill="#FF6B00" points="70.0302343 114.157056 79.0627362 108.999016 75.170068 105.805944"></polygon>
                        <polygon id="Path" fill="#FF6B00" points="99.3953137 97.3792561 106.027967 93.5815784 93.8397581 83.5866955 87.2071051 87.3654792"></polygon>
                        <polygon id="Path" fill="#FF6B00" points="76.5117158 103.614249 81.4247921 107.657548 88.0574452 103.85987 80.2910053 97.4926196"></polygon>
                        <polygon id="Path" fill="#FF6B00" points="149.452003 68.7738634 156.084656 64.9950797 143.896447 54.9813029 137.263794 58.7789805"></polygon>
                        <polygon id="Path" fill="#FF6B00" points="81.6326531 95.300925 90.4195011 102.518402 97.0521542 98.7207243 85.3930461 89.1792954"></polygon>
                        <polygon id="Path" fill="#FF6B00" points="139.928193 85.9295414 138.114135 75.2544775 125.944822 65.2784885 127.758881 75.9535525"></polygon>
                        <polygon id="Path" fill="#FF6B00" points="144.765684 114.157056 143.0839 104.370006 130.914588 94.375123 132.596372 104.143279"></polygon>
                        <polygon id="Path" fill="#FF6B00" points="96.2018141 82.2263334 108.390023 92.2401102 114.077853 88.9903562 101.851852 79.0143673"></polygon>
                        <polygon id="Path" fill="#FF6B00" points="140.589569 89.7272191 128.420257 79.770124 130.272109 90.5585515 142.441421 100.553434"></polygon>
                        <polygon id="Path" fill="#FF6B00" points="167.441421 58.4955717 172.921391 55.3780752 160.733182 45.3454044 155.253212 48.5006888"></polygon>
                        <polygon id="Path" fill="#FF6B00" points="158.446712 63.6347176 165.079365 59.8559339 152.891156 49.8421571 146.258503 53.6398347"></polygon>
                        <polygon id="Path" fill="#FFB71B" points="142.441421 100.553434 154.610733 110.529423 152.758881 99.6843141 140.589569 89.7272191"></polygon>
                        <polygon id="Path" fill="#FFB71B" points="82.2184429 124.170833 91.2698413 119.012793 87.3582766 115.800827"></polygon>
                        <polygon id="Path" fill="#FFB71B" points="138.114135 75.2544775 139.928193 85.9295414 152.097506 95.8677426 150.283447 85.2682543 150.302343 85.2682543 138.114135 75.2544775"></polygon>
                        <polygon id="Path" fill="#FFB71B" points="156.934996 124.170833 155.253212 114.345995 143.0839 104.370006 144.765684 114.157056"></polygon>
                        <polygon id="Path" fill="#FFB71B" points="99.3953137 97.3792561 111.602419 107.393033 118.235072 103.595355 106.027967 93.5815784"></polygon>
                        <polygon id="Path" fill="#FFB71B" points="93.8208617 105.295808 102.60771 112.513285 109.240363 108.734501 97.5812547 99.1741783"></polygon>
                        <polygon id="Path" fill="#FFB71B" points="179.62963 68.5093486 185.090703 65.391852 172.921391 55.3780752 167.441421 58.4955717"></polygon>
                        <polygon id="Path" fill="#FFB71B" points="149.452003 68.7738634 161.659108 78.7876402 168.291761 74.9899626 156.084656 64.9950797"></polygon>
                        <polygon id="Path" fill="#FFB71B" points="88.6999244 113.628026 93.6130008 117.652431 100.245654 113.873647 92.4792139 107.487502"></polygon>
                        <polygon id="Path" fill="#FFB71B" points="158.446712 63.6347176 170.653817 73.6484944 177.267574 69.8508168 165.079365 59.8559339"></polygon>
                        <polygon id="Path" fill="#FFB71B" points="140.47619 73.9130093 152.664399 83.9267861 159.297052 80.1291084 147.108844 70.1153316"></polygon>
                        <polygon id="Path" fill="#FFB71B" points="76.5117158 103.614249 81.4247921 107.657548 79.0627362 108.999016 75.170068 105.805944"></polygon>
                        <polygon id="Path" fill="#FFB71B" points="137.263794 58.7789805 149.452003 68.7738634 147.108844 70.1153316 134.901738 60.1204487"></polygon>
                        <polygon id="Path" fill="#FFB71B" points="87.2071051 87.3654792 99.3953137 97.3792561 97.0521542 98.7207243 85.3930461 89.1792954"></polygon>
                        <polygon id="Path" fill="#FFB71B" points="81.6326531 95.300925 90.4195011 102.518402 88.0574452 103.85987 80.2910053 97.4926196"></polygon>
                        <polygon id="Path" fill="#FFB71B" points="128.269085 63.8992324 140.47619 73.9130093 138.114135 75.2544775 125.944822 65.2784885"></polygon>
                        <polygon id="Path" fill="#FFB71B" points="96.2018141 82.2263334 108.390023 92.2401102 106.027967 93.5815784 93.8397581 83.5866955"></polygon>
                        <polygon id="Path" fill="#FFB71B" points="130.272109 90.5585515 142.441421 100.553434 143.0839 104.370006 130.914588 94.375123"></polygon>
                        <polygon id="Path" fill="#FFB71B" points="127.758881 75.9535525 139.928193 85.9295414 140.589569 89.7272191 128.420257 79.770124"></polygon>
                        <polygon id="Path" fill="#FFB71B" points="155.253212 48.5006888 167.441421 58.4955717 165.079365 59.8559339 152.891156 49.8421571"></polygon>
                        <polygon id="Path" fill="#FFB71B" points="146.258503 53.6398347 158.446712 63.6347176 156.084656 64.9950797 143.896447 54.9813029"></polygon>
                        <polygon id="Path" fill="#FFB71B" points="108.390023 92.2401102 120.597128 102.253887 126.284958 98.9852391 114.077853 88.9903562"></polygon>
                        <polygon id="Path" fill="#C10230" points="125.925926 65.2407006 160.733182 45.3454044 122.524565 45.3454044 116.326531 9.01239913 93.9909297 45.3454044 60.7142857 45.3454044 82.8609221 63.4646723 57.8609221 104.143279 101.851852 79.0143673 132.596372 104.143279"></polygon>
                    </g>
                </g>
            </g>
        </g>
    </g>
</svg>