<?xml version="1.0" encoding="UTF-8"?>
<svg width="200px" height="170px" viewBox="0 0 200 170" version="1.1" xmlns="http://www.w3.org/2000/svg" xmlns:xlink="http://www.w3.org/1999/xlink">
    <title>BAAA0853-F465-4AE7-BD43-2B42F91BB2F5@0.5x</title>
    <g id="Final-Designs" stroke="none" stroke-width="1" fill="none" fill-rule="evenodd">
        <g id="Assets" transform="translate(-1047.000000, -8056.000000)" fill-rule="nonzero">
            <g id="Team-Logos" transform="translate(139.500000, 7908.000000)">
                <g id="Group" transform="translate(907.500000, 133.000000)">
                    <g id="Generals" transform="translate(0.000000, 15.250000)">
                        <polygon id="Path" fill="#CC9F53" points="50.7450901 112.604342 53.8716187 112.604342 56.163315 117.511563 57.800241 112.604342 60.8449233 112.604342 57.9148258 121.944418 55.0502054 121.944418 52.5620779 116.595548 50.9251519 121.944418 47.8477311 121.944418"></polygon>
                        <polygon id="Path" fill="#CC9F53" points="64.1515138 112.604342 72.3361436 112.604342 71.6977425 114.681732 66.6560105 114.681732 66.1976712 116.137541 70.2245091 116.137541 69.586108 118.198573 65.5592701 118.198573 65.0354538 119.834313 70.1262935 119.834313 69.4715232 121.911703 61.2868933 121.911703"></polygon>
                        <polygon id="Path" fill="#CC9F53" points="73.809377 112.604342 76.9359056 112.604342 76.2156582 118.934656 80.2097575 112.604342 83.1725935 112.604342 83.074378 118.934656 86.3482299 112.604342 89.376543 112.604342 83.7455176 121.944418 80.4716657 121.944418 80.4880349 116.137541 76.9359056 121.944418 73.6620536 121.944418"></polygon>
                        <path d="M93.3051653,120.128747 L93.9435664,118.067714 L97.1028335,118.067714 L96.5790172,119.572595 C96.5790172,119.752526 96.5790172,119.817956 96.8081869,119.817956 L98.330528,119.817956 C98.5596976,119.817956 98.6415439,119.817956 98.707021,119.572595 L100.884133,112.604342 L104.02703,112.604342 L101.669857,120.128747 C101.308657,121.353154 100.102323,122.126599 98.8379751,121.944418 L94.9420913,121.944418 C93.3870116,121.944418 92.8304567,121.355552 93.3051653,120.128747 Z" id="Path" fill="#CC9F53"></path>
                        <polygon id="Path" fill="#CC9F53" points="107.333621 112.604342 115.518251 112.604342 114.86348 114.681732 109.821748 114.681732 109.363409 116.137541 113.406616 116.137541 112.768215 118.198573 108.725008 118.198573 108.201192 119.834313 113.292031 119.834313 112.637261 121.911703 104.452631 121.911703"></polygon>
                        <path d="M125.274329,121.944418 L122.000478,121.944418 L121.132907,118.820155 L119.839735,118.820155 L118.873949,121.944418 L115.649205,121.944418 L118.579302,112.604342 L125.438022,112.604342 C126.976732,112.604342 127.533287,113.193209 127.156794,114.420014 L126.387439,116.840909 C126.121135,117.82809 125.262914,118.541664 124.243066,118.623866 L125.274329,121.944418 Z M122.949895,116.840909 C123.179064,116.840909 123.260911,116.840909 123.326388,116.611906 L123.866573,114.878021 C123.866573,114.681732 123.866573,114.63266 123.637404,114.63266 L121.132907,114.63266 L120.445398,116.840909 L122.949895,116.840909 Z" id="Shape" fill="#CC9F53"></path>
                        <path d="M128.171688,120.128747 L128.58092,118.852869 L131.723818,118.852869 L131.46191,119.703454 C131.46191,119.883386 131.46191,119.948815 131.691079,119.948815 L133.835452,119.948815 C134.080991,119.948815 134.162837,119.948815 134.211945,119.703454 L134.473853,118.885584 C134.473853,118.738368 134.473853,118.705653 134.195576,118.656581 L131.298217,117.96957 C129.775876,117.609707 129.071998,117.380703 129.481229,116.039397 L129.988676,114.403656 C130.362597,113.181252 131.570007,112.411566 132.836927,112.587985 L137.109304,112.587985 C138.648015,112.587985 139.204569,113.176851 138.74623,114.403656 L138.386106,115.597747 L135.292316,115.597747 L135.537855,114.828949 C135.537855,114.649017 135.537855,114.583588 135.308686,114.583588 L133.393482,114.583588 C133.147943,114.583588 133.066097,114.583588 133.016989,114.828949 L132.78782,115.548675 C132.78782,115.695891 132.78782,115.744963 133.049728,115.810393 L135.963456,116.464689 C137.502166,116.824552 138.189675,117.053555 137.764075,118.394862 L137.240258,120.030602 C136.866338,121.253007 135.658928,122.022693 134.392007,121.846274 L129.890461,121.846274 C128.35175,121.944418 127.795195,121.355552 128.171688,120.128747 Z" id="Path" fill="#CC9F53"></path>
                        <polygon id="Path" fill="#CC9F53" points="142.625745 112.604342 150.810375 112.604342 150.155604 114.681732 145.130241 114.681732 144.671902 116.137541 148.715109 116.137541 148.060339 118.198573 144.04987 118.198573 143.526054 119.834313 148.616894 119.834313 147.962123 121.911703 139.777494 121.911703"></polygon>
                        <polygon id="Path" fill="#CC9F53" points="153.986011 119.049158 152.349085 112.604342 155.753891 112.604342 156.425031 116.562833 159.567929 112.604342 162.956365 112.604342 157.145278 119.049158 156.2286 121.944418 153.085702 121.944418"></polygon>
                        <path d="M162.285226,129.305248 L155.508352,129.305248 C155.410137,129.79597 155.279183,130.319407 155.164598,130.940988 C153.554769,129.989619 151.714761,129.49742 149.844588,129.517894 C147.639613,129.541332 145.500014,130.2693 143.738854,131.595284 C141.724622,133.03683 139.984016,134.826028 138.598907,136.878724 C137.066544,139.131092 135.869988,141.5941 135.046778,144.190482 C134.190204,146.748352 133.748118,149.426556 133.737237,152.123821 C133.739298,152.956384 133.804965,153.787574 133.933668,154.610146 C134.049241,155.457423 134.315327,156.277262 134.719392,157.031041 C135.115674,157.746772 135.676786,158.357941 136.356318,158.813998 C137.248819,159.314076 138.26447,159.552212 139.286416,159.501009 C140.266366,159.484298 141.225206,159.213763 142.06919,158.715853 C143.089798,158.119675 144.011932,157.369259 144.802856,156.491247 C145.765222,155.446741 146.625771,154.312954 147.37283,153.105265 C148.242601,151.707458 149.04028,150.266126 149.762742,148.786912 C149.807357,148.684333 149.889259,148.602491 149.991912,148.557908 C148.895171,151.829388 147.651107,155.460731 146.226982,159.435579 L155.508352,159.435579 C155.508352,159.435579 153.216656,158.568637 155.78663,150.210005 L162.285226,129.305248 Z M149.418988,144.435843 C148.666002,146.071583 147.913016,147.511034 147.127291,148.835984 C146.470071,150.001315 145.696795,151.097366 144.819226,152.107464 C144.338681,152.80318 143.592726,153.270544 142.756699,153.399698 C142.263347,153.46596 141.771655,153.266938 141.463527,152.876262 C141.218415,152.303898 141.111858,151.681833 141.152511,151.06059 C141.175988,149.929995 141.324207,148.805437 141.594481,147.707323 C141.894215,146.347623 142.282446,145.008922 142.756699,143.69976 C143.258137,142.294649 143.837413,140.918501 144.49184,139.577695 C145.094587,138.294218 145.812303,137.067867 146.636213,135.913638 C147.323765,134.952343 148.132532,134.083686 149.042495,133.329168 C149.726314,132.721206 150.599718,132.36863 151.514253,132.331367 C151.966505,132.296649 152.415581,132.430692 152.774686,132.707587 C153.020437,132.920924 153.201827,133.198478 153.298502,133.5091 L153.298502,133.5091 C153.21571,134.29588 153.039878,135.070079 152.774686,135.815493 C152.414562,136.944154 151.956223,138.252746 151.383299,139.724912 C150.810375,141.197078 150.155604,142.832818 149.418988,144.435843 Z" id="Shape" fill="#C10230"></path>
                        <path d="M179.783964,117.626064 L169.962408,117.626064 C169.962408,117.626064 172.270474,118.493007 169.684131,126.851638 C169.684131,126.851638 160.926577,155.100868 159.387867,159.386507 L169.209423,159.386507 C169.209423,159.386507 166.901357,158.519565 169.4877,150.160933 C169.504069,150.160933 178.261623,121.911703 179.783964,117.626064 Z" id="Path" fill="#C10230"></path>
                        <path d="M188.901642,129.223461 C187.305564,129.268576 185.730721,129.601049 184.252772,130.204905 C183.043579,130.684184 181.933601,131.382963 180.97892,132.265937 C180.199327,132.991212 179.580379,133.871599 179.161932,134.850407 C178.794552,135.668934 178.599539,136.554211 178.589008,137.451233 C178.638705,138.947043 179.134634,140.393879 180.013134,141.606013 C180.975535,143.064818 182.019363,144.468323 183.139663,145.809865 L186.266191,149.850143 C187.163395,151.011132 187.673,152.424405 187.723055,153.89042 C187.797204,154.990333 187.405133,156.070716 186.642684,156.867467 C186.078169,157.490024 185.302206,157.88064 184.465573,157.963413 C180.144088,158.192417 180.029503,152.336467 180.062242,151.076948 L175.495218,151.076948 C175.00414,152.712688 174.34937,155.002724 173.432692,158.225131 C177.075396,159.885426 181.078583,160.599964 185.071235,160.302521 C186.662879,160.250961 188.232167,159.912949 189.703736,159.30472 C190.909921,158.819541 192.01888,158.121403 192.977588,157.243687 C193.758759,156.500654 194.377421,155.603966 194.794575,154.610146 C195.156325,153.790422 195.345756,152.905194 195.35113,152.009319 C195.301697,150.508429 194.805901,149.056285 193.927005,147.838182 C192.96593,146.378449 191.922047,144.974871 190.800476,143.634331 L187.690317,139.594053 C186.786353,138.443059 186.275715,137.032654 186.233453,135.570132 C186.141775,134.462939 186.53603,133.370569 187.313824,132.576728 C187.881544,131.967348 188.647204,131.578999 189.474566,131.480782 C193.845158,131.251779 193.910635,137.205872 193.894266,138.399962 L197.839258,138.399962 C198.363074,136.617006 199.066952,134.228825 200,130.973703 C196.489587,129.526888 192.687332,128.927262 188.901642,129.223461 L188.901642,129.223461 Z" id="Path" fill="#C10230"></path>
                        <path d="M64.0860367,136.224428 C61.8344982,142.865218 57.7346783,148.726777 52.2674312,153.121623 C43.3134462,159.893586 39.9741172,152.565471 43.0679073,143.683403 C46.1616973,134.801334 49.1245334,131.824288 51.7599842,131.824288 C54.018942,131.824288 53.8061416,141.262508 45.2122803,145.858937 C44.8771127,146.022445 44.6443327,146.340755 44.5902484,146.709522 L44.5902484,146.709522 C44.5331176,147.116073 44.6919695,147.523015 45.0094931,147.783529 C45.3270167,148.044044 45.7573847,148.120532 46.1453281,147.985399 C55.3121135,144.599417 59.7972907,137.729309 58.7660273,133.263739 C57.734764,128.798169 51.6453993,129.04353 51.6453993,129.04353 C51.6453993,129.04353 40.0559635,128.716382 35.2761396,143.76519 C30.6600084,158.48685 41.2345502,160.12259 43.870001,159.795442 C46.5054518,159.468294 53.0531557,159.337435 61.270524,146.709522 L57.9966721,159.337435 L63.8404978,159.337435 C66.4563561,153.475497 69.5725734,147.849573 73.1546066,142.522027 C77.72163,136.355287 85.284228,126.688064 73.498361,159.337435 L82.7961006,159.337435 C82.7961006,159.337435 80.4880349,158.470492 83.074378,150.111861 L87.7068785,135.259342 C88.2840555,133.434581 87.682341,131.442854 86.1911241,130.242065 C84.6999072,129.041124 82.624378,128.877174 80.9627435,129.828685 C77.6888915,131.677071 73.8257462,135.537417 69.4060461,143.127251 L73.8257462,129.387035 L63.5458511,129.387035 C63.5458511,129.387035 65.6083779,131.513497 64.0860367,136.224428 Z" id="Path" fill="#C10230"></path>
                        <path d="M112.178922,159.386507 L119.856105,159.386507 C124.128481,145.629933 128.777351,139.315977 131.494648,136.486147 C132.14477,137.148254 133.038253,137.514849 133.966406,137.500305 C136.365091,137.380985 138.381978,135.661155 138.877184,133.312811 C139.166801,132.303982 138.954475,131.217552 138.306305,130.391733 C137.658134,129.565915 136.652824,129.100983 135.603332,129.141674 C134.554255,129.168848 133.529219,129.461503 132.624127,129.992259 C130.283323,131.49714 127.271379,136.158999 123.653773,143.078179 L128.089842,129.288891 L117.859055,129.288891 C117.859055,129.288891 119.921582,131.415353 118.39924,136.126284 C116.154264,142.770388 112.053252,148.633651 106.580635,153.023478 C97.6266498,159.795442 94.2873209,152.467327 97.3811109,143.585258 C100.474901,134.70319 103.437737,131.726143 106.089557,131.726143 C108.332146,131.726143 108.119345,141.164363 99.5418532,145.760793 C99.2066856,145.924301 98.9739057,146.242611 98.9198214,146.611377 L98.9198214,146.611377 C98.8468598,147.038685 99.0146995,147.471503 99.3567498,147.738108 C99.6988,148.004714 100.159762,148.062007 100.556747,147.887255 C109.723533,144.501273 114.20871,137.631165 113.177447,133.165594 C112.146183,128.700024 106.056819,128.945385 106.056819,128.945385 C106.056819,128.945385 94.4673827,128.618237 89.6875589,143.667045 C85.0714277,158.388705 95.6459694,160.024445 98.2977895,159.697297 C100.687701,159.386507 107.480944,159.23929 115.698313,146.611377 L112.178922,159.386507 Z" id="Path" fill="#C10230"></path>
                        <path d="M34.8505389,127.40779 L37.944329,115.761321 C32.1373786,112.717267 25.368699,112.065549 19.0869418,113.945649 C16.3015653,114.861146 13.7137369,116.292854 11.4588668,118.165859 C9.3220615,119.989934 7.49746454,122.150239 6.05701108,124.561602 C4.65373735,126.880574 3.46478139,129.322464 2.50488173,131.857002 C1.65023959,134.121805 1.00371367,136.459658 0.573309085,138.841612 C0.234942845,140.655294 0.0433483917,142.493268 0.000384995487,144.337699 C-0.010359937,146.296785 0.203840778,148.250637 0.638786124,150.160933 C1.01786869,151.873719 1.70566674,153.503284 2.66857433,154.970009 C3.6171047,156.377214 4.87741234,157.547051 6.35165776,158.388705 C8.0791373,159.313668 9.979786,159.87064 11.9335753,160.024445 C13.5853849,160.236508 15.263777,160.074381 16.8443532,159.550081 C17.9383723,159.15535 18.9694223,158.604386 19.9054048,157.914341 C16.9261995,168.939229 11.7207749,169.593525 11.7207749,169.593525 C11.7207749,169.593525 24.014089,172.227066 28.3683121,155.886023 L33.8847526,135.112125 L22.0170393,135.112125 C22.0170393,135.112125 24.8489212,137.680237 23.9486119,140.788143 L23.703073,141.769587 C23.0016561,144.369069 22.104237,146.911737 21.0185144,149.375778 C20.3378202,150.955399 19.4812176,152.453367 18.4649099,153.841348 C17.8622232,154.706793 17.0591604,155.413874 16.1241058,155.902381 C15.4995872,156.208103 14.8035599,156.338161 14.1106869,156.278601 C9.19990895,156.278601 7.56298298,147.331103 10.5094497,136.33893 C13.4559165,125.346757 20.0036203,116.431974 25.0126138,116.464689 C28.5156354,116.464689 30.3489925,120.881187 30.1034536,127.309645 L34.8505389,127.40779 Z" id="Path" fill="#C10230"></path>
                        <path d="M150.597574,38.0145979 C151.140502,36.4758864 151.406516,34.8532713 151.383299,33.2218797 C151.512685,29.5593318 149.352923,26.2014121 145.965074,24.7978186 C146.051294,23.2836883 145.868406,21.766267 145.424888,20.315891 C144.593981,16.9232242 141.768446,14.3853299 138.30426,13.9201475 C137.988867,12.5220286 137.435151,11.1885412 136.667334,9.97801408 C134.924043,6.80607871 131.301982,5.15604147 127.762457,5.92137885 C127.294932,6.05559892 126.867669,6.30278251 126.518393,6.64110445 C123.342757,5.21801064 119.266811,5.36522724 115.665574,9.81444008 C117.495364,10.746118 119.064745,12.1176284 120.232597,13.8056457 C120.821891,14.4762991 121.49303,15.2614543 122.262386,16.0138947 L106.073188,16.0138947 L100.867763,0 L95.6623387,16.0138947 L79.4404023,16.0138947 C80.2097575,15.2614543 80.8808972,14.4762991 81.4701905,13.8056457 C82.6410659,12.1141721 84.2166595,10.7421496 86.0535832,9.81444008 C82.4359768,5.36522724 78.3600312,5.21801064 75.1843948,6.64110445 C74.8351194,6.30278251 74.4078564,6.05559892 73.9403311,5.92137885 C70.4008055,5.15604147 66.7787448,6.80607871 65.0354538,9.97801408 C64.2743787,11.1920299 63.7211543,12.5243346 63.3985278,13.9201475 C59.9343422,14.3853299 57.1088066,16.9232242 56.2778998,20.315891 C55.834382,21.766267 55.6514944,23.2836883 55.7377143,24.7978186 C52.3499025,26.1989962 50.1942104,29.5607449 50.3358586,33.2218797 C50.2992226,34.852863 50.5599215,36.4768938 51.1052138,38.0145979 C48.048266,40.3839925 46.8321513,44.430392 48.0769007,48.0907564 C48.5614641,49.8012653 49.3547629,51.4088873 50.4177049,52.8344024 C47.9623159,55.7950918 47.9623159,60.1461603 50.4177049,63.9410771 C51.4747898,65.5371936 52.824415,66.9191409 54.395435,68.0140697 C52.758509,71.8744162 54.2644809,76.1927698 57.9475643,79.1698166 C59.5195198,80.405221 61.3145288,81.327065 63.2348352,81.885145 C62.7437574,86.2689283 65.8866553,90.1783469 70.5027865,91.7977295 C72.1979179,92.383009 73.9802593,92.6761632 75.7736881,92.6646717 C77.9585457,92.6618521 80.1236623,92.2513328 82.1576994,91.4542241 C84.5493659,92.7573944 87.1278023,93.6842969 89.8021437,94.2022673 C89.0316041,94.7873968 88.3040353,95.4269748 87.6250322,96.1160832 C87.2201889,96.5161297 86.9462316,97.0294274 86.8393077,97.5882492 C86.3066292,100.198986 87.7902905,102.800505 90.3095908,103.673202 C90.6023339,103.784137 90.9131959,103.839608 91.2262693,103.836879 C92.0222938,103.828438 92.7775824,103.483753 93.3051653,102.888047 C95.3722471,100.450739 97.9404393,98.4869369 100.835025,97.130242 C103.722386,98.4911143 106.284399,100.454459 108.348515,102.888047 C108.8799,103.487975 109.642036,103.833068 110.44378,103.836879 C110.756854,103.839608 111.067716,103.784137 111.360459,103.673202 C113.879759,102.800505 115.36342,100.198986 114.830742,97.5882492 C114.729358,97.0310094 114.461078,96.5176528 114.061387,96.1160832 C113.373064,95.4307176 112.640318,94.7913954 111.867906,94.2022673 C114.53661,93.6826838 117.109409,92.755823 119.495981,91.4542241 C121.530337,92.250225 123.695243,92.6607044 125.879992,92.6646717 C127.673521,92.6774384 129.456077,92.384249 131.150894,91.7977295 C135.767025,90.1619895 138.893554,86.3016431 138.418845,81.885145 C140.340525,81.3305183 142.136171,80.4083476 143.706116,79.1698166 C147.438307,76.241842 148.960648,71.8580588 147.323722,68.0140697 C148.894742,66.9191409 150.244367,65.5371936 151.301452,63.9410771 C153.765044,60.648099 153.765044,56.1273805 151.301452,52.8344024 C152.370506,51.4126338 153.164388,49.8038294 153.642257,48.0907564 C154.888653,44.4270129 153.66481,40.3767919 150.597574,38.0145979 Z M130.250584,25.4357572 C130.150673,25.6639033 130.089806,25.9071941 130.070523,26.1554828 C130.076533,26.9427383 130.394361,27.6955627 130.954463,28.24923 C131.330956,28.7563094 131.969357,29.7868256 132.591389,30.7519122 C132.804189,31.0954176 133.016989,31.4552804 133.262528,31.8315006 L127.860673,31.8315006 L124.095743,20.2504614 C125.258438,21.0357767 126.353522,21.9166806 127.369595,22.8840028 C128.267184,23.8027988 129.230019,24.6556029 130.250584,25.4357572 L130.250584,25.4357572 Z M122.491555,16.3574001 L117.449823,31.8805729 L111.213135,31.8805729 L109.281563,25.959194 L122.491555,16.3574001 Z M100.867763,32.0277895 L114.225079,41.7277277 L109.11787,57.4308319 L92.6012871,57.4308319 L87.4940781,41.7277277 L100.867763,32.0277895 Z M92.4375945,25.9101218 L90.5060219,31.8315006 L84.2693339,31.8315006 L79.2276019,16.3574001 L92.4375945,25.9101218 Z M71.4685728,25.4357572 C72.5111284,24.6633576 73.4958982,23.8159757 74.4150396,22.9003602 C75.4346534,21.9370841 76.529396,21.0564548 77.6888915,20.2668188 L73.9239618,31.847858 L68.4729983,31.847858 L69.1277687,30.7682696 C69.7170621,29.803183 70.4373095,28.6745224 70.7646947,28.167443 C71.3307573,27.658721 71.6523906,26.9325943 71.6486347,26.1718402 C71.6311818,25.9179947 71.5702778,25.6690227 71.4685728,25.4357572 L71.4685728,25.4357572 Z M65.4774238,54.9935792 C65.6315427,53.4829836 65.6753099,51.9631742 65.6083779,50.446222 C65.6083779,49.2030596 65.6083779,47.8617528 65.6083779,47.174742 C65.8020435,46.3614705 65.6541705,45.5044284 65.1991464,44.802919 C65.0314638,44.5893023 64.8328498,44.4018584 64.609853,44.2467673 C65.1658607,42.9128187 65.6253796,41.5407274 65.9848708,40.1410599 C66.1158249,39.6339805 66.246779,39.1269011 66.3941023,38.6688939 L70.6173713,41.7277277 L66.181302,55.3207272 C65.965384,55.1753117 65.7278289,55.064901 65.4774238,54.9935792 Z M69.7170621,65.4296005 C69.3864057,63.8622103 68.943291,62.3206326 68.391152,60.8168137 C68.2274594,60.2933769 68.0473976,59.7699401 67.883705,59.2628607 L78.9656938,67.3107015 L76.9359056,73.6083006 C76.2086879,72.4768803 75.4218555,71.3848492 74.5787322,70.3368206 C73.7438999,69.2408747 72.9418062,68.1612863 72.4834669,67.5069903 C71.8778043,66.5582611 71.5013114,65.8712503 70.5846328,65.6749615 C70.3081512,65.5535816 70.0161927,65.4710117 69.7170621,65.4296005 Z M67.4744735,57.4144745 C67.4534309,57.0731646 67.3643868,56.7394912 67.2125653,56.4330304 L79.0639093,47.829038 L84.1056413,51.4930956 L82.1904379,57.4144745 L67.4744735,57.4144745 Z M119.037642,77.4195748 C115.125388,79.0553148 109.821748,81.394423 108.544946,87.2340149 C105.955834,87.6274447 103.392292,88.1736462 100.867763,88.8697549 C98.3373382,88.1751489 95.7684379,87.6289703 93.1742112,87.2340149 C91.8974089,81.3780656 86.6265073,79.0553148 82.6815157,77.4195748 L82.1904379,77.2069286 L87.3958625,73.4283692 L100.867763,83.2428093 L95.809662,67.3270589 L100.867763,63.6630013 L105.909495,67.3270589 L100.867763,83.2428093 L114.323295,73.4283692 L119.495981,77.223286 L119.037642,77.4195748 Z M124.766882,73.6083006 L122.769833,67.3270589 L133.851822,59.2792181 C133.704498,59.7862975 133.524436,60.3097343 133.344375,60.8331711 C132.790625,62.335095 132.352831,63.8772024 132.034834,65.4459579 C131.730866,65.4421716 131.427852,65.4807091 131.134524,65.5604597 C130.217846,65.8221781 129.841353,66.4437593 129.25206,67.3924885 C128.842828,68.0467845 127.991627,69.1263729 127.140425,70.2223188 C126.288317,71.3070845 125.495963,72.437419 124.766882,73.6083006 L124.766882,73.6083006 Z M134.228315,57.4308319 L119.495981,57.4308319 L117.580777,51.509453 L122.622509,47.8453954 L134.473853,56.4493878 C134.335323,56.7597121 134.252223,57.0918728 134.228315,57.4308319 L134.228315,57.4308319 Z M136.225364,54.9935792 C135.963565,55.0616157 135.714718,55.1721343 135.488748,55.3207272 L131.069047,41.7277277 L135.275947,38.6688939 C135.42327,39.1269011 135.554225,39.6339805 135.701548,40.1410599 C136.054893,41.5405388 136.508958,42.9126797 137.060196,44.2467673 C136.8372,44.4018584 136.638586,44.5893023 136.470903,44.802919 C136.015879,45.5044284 135.868006,46.3614705 136.061672,47.174742 C136.061672,47.8617528 136.061672,49.2030596 136.061672,50.446222 C136.019273,51.9643294 136.07943,53.4835657 136.241733,54.9935792 L136.225364,54.9935792 Z" id="Shape" fill="#011E41"></path>
                        <path d="M58.9297199,37.8510239 C58.9716899,37.3065837 58.9716899,36.7597241 58.9297199,36.2152839 C59.451737,33.3939645 61.0476323,30.8845956 63.3821586,29.2143166 C61.9394429,31.0332665 60.8309939,33.093488 60.1083066,35.2992695 C65.2318849,34.3996125 66.4759486,28.5273058 68.833122,26.3354142 C67.0383651,25.3262765 64.8198349,25.454053 63.1529889,26.6625622 C64.0259323,23.5425414 66.3558651,21.0375451 69.4060461,19.9396708 C67.6429971,21.2690294 66.1205224,22.8899817 64.9044997,24.732389 C69.8152776,25.1903962 72.4343592,20.0868874 75.1516563,18.6637935 C73.8714575,17.3725678 71.9818787,16.8942213 70.2408784,17.4206311 C70.8629102,14.3454399 74.2349777,12.3989093 76.2647659,11.3847505 C74.4788293,12.719372 72.9671021,14.3855102 71.8123273,16.2919705 C76.7231052,16.8971943 79.1457556,11.2375339 81.6338831,9.65086608 C79.8183354,8.26001739 77.2945892,8.26001739 75.4790415,9.65086608 C73.9450105,10.5952192 72.6462958,11.8762114 71.6813732,13.3967107 C72.0076976,11.7617761 72.5070378,10.1661416 73.1709759,8.63670727 C70.8369264,8.1823305 68.4845729,9.33094322 67.4089964,11.4501801 C66.1198072,13.5777238 65.6268344,16.0929612 66.0176094,18.5492917 C66.6581471,16.4460475 67.6789904,14.4779126 69.0295531,12.7424147 C68.0344053,14.6757457 67.3861901,16.7684622 67.1143498,18.9255119 C65.8300356,19.804356 64.719979,20.9136083 63.8404978,22.196992 C63.7321587,20.3297397 63.8034188,18.4564068 64.0532982,16.6027611 C61.5080941,16.7749895 59.4012773,18.6448641 58.9297199,21.1501184 C58.2141021,23.6528108 58.3994639,26.3270319 59.4535362,28.7072372 C59.5464848,26.4025944 60.0451908,24.1323574 60.9267696,22.0007032 C60.4687008,24.2464408 60.4077596,26.5549922 60.7467077,28.821739 C59.704269,30.0502024 58.8944203,31.4580967 58.3567958,32.9765187 C57.7200813,31.1332217 57.2650387,29.2321928 56.9981473,27.3005008 C54.4985983,28.1917979 52.9036573,30.6427453 53.1022635,33.2873093 C53.0881021,36.0250579 54.0450155,38.6792931 55.8031913,40.7789985 C55.2211867,38.4264129 55.0714352,35.9877855 55.3612213,33.5817425 C55.5481868,35.9848763 56.1519303,38.3372165 57.1454706,40.5336375 C56.4385207,42.0428007 56.0061705,43.6657088 55.8686683,45.3263558 C54.7047927,43.7102892 53.7015134,41.9845841 52.8730938,40.1737747 C50.8596749,41.4823667 49.9429963,44.1649803 50.7450901,47.4364604 C51.5458606,50.1862012 53.2828695,52.5699651 55.655868,54.1757092 C54.3690744,51.9786829 53.4875161,49.5686198 53.0531557,47.0602402 C53.9585737,49.406882 55.2596555,51.5811573 56.8999317,53.4886984 C56.7094776,55.2428143 56.8426352,57.0169618 57.2927939,58.7230665 C55.6252582,57.5003334 54.0892308,56.1079466 52.7094012,54.5682868 C51.0724753,56.5311748 51.0724753,59.4755069 52.8730938,62.4198389 C54.5548036,64.9316991 57.0712219,66.7683964 59.9773525,67.6051347 C57.9745794,65.8119581 56.3111361,63.6732117 55.0665746,61.2911783 C56.7037659,63.3450566 58.6801529,65.1042603 60.9104003,66.4928315 C61.202904,68.3709172 61.853041,70.1755448 62.8256037,71.8089866 C60.7872155,71.1544403 58.823089,70.2882192 56.9654087,69.2245173 C55.9668839,71.7271996 56.9654087,74.7369612 59.7318136,76.9942824 C62.2593095,78.9190901 65.3795931,79.9025111 68.5548446,79.7750404 C65.9763366,78.6550629 63.619983,77.0816051 61.5979092,75.1295388 C63.9190795,76.6438872 66.4823626,77.7503348 69.1768765,78.4010188 C70.0980717,80.1645518 71.3482117,81.7358109 72.8599599,83.0301631 C70.5667242,83.0838265 68.2740093,82.9029539 66.0176094,82.4903688 C65.9030245,85.3201991 67.883705,87.9700979 71.4685728,89.2296177 C74.6342206,90.2642537 78.0622792,90.1600977 81.1591746,88.9351845 C78.2048188,88.7057706 75.3159372,87.9466726 72.6307903,86.6942207 C75.3555196,87.3549034 78.1710415,87.5594198 80.9627435,87.2994445 C83.8628279,89.5304521 87.2710024,91.0085056 90.8825148,91.6014407 C102.553797,93.0899641 107.513683,97.7191084 110.525626,101.088733 C111.717219,100.628692 112.407081,99.3809459 112.162552,98.1280434 C109.803773,95.896481 107.020538,94.1610002 103.977923,93.0245345 C106.222883,92.3695842 108.516325,91.8937253 110.836642,91.6014407 C114.451995,91.0146117 117.865649,89.5422404 120.772783,87.3158019 C123.559968,87.5698208 126.370018,87.3597724 129.088367,86.6942207 C126.411258,87.9316009 123.533888,88.6795075 120.592721,88.9024697 C123.689617,90.1273829 127.117675,90.2315389 130.283323,89.1969029 C133.88456,87.9373831 135.848871,85.2874843 135.734286,82.457654 C133.477886,82.8702391 131.185172,83.0511117 128.891936,82.9974483 C130.406806,81.6891393 131.661791,80.107672 132.591389,78.3355892 C135.279903,77.682235 137.837364,76.5759113 140.153987,75.0641092 C138.13481,77.0120849 135.784594,78.5851462 133.21342,79.7096108 C136.383306,79.8346162 139.497615,78.851254 142.020082,76.9288528 C144.851964,74.6715316 145.785012,71.66177 144.802856,69.1590877 C142.937791,70.2195028 140.968588,71.0855436 138.926292,71.743557 C139.896685,70.1075709 140.551838,68.3044293 140.857865,66.4274019 C143.084017,65.0396593 145.055148,63.2802053 146.685321,61.2257487 C145.44076,63.6077821 143.777316,65.7465285 141.774543,67.5397051 C144.697228,66.7292358 147.241222,64.9167223 148.960648,62.4198389 C150.826744,59.5245791 150.761267,56.5311748 149.107972,54.5682868 C147.730417,56.1042445 146.200214,57.4963236 144.540948,58.7230665 C144.930943,56.9775801 144.992006,55.1747536 144.72101,53.4069114 C146.361286,51.4993703 147.662368,49.325095 148.567786,46.9784532 C148.142204,49.4891664 147.260083,51.9007695 145.965074,54.0939222 C148.338072,52.4881781 150.075081,50.1044142 150.875852,47.3546734 C151.862853,44.7551862 150.992166,41.8170724 148.747848,40.1737747 C147.92627,41.9881137 146.922606,43.71448 145.752273,45.3263558 C145.630425,43.6630398 145.197331,42.037339 144.475471,40.5336375 C145.476717,38.3399287 146.080816,35.986205 146.25972,33.5817425 C146.549507,35.9877855 146.399755,38.4264129 145.81775,40.7789985 C147.575926,38.6792931 148.53284,36.0250579 148.518678,33.2873093 C148.723057,30.6412706 147.126034,28.1871238 144.622794,27.3005008 C144.355903,29.2321928 143.90086,31.1332217 143.264146,32.9765187 C142.726521,31.4580967 141.916673,30.0502024 140.874234,28.821739 C141.240156,26.5597598 141.206916,24.2512257 140.776018,22.0007032 C141.673261,24.1274166 142.172598,26.4005251 142.249252,28.7072372 C143.311607,26.3290898 143.497173,23.6519137 142.773068,21.1501184 C142.282095,18.673207 140.187217,16.8348072 137.665859,16.6681907 C137.915738,18.5218364 137.986999,20.3951693 137.878659,22.2624216 C136.999178,20.9790379 135.889122,19.8697856 134.604808,18.9909415 C134.353516,16.8379443 133.727519,14.7454168 132.755081,12.8078443 C134.105644,14.5433422 135.126487,16.5114771 135.767025,18.6147213 C136.151929,16.1314143 135.641403,13.5922268 134.32653,11.4501801 C133.251869,9.30209136 130.872849,8.13688141 128.515443,8.60399247 C129.164666,10.1388583 129.663531,11.7329747 130.005046,13.3639959 C129.030138,11.8459828 127.726774,10.5659223 126.191008,9.61815128 C124.37546,8.22730259 121.851714,8.22730259 120.036166,9.61815128 C122.475186,11.2538913 124.946944,16.8644795 129.857722,16.2592557 C128.702947,14.3527954 127.19122,12.6866572 125.405284,11.3520357 C127.435072,12.3661945 130.807139,14.3127251 131.44554,17.3879163 C129.70454,16.8615065 127.814961,17.339853 126.534762,18.6310787 C129.23569,20.0541726 131.838403,25.1740388 136.781919,24.6996742 C135.561245,22.8557279 134.03312,21.2346544 132.264003,19.906956 C135.314184,21.0048303 137.644117,23.5098266 138.517061,26.6298474 C136.856756,25.4201917 134.642023,25.2922653 132.853297,26.3026994 C135.194101,28.494591 136.438165,34.3668977 141.578112,35.2665547 C140.841304,33.0668476 139.734117,31.0089722 138.30426,29.1816018 C140.628859,30.8583985 142.217582,33.365707 142.74033,36.1825691 C142.69836,36.7270093 142.69836,37.2738689 142.74033,37.8183091 C141.389022,36.0447483 139.106296,35.2521725 136.945612,35.8063489 C138.729861,38.6688939 138.386106,44.966493 143.345992,47.256529 C143.209353,44.8247685 142.655658,42.4345395 141.709066,40.1901321 C143.467386,42.3683602 144.400603,45.0964778 144.344517,47.8944676 C144.040416,48.6282244 143.83138,49.3978006 143.722485,50.1845036 C142.905121,48.0390855 140.893571,46.5812864 138.598907,46.4713738 C139.499216,49.8900704 137.174781,56.089525 141.430789,59.9498715 C142.089959,57.4718035 142.311536,54.897835 142.085559,52.3436804 C143.180731,55.0490605 143.296519,58.051594 142.412944,60.8331711 C141.850897,61.4820688 141.377512,62.202632 141.005188,62.9759905 C140.855258,60.5762173 139.301604,58.4912103 137.043827,57.6598355 C136.863765,61.3729653 132.575019,66.8526943 135.603332,72.0543476 C137.016444,69.7744661 138.024363,67.2675622 138.582538,64.6444453 C138.792534,67.652975 137.966561,70.6427927 136.241733,73.1175786 C135.391647,73.5928954 134.614343,74.1878452 133.933668,74.8841778 C134.597817,72.4316698 133.758051,69.8181098 131.789295,68.2103585 C130.365169,71.8580588 124.259435,75.8656218 125.536238,82.0650764 C127.700393,80.2638603 129.533893,78.0995735 130.954463,75.669333 C130.159756,78.7383339 128.333493,81.4410929 125.781777,83.3245963 C124.793625,83.4895217 123.830837,83.7808978 122.917156,84.1915385 C124.178504,82.4032274 124.431972,80.0927795 123.588296,78.0738708 C120.412659,80.6746974 112.44083,81.3453508 111.229505,88.1663867 C114.272684,87.4246477 117.141798,86.0966989 119.676043,84.2569681 C116.913236,87.5333029 112.988879,89.6142258 108.725008,90.0638451 C106.070134,90.495188 103.445668,91.0961923 100.867763,91.8631591 C98.2922355,91.091243 95.667077,90.4955452 93.0105186,90.0802025 C88.7600886,89.5899726 84.8531703,87.509351 82.0758531,84.2569681 C84.6100975,86.0966989 87.4792121,87.4246477 90.5223911,88.1663867 C89.3110659,81.394423 81.3392364,80.6746974 78.1636001,78.0738708 C77.3199235,80.0927795 77.5733916,82.4032274 78.8347397,84.1915385 C77.9239268,83.7732937 76.9601067,83.4816054 75.9701193,83.3245963 C73.4184028,81.4410929 71.5921398,78.7383339 70.7974332,75.669333 C72.2229063,78.1008865 74.0620156,80.2652563 76.2320274,82.0650764 C77.5088297,75.8656218 71.4194651,71.8580588 69.9953395,68.2103585 C68.0119851,69.8081336 67.1691358,72.4312893 67.8509664,74.8841778 C67.1434273,74.1906991 66.3449564,73.5964068 65.4774238,73.1175786 C63.7428167,70.6473902 62.9158686,67.6540422 63.1366197,64.6444453 C63.6790547,67.2697301 64.6821331,69.7783782 66.0994557,72.0543476 C69.1277687,66.8526943 64.8390227,61.3729653 64.6589608,57.6598355 C62.4049548,58.4928479 60.85704,60.5787725 60.7139692,62.9759905 C60.3299453,62.2055114 59.8515693,61.48572 59.2898436,60.8331711 C58.4114782,58.0496997 58.5330572,55.0471384 59.6335981,52.3436804 C59.386014,54.8868454 59.5742299,57.4535775 60.1901529,59.9335141 C64.4461604,56.0731676 62.1217256,49.873713 63.0384041,46.4550164 C60.7376828,46.5585674 58.7181772,48.0174707 57.8984566,50.1681462 C57.789562,49.3814432 57.5805256,48.611867 57.2764247,47.8781102 C57.2263651,45.0783125 58.1652941,42.3504411 59.9282448,40.1737747 C58.9721347,42.4150913 58.4180489,44.807008 58.2913188,47.2401716 C63.2020967,44.9337782 62.90745,38.6361791 64.6916993,35.7899915 C62.531488,35.2654063 60.2660825,36.0757309 58.9297199,37.8510239 Z" id="Path" fill="#CC9F53"></path>
                        <path d="M93.5834427,95.0201373 C92.1379192,95.899787 90.8025737,96.9486191 89.6057126,98.1444008 C89.361184,99.3973033 90.0510464,100.64505 91.2426386,101.10509 C92.7910928,99.2873596 94.5874434,97.6960431 96.5790172,96.3778016 C95.9874017,95.316776 94.7720151,94.7659345 93.5834427,95.0201373 L93.5834427,95.0201373 Z" id="Path" fill="#CC9F53"></path>
                        <path d="M73.2200836,8.60399247 C70.861908,8.13097482 68.4794566,9.29786551 67.4089964,11.4501801 C66.1198072,13.5777238 65.6268344,16.0929612 66.0176094,18.5492917 C66.6581471,16.4460475 67.6789904,14.4779126 69.0295531,12.7424147 C70.0905105,11.0602201 71.5242805,9.64427878 73.2200836,8.60399247 Z" id="Path" fill="#F0D283"></path>
                        <path d="M64.0860367,16.6681907 C61.5482462,16.8189324 59.430721,18.6595087 58.9297199,21.1501184 C58.2141021,23.6528108 58.3994639,26.3270319 59.4535362,28.7072372 C59.5464848,26.4025944 60.0451908,24.1323574 60.9267696,22.0007032 C61.5592297,20.0057527 62.6398651,18.1817531 64.0860367,16.6681907 L64.0860367,16.6681907 Z" id="Path" fill="#F0D283"></path>
                        <path d="M57.047255,27.3005008 C54.5477061,28.1917979 52.952765,30.6427453 53.1513712,33.2873093 C53.1372099,36.0250579 54.0941233,38.6792931 55.8522991,40.7789985 C55.2702945,38.4264129 55.120543,35.9877855 55.4103291,33.5817425 C55.4815253,31.3923748 56.040758,29.246477 57.047255,27.3005008 L57.047255,27.3005008 Z" id="Path" fill="#F0D283"></path>
                        <path d="M52.9222016,40.1737747 C50.8596749,41.4823667 49.9429963,44.1649803 50.7450901,47.4364604 C51.5458606,50.1862012 53.2828695,52.5699651 55.655868,54.1757092 C54.3690744,51.9786829 53.4875161,49.5686198 53.0531557,47.0602402 C52.493996,44.8035133 52.4492431,42.4501001 52.9222016,40.1737747 Z" id="Path" fill="#F0D283"></path>
                        <path d="M52.6275549,54.5682868 C50.990629,56.5311748 50.990629,59.4755069 52.7912475,62.4198389 C54.4729573,64.9316991 56.9893756,66.7683964 59.8955062,67.6051347 C57.8927331,65.8119581 56.2292898,63.6732117 54.9847283,61.2911783 C53.7018071,59.2564695 52.8959834,56.9581808 52.6275549,54.5682868 L52.6275549,54.5682868 Z" id="Path" fill="#F0D283"></path>
                        <path d="M56.9326702,69.2245173 C55.9341454,71.7271996 56.9326702,74.7369612 59.6990751,76.9942824 C62.226571,78.9190901 65.3468546,79.9025111 68.5221061,79.7750404 C65.943598,78.6550629 63.5872445,77.0816051 61.5651707,75.1295388 C59.5968491,73.5337876 58.0134987,71.5155001 56.9326702,69.2245173 Z" id="Path" fill="#F0D283"></path>
                        <path d="M65.9848708,82.4249392 C65.870286,85.2547695 67.8509664,87.9046683 71.4358343,89.1641881 C74.601482,90.1988241 78.0295407,90.0946681 81.1264361,88.8697549 C78.1873057,88.6571185 75.3100218,87.9203141 72.6307903,86.6942207 C70.1205386,85.7923887 67.8480671,84.3325726 65.9848708,82.4249392 Z" id="Path" fill="#F0D283"></path>
                        <polygon id="Path" fill="#CC9F53" points="127.795195 60.2279473 117.5153 60.2279473 114.323295 50.446222 111.147658 60.2279473 100.867763 60.2279473 109.183347 66.2638279 106.007711 76.0455532 114.323295 70.0096725 122.655248 76.0455532 119.479612 66.2638279"></polygon>
                        <polygon id="Path" fill="#F0D283" points="127.795195 60.2279473 114.323295 64.5953731 117.5153 60.2279473"></polygon>
                        <polygon id="Path" fill="#F0D283" points="122.655248 76.0455532 114.323295 64.5953731 114.323295 70.0096725"></polygon>
                        <polygon id="Path" fill="#F0D283" points="106.007711 76.0455532 114.323295 64.5953731 109.183347 66.2638279"></polygon>
                        <polygon id="Path" fill="#F0D283" points="111.147658 60.2279473 100.867763 60.2279473 114.323295 64.5953731 114.323295 50.446222"></polygon>
                        <polygon id="Path" fill="#CC9F53" points="136.127149 34.6122587 125.830884 34.6122587 122.655248 24.8468908 119.479612 34.6122587 109.183347 34.6122587 117.5153 40.6644967 114.323295 50.446222 122.655248 44.3939839 130.987201 50.446222 127.795195 40.6644967"></polygon>
                        <polygon id="Path" fill="#F0D283" points="136.127149 34.6122587 122.655248 38.9960419 125.830884 34.6122587"></polygon>
                        <polygon id="Path" fill="#F0D283" points="130.987201 50.446222 122.655248 38.9960419 122.655248 44.3939839"></polygon>
                        <polygon id="Path" fill="#F0D283" points="114.323295 50.446222 122.655248 38.9960419 117.5153 40.6644967"></polygon>
                        <polygon id="Path" fill="#F0D283" points="119.479612 34.6122587 109.183347 34.6122587 122.655248 38.9960419 122.655248 24.8468908"></polygon>
                        <polygon id="Path" fill="#CC9F53" points="114.323295 18.7946527 104.0434 18.7946527 100.867763 9.01292747 97.6757576 18.7946527 87.3958625 18.7946527 95.7114465 24.8468908 92.5358101 34.6122587 100.867763 28.576378 109.183347 34.6122587 106.007711 24.8468908"></polygon>
                        <polygon id="Path" fill="#F0D283" points="114.323295 18.7946527 100.867763 23.1620786 104.0434 18.7946527"></polygon>
                        <polygon id="Path" fill="#F0D283" points="109.183347 34.6122587 100.867763 23.1620786 100.867763 28.576378"></polygon>
                        <polygon id="Path" fill="#F0D283" points="92.5358101 34.6122587 100.867763 23.1620786 95.7114465 24.8468908"></polygon>
                        <polygon id="Path" fill="#F0D283" points="97.6757576 18.7946527 87.3958625 18.7946527 100.867763 23.1620786 100.867763 9.01292747"></polygon>
                        <polygon id="Path" fill="#CC9F53" points="92.5358101 34.6122587 82.2395457 34.6122587 79.0639093 24.8468908 75.888273 34.6122587 65.5920086 34.6122587 73.9239618 40.6644967 70.7483254 50.446222 79.0639093 44.3939839 87.3958625 50.446222 84.2202261 40.6644967"></polygon>
                        <polygon id="Path" fill="#F0D283" points="92.5358101 34.6122587 79.0639093 38.9960419 82.2395457 34.6122587"></polygon>
                        <polygon id="Path" fill="#F0D283" points="87.3958625 50.446222 79.0639093 38.9960419 79.0639093 44.3939839"></polygon>
                        <polygon id="Path" fill="#F0D283" points="70.7483254 50.446222 79.0639093 38.9960419 73.9239618 40.6644967"></polygon>
                        <polygon id="Path" fill="#F0D283" points="75.888273 34.6122587 65.5920086 34.6122587 79.0639093 38.9960419 79.0639093 24.8468908"></polygon>
                        <polygon id="Path" fill="#CC9F53" points="100.867763 60.2279473 90.5714989 60.2279473 87.3958625 50.446222 84.2202261 60.2279473 73.9239618 60.2279473 82.2395457 66.2638279 79.0639093 76.0455532 87.3958625 70.0096725 95.7114465 76.0455532 92.5358101 66.2638279"></polygon>
                        <polygon id="Path" fill="#F0D283" points="100.867763 60.2279473 87.3958625 64.5953731 90.5714989 60.2279473"></polygon>
                        <polygon id="Path" fill="#F0D283" points="95.7114465 76.0455532 87.3958625 64.5953731 87.3958625 70.0096725"></polygon>
                        <polygon id="Path" fill="#F0D283" points="79.0639093 76.0455532 87.3958625 64.5953731 82.2395457 66.2638279"></polygon>
                        <polygon id="Path" fill="#F0D283" points="84.2202261 60.2279473 73.9239618 60.2279473 87.3958625 64.5953731 87.3958625 50.446222"></polygon>
                        <path d="M120.036166,9.66722348 C122.475186,11.3029635 124.946944,16.9135517 129.857722,16.3083279 C128.702947,14.4018676 127.19122,12.7357294 125.405284,11.4011079 C125.405284,11.4011079 121.656723,9.32371807 120.036166,9.66722348 Z" id="Path" fill="#F0D283"></path>
                        <path d="M123.571926,78.0738708 C120.39629,80.6746974 112.424461,81.3453508 111.213135,88.1663867 C114.256314,87.4246477 117.125429,86.0966989 119.659673,84.2569681 C121.422768,82.5244259 122.76164,80.4084133 123.571926,78.0738708 Z" id="Path" fill="#F0D283"></path>
                        <path d="M130.954463,75.669333 C130.954463,75.669333 132.591389,70.2386762 131.772926,68.2103585 C130.3488,71.8580588 124.243066,75.8656218 125.519868,82.0650764 C127.68988,80.2652563 129.528989,78.1008865 130.954463,75.669333 L130.954463,75.669333 Z" id="Path" fill="#F0D283"></path>
                        <path d="M135.570594,72.0543476 C132.542281,66.8526943 136.831027,61.3729653 137.011089,57.6598355 C138.435214,59.2955755 138.549799,64.6444453 138.549799,64.6444453 C137.991624,67.2675622 136.983705,69.7744661 135.570594,72.0543476" id="Path" fill="#F0D283"></path>
                        <path d="M142.085559,52.3436804 C142.085559,52.3436804 140.448633,47.4364604 138.697122,46.4550164 C139.597432,49.873713 137.272997,56.0731676 141.529004,59.9335141 C142.153327,57.4549238 142.34165,54.886737 142.085559,52.3436804 Z" id="Path" fill="#F0D283"></path>
                        <path d="M137.043827,35.8390637 C138.828077,38.7016087 138.484322,44.9992078 143.444208,47.2892438 C143.307568,44.8574833 142.753873,42.4672543 141.807282,40.2228469 C141.807282,40.2228469 138.909923,36.2643561 137.043827,35.8390637 Z" id="Path" fill="#F0D283"></path>
                        <path d="M132.886035,26.3517716 C134.703023,26.3517716 138.353368,29.230674 138.353368,29.230674 C139.783225,31.0580444 140.890412,33.1159198 141.62722,35.3156269 C136.470903,34.3505403 135.226839,28.5436632 132.886035,26.3517716 Z" id="Path" fill="#F0D283"></path>
                        <path d="M126.567501,18.6801509 C128.204427,18.1567141 132.296742,19.9560282 132.296742,19.9560282 C134.065859,21.2837266 135.593984,22.9048001 136.814658,24.7487464 C131.871141,25.2067536 129.317537,20.1032448 126.567501,18.6801509 Z" id="Path" fill="#F0D283"></path>
                    </g>
                </g>
            </g>
        </g>
    </g>
</svg>