<?xml version="1.0" encoding="UTF-8"?>
<svg width="200px" height="144px" viewBox="0 0 200 144" version="1.1" xmlns="http://www.w3.org/2000/svg" xmlns:xlink="http://www.w3.org/1999/xlink">
    <title>79CF9F08-9711-4926-A34C-73B979E694F4@0.5x</title>
    <g id="Final-Designs" stroke="none" stroke-width="1" fill="none" fill-rule="evenodd">
        <g id="Assets" transform="translate(-1647.000000, -8069.000000)" fill-rule="nonzero">
            <g id="Team-Logos" transform="translate(139.500000, 7908.000000)">
                <g id="Group" transform="translate(1507.500000, 133.000000)">
                    <g id="Panthers" transform="translate(0.000000, 28.500000)">
                        <polygon id="Path" fill="#B2A77E" points="56.4924392 0 0 143 143.491124 143 200 0"></polygon>
                        <polygon id="Path" fill="#4197CB" points="140.055884 138.021372 7.42932281 138.021372 59.8783695 5.04435252 56.4924392 0 0 142.950707 143.491124 142.950707"></polygon>
                        <polygon id="Path" fill="#702E3E" points="192.570677 5.04435252 59.8783695 5.04435252 7.42932281 138.021372 140.055884 138.021372"></polygon>
                        <polygon id="Path" fill="#4197CB" points="65.2859961 12.6026657 68.6719264 12.6026657 69.9539776 17.3348271 74.8849441 12.6026657 78.1722551 12.6026657 74.8849441 21.0975526 71.9921105 21.0975526 73.964497 15.9381822 69.7731755 20.0130989 67.8172255 20.0130989 66.8639053 15.9381822 64.809336 21.0975526 61.9165023 21.0975526"></polygon>
                        <polygon id="Path" fill="#4197CB" points="85.1084813 12.6026657 88.1492439 12.6026657 84.7797502 21.0975526 81.7389875 21.0975526"></polygon>
                        <path d="M92.2419461,19.4215788 L94.2636423,14.2786395 C94.7238659,13.1284615 95.7758054,12.635528 97.5509533,12.635528 L102.120316,12.635528 C103.763971,12.635528 104.421433,13.1613237 103.96121,14.2786395 L103.369494,15.75744 L100.262985,15.75744 L100.723208,14.5743996 C100.723208,14.3936574 100.723208,14.344364 100.460224,14.344364 L97.6331361,14.344364 C97.3701512,14.344364 97.2550953,14.344364 97.1893491,14.5743996 L95.3320184,19.1093876 C95.3320184,19.2736987 95.3320184,19.3394232 95.5785667,19.3394232 L98.4385273,19.3394232 C98.7015122,19.3394232 98.816568,19.3394232 98.8823143,19.1093876 L99.3425378,17.9263472 L102.3833,17.9263472 L101.791584,19.4215788 C101.347798,20.5388946 100.312295,21.0646903 98.6028928,21.0646903 L94.0992768,21.0646903 C92.3898751,21.0975526 91.7817226,20.5388946 92.2419461,19.4215788 Z" id="Path" fill="#4197CB"></path>
                        <polygon id="Path" fill="#4197CB" points="111.242604 12.6026657 114.26693 12.6026657 112.984878 15.8888889 117.094017 15.8888889 118.392505 12.6026657 121.433268 12.6026657 118.145957 21.0975526 115.055884 21.0975526 116.436555 17.6305872 112.278107 17.6305872 110.913872 21.0975526 107.87311 21.0975526"></polygon>
                        <polygon id="Path" fill="#4197CB" points="128.205128 12.6026657 131.245891 12.6026657 127.95858 21.0975526 124.917817 21.0975526"></polygon>
                        <path d="M137.26167,14.2786395 L135.239974,19.4215788 C134.77975,20.5388946 135.387903,21.0646903 137.097304,21.0646903 L141.831032,21.0646903 C143.474688,21.0646903 144.575937,20.5060324 145.019724,19.4215788 L146.285339,16.2668046 L141.091387,16.2668046 L140.433925,17.9099161 L142.587114,17.9099161 L142.110454,19.0929565 C142.110454,19.2572676 141.929652,19.3229921 141.683103,19.3229921 L138.642341,19.3229921 C138.379356,19.3229921 138.313609,19.3229921 138.379356,19.0929565 L140.187377,14.5251063 C140.187377,14.344364 140.368179,14.2950707 140.631164,14.2950707 L147.024984,14.2950707 L147.682446,12.5698035 L140.450362,12.5698035 C138.757396,12.6026657 137.721893,13.1448926 137.26167,14.2786395 Z" id="Path" fill="#4197CB"></path>
                        <path d="M158.415516,19.2901298 L154.33925,19.2901298 L152.859961,21.0975526 L149.753452,21.0975526 L156.985536,12.6026657 L161.176857,12.6026657 L161.719264,21.0975526 L158.431953,21.0975526 L158.415516,19.2901298 Z M158.415516,17.6470183 L158.415516,14.3607951 L155.752794,17.6470183 L158.415516,17.6470183 Z" id="Shape" fill="#4197CB"></path>
                        <polygon id="Path" fill="#4197CB" points="170.693623 12.6026657 173.800131 12.6026657 176.331361 17.5320005 178.320184 12.6026657 181.262327 12.6026657 177.975016 21.0975526 175.164366 21.0975526 172.452334 15.8231644 170.364892 21.0975526 167.422748 21.0975526"></polygon>
                        <path d="M107.577252,105.947834 C104.700855,105.159141 102.991453,103.696771 103.221565,101.872917 C103.616042,98.5866942 109.796187,95.5305067 117.192636,94.8732621 C124.589086,94.2160175 128.205128,95.3004711 127.843524,98.5866942 C127.78196,99.0287571 127.630961,99.4536502 127.399737,99.835459 C145.233399,95.0211421 148.767258,85.4253706 148.767258,85.4253706 C145.539777,81.772687 141.867824,78.5380214 137.836949,75.7967368 C135.353031,69.8422277 130.750477,65.0187543 124.917817,62.2574974 C105.193951,53.1382282 83.4812623,49.9998851 74.4575937,48.997587 C74.8589608,50.7899174 75.4313827,52.5396284 76.1669954,54.2226818 C65.7593082,55.5474565 55.5529968,58.1409552 45.7758054,61.9453062 L52.0381328,46.1221418 L168.014464,46.1221418 L165.22025,53.2039527 L110.700197,53.2039527 C116.145508,54.9215892 121.471555,56.9964136 126.643655,59.4149144 L162.721893,59.4149144 L159.763314,66.8746409 L136.176857,66.8746409 C137.440236,68.3996617 138.541906,70.0516196 139.464168,71.8039756 L157.790927,71.8039756 L154.733728,79.5266 L147.928994,79.5266 C148.734385,80.2824313 149.57265,81.0711249 150.230112,81.8926807 L153.9119,81.8926807 L146.120973,101.61002 L132.708744,101.61002 C131.328074,102.102953 129.109139,102.809491 127.301118,103.253131 L145.381328,103.253131 L140.450362,115.921521 L116.568047,115.921521 C116.12486,116.497462 115.647333,117.046162 115.138067,117.564633 L139.710717,117.564633 L134.77975,130.150868 L93.869165,130.150868 C90.0730695,126.469431 86.8685207,122.223978 84.3688363,117.564633 L96.2195924,117.564633 L94.756739,115.921521 L83.530572,115.921521 C81.8839888,112.582754 80.6106807,109.072672 79.7337278,105.454901 C90.3681788,106.145007 97.6495726,114.508445 102.120316,121.130185 C114.299803,117.351028 115.548981,110.663564 115.548981,110.663564 C113.979634,111.304851 112.31169,111.671677 110.618014,111.748018 C105.687048,111.961622 101.808021,109.56268 100.591716,105.997127 C102.844356,106.855142 105.336953,106.837553 107.577252,105.947834 Z" id="Path" fill="#B2A77E"></path>
                        <path d="M40.6311637,74.975181 L27.0874425,109.283351 C34.5151668,94.4050497 45.5438732,81.6177913 59.1715976,72.0833046 C63.1164864,69.3834954 67.2781904,67.0148021 71.6140697,65.0014937 C60.7950722,66.5442466 50.3177599,69.9169915 40.6311637,74.975181 L40.6311637,74.975181 Z" id="Path" fill="#B2A77E"></path>
                        <path d="M57.0019724,85.622544 C44.3786982,96.6149604 34.6975674,111.550845 28.4188034,130.216592 L49.3096647,130.216592 C46.2250613,114.913025 48.9683553,99.0095287 57.0019724,85.622544 L57.0019724,85.622544 Z" id="Path" fill="#4197CB"></path>
                        <path d="M133.333333,79.8223601 C129.848784,72.1161668 126.232742,69.3393083 122.370151,67.5483167 C116.284119,64.7532825 109.99233,62.4296617 103.550296,60.5979547 L100.04931,62.2410663 C95.712053,59.7045333 90.9687235,57.9367963 86.0289283,57.0159715 C89.8313945,59.7186015 93.19152,62.9944711 95.9894806,66.7267609 L91.5680473,68.8299437 C90.5161078,68.2219924 89.5299145,67.59761 88.6094675,66.9896587 C86.0115531,66.9981953 83.5249283,68.0449123 81.7034169,69.8966838 C79.8819055,71.7484553 78.8767789,74.2514968 78.9119001,76.8483282 C78.9119001,76.8483282 78.6324786,92.2278525 104.503616,88.7773182 L104.585799,88.7773182 C102.763584,90.1156924 101.212866,91.7885759 100.016437,93.7066529 C106.33563,90.3445087 113.468624,88.8136704 120.61144,89.2866828 C109.20781,85.0885403 97.4454601,81.9371857 85.4700855,79.8716535 C102.170048,80.3528298 118.591794,84.268134 133.711374,91.3734344 C135.329122,90.6035745 136.874824,89.6907569 138.330046,88.6458692 L137.78764,86.049753 L141.074951,86.049753 C138.722984,83.7049826 136.127797,81.6174019 133.333333,79.8223601 L133.333333,79.8223601 Z" id="Path" fill="#B2A77E"></path>
                        <path d="M115.154504,67.8933701 C115.509143,70.1126022 116.542696,72.1675451 118.113083,73.7757095 L118.721236,73.9564518 L120.529257,72.0504424 L123.274162,75.5831323 C125.121807,76.2701574 126.917967,77.0883207 128.648915,78.0313685 C124.424721,71.1795932 115.154504,67.8933701 115.154504,67.8933701 Z" id="Path" fill="#702E3E"></path>
                        <path d="M118.721236,73.9400207 C120.463511,74.4658164 122.008547,74.9916121 123.307035,75.5831323 L120.529257,72.1161668 L118.721236,73.9400207 Z" id="Path" fill="#4197CB"></path>
                        <path d="M100.262985,75.2873722 C109.959824,78.326571 119.410824,82.1002272 128.533859,86.5755487 C130.248982,87.4650196 132.22806,87.7042979 134.105851,87.2492244 C134.423538,87.1914047 134.725767,87.0683152 134.993425,86.8877399 C124.124606,81.1588288 112.393764,77.2405923 100.262985,75.2873722 L100.262985,75.2873722 Z" id="Path" fill="#702E3E"></path>
                        <path d="M58.678501,130.216592 L74.3918475,130.216592 C66.6076068,115.742546 64.8703009,98.7769284 69.5595003,83.0264277 C57.3964497,98.1594852 55.8842867,115.01781 58.678501,130.216592 Z" id="Path" fill="#B2A77E"></path>
                        <path d="M68.3596318,26.3883718 L57.9059829,26.3883718 L59.3523997,30.5125819 L58.1854043,30.5125819 L54.2406312,40.5355624 L57.8895464,40.5355624 L59.6811308,35.9677123 L64.6120973,35.9677123 C66.4650027,36.1054101 68.1681788,34.9476336 68.721236,33.1744226 L70.3648915,29.1816615 C71.0387903,27.2756521 70.3977646,26.3883718 68.3596318,26.3883718 Z M66.469428,29.674595 L65.2695595,32.7143514 C65.2047776,32.9703453 64.9550412,33.1344035 64.6942801,33.092267 L60.8152531,33.092267 L62.3274162,29.2966793 L66.1900066,29.2966793 C66.5023011,29.2802482 66.5844839,29.3624038 66.469428,29.6581639 L66.469428,29.674595 Z" id="Shape" fill="#B2A77E"></path>
                        <polygon id="Path" fill="#B2A77E" points="97.6166995 26.3883718 94.3458251 34.6860853 92.209073 26.3883718 86.6206443 26.3883718 88.0670611 30.5125819 86.8671926 30.5125819 82.9224195 40.5355624 86.4562788 40.5355624 89.9079553 31.7613467 92.1926364 40.5355624 95.5621302 40.5355624 101.134122 26.3883718"></polygon>
                        <polygon id="Path" fill="#B2A77E" points="126.166995 26.3883718 124.013807 31.8270711 119.099277 31.8270711 121.236029 26.3883718 115.581854 26.3883718 117.028271 30.5125819 115.976331 30.5125819 112.015122 40.5355624 115.664037 40.5355624 117.932281 34.7682408 122.863248 34.7682408 120.595003 40.5355624 124.227482 40.5355624 129.799474 26.3883718"></polygon>
                        <polygon id="Path" fill="#B2A77E" points="144.066404 29.2966793 145.216963 26.3883718 132.626561 26.3883718 134.089415 30.5125819 133.021039 30.5125819 129.076266 40.5355624 139.628534 40.5355624 140.779093 37.627255 133.859303 37.627255 134.993425 34.7353786 140.548981 34.7353786 141.666667 31.8599334 136.127548 31.8599334 137.146614 29.2966793"></polygon>
                        <path d="M157.675871,26.3883718 L147.107166,26.3883718 L148.553583,30.5125819 L147.501644,30.5125819 L143.55687,40.5355624 L147.189349,40.5355624 L149.112426,35.6062277 L151.643655,35.6062277 L152.284681,40.5355624 L155.670611,40.5355624 L155.029586,35.4254855 C156.51949,35.2044652 157.751795,34.1512883 158.201841,32.7143514 L159.598948,29.1816615 C160.338593,27.2756521 159.714004,26.3883718 157.675871,26.3883718 Z M155.785667,29.674595 L154.651545,32.5336091 C154.593949,32.7962348 154.342083,32.9688854 154.076266,32.9279559 L150.197239,32.9279559 L151.643655,29.2802482 L155.522682,29.2802482 C155.81854,29.2309548 155.900723,29.3131104 155.785667,29.5760083 L155.785667,29.674595 Z" id="Shape" fill="#B2A77E"></path>
                        <path d="M166.666667,29.5760083 C166.73789,29.3246661 166.9829,29.1637121 167.241946,29.1980926 L174.408284,29.1980926 L175.509533,26.3719407 L162.606838,26.3719407 L164.069691,30.4961508 L162.721893,30.4961508 L162.327416,31.4820177 C161.571335,33.4044582 162.491782,33.9302539 164.349112,34.3903252 L168.063774,35.3104677 C168.474688,35.4090543 168.589744,35.507641 168.458251,35.8362634 L167.882972,37.2986327 C167.818522,37.5565713 167.571606,37.725829 167.307692,37.6929794 L159.796187,37.6929794 L158.678501,40.5191313 L167.1762,40.5191313 C169.030089,40.646352 170.732044,39.4940149 171.301775,37.7258417 L172.287968,35.2447432 C173.04405,33.3223027 172.123603,32.796507 170.282709,32.3364357 L166.551611,31.4162932 C166.12426,31.3177065 166.025641,31.2191198 166.157133,30.8904975 L166.666667,29.5760083 Z" id="Path" fill="#B2A77E"></path>
                        <path d="M74.4411571,26.3883718 L75.6081525,29.8881995 L74.2439185,29.8881995 L66.5680473,40.5355624 L70.3320184,40.5355624 L72.3865878,37.5450994 L77.3175542,37.5450994 L77.0216963,40.5355624 L80.9335963,40.5355624 L81.8540434,26.3883718 L74.4411571,26.3883718 Z M77.6298488,34.7025164 L74.3425378,34.7025164 L78.139382,29.1487993 L77.6298488,34.7025164 Z" id="Shape" fill="#B2A77E"></path>
                        <polygon id="Path" fill="#B2A77E" points="102.169625 26.3883718 103.205128 29.3131104 106.39382 29.3131104 101.972387 40.5355624 105.604865 40.5355624 110.026298 29.3131104 113.461538 29.3131104 114.612097 26.3883718"></polygon>
                    </g>
                </g>
            </g>
        </g>
    </g>
</svg>