<?xml version="1.0" encoding="UTF-8"?>
<svg width="200px" height="96px" viewBox="0 0 200 96" version="1.1" xmlns="http://www.w3.org/2000/svg" xmlns:xlink="http://www.w3.org/1999/xlink">
    <title>C0B7D072-2E9B-4DCA-A98F-CC80334D9390@0.5x</title>
    <g id="Final-Designs" stroke="none" stroke-width="1" fill="none" fill-rule="evenodd">
        <g id="Assets" transform="translate(-1947.000000, -8093.000000)" fill-rule="nonzero">
            <g id="Team-Logos" transform="translate(139.500000, 7908.000000)">
                <g id="Group" transform="translate(1807.500000, 133.000000)">
                    <g id="Stallions" transform="translate(0.000000, 52.750000)">
                        <path d="M167.893617,61.7842312 L172.43617,52.2135241 L158.148936,52.2135241 C159.69375,51.4741997 161.146863,50.5569925 162.478723,49.4805556 C160.202128,47.0240741 164.212766,46.2371493 165.989362,45.9500281 L163.829787,36.8046857 L129.457447,11.5380191 L126.148936,11.4104097 L110.638298,0 C105.170213,3.19023569 103.425532,6.94407969 102.617021,9.57070707 C96.7581456,10.1817293 90.9787902,11.4005838 85.3723404,13.2075758 C81.287234,14.4092312 76.4042553,16.2914703 68.7340426,14.4624018 C69.2165232,17.6680353 70.8364048,20.5932452 73.2978723,22.703844 C71.5531915,23.5014029 69.9255319,24.3627666 68.2234043,25.2773008 C61.9468085,28.6164141 53.9148936,33.0614759 34.4255319,34.4864478 C34.8458733,39.2592327 37.64622,43.498092 41.8723404,45.7586139 C32.8829787,50.6077722 22.1382979,52.5644501 10.7446809,48.0768519 C13.1896727,54.1238136 17.8343351,59.0212097 23.7446809,61.7842312 L3.93617021,61.7842312 L11.3829787,70.7275253 L8.03191489,77.8736532 L11.5531915,82.4675926 L5.82978723,82.4675926 L0,94.75 L184.223404,94.75 L200,61.7842312 L167.893617,61.7842312 Z" id="Path" fill="#FFFFFF"></path>
                        <polygon id="Path" fill="#A32035" points="168.010638 70.1851852 164 65.3785634 150.734043 65.3785634 138.425532 91.1556678 145.819149 91.1556678 155.638298 70.4723064 160.62766 70.4723064 150.797872 91.1556678 158.085106 91.1556678"></polygon>
                        <path d="M139.776596,65.3785634 L126.510638,65.3785634 L116.585106,86.349046 L120.595745,91.1556678 L133.861702,91.1556678 L143.787234,70.1851852 L139.776596,65.3785634 Z M124.010638,86.0619248 L131.457447,70.4723064 L136.404255,70.4723064 L128.957447,86.0619248 L124.010638,86.0619248 Z" id="Shape" fill="#A32035"></path>
                        <path d="M70.9468085,65.3785634 L57.6808511,65.3785634 L51.9361702,77.4270202 L46.4255319,77.4270202 L49.9255319,81.6806678 L45.3829787,91.2513749 L52.7659574,91.2513749 L56.8723404,82.6058361 L61.8510638,82.6058361 L57.7553191,91.2513749 L65.0319149,91.2513749 L74.9574468,70.1851852 L70.9468085,65.3785634 Z M59.2446809,77.4270202 L62.5425532,70.4723064 L67.5319149,70.4723064 L64.2234043,77.4270202 L59.2446809,77.4270202 Z" id="Shape" fill="#A32035"></path>
                        <polygon id="Path" fill="#A32035" points="177.255319 75.98078 179.851064 70.4723064 191.085106 70.4723064 193.62766 65.3785634 168.585106 65.3785634 172.595745 70.1851852 169.180851 77.4270202 171.978723 81.0638889 178.904255 81.0638889 176.510638 86.0619248 165.06383 86.0619248 162.648936 91.1556678 181.382979 91.1556678 188.595745 75.98078"></polygon>
                        <polygon id="Path" fill="#A32035" points="87.3829787 87.774018 90.0531915 91.1556678 100.223404 91.1556678 102.62766 86.0619248 95.4042553 86.0619248 105.234043 65.3785634 97.9468085 65.3785634"></polygon>
                        <polygon id="Path" fill="#A32035" points="71.3723404 87.774018 74.0531915 91.1556678 84.212766 91.1556678 86.6276596 86.0619248 79.4042553 86.0619248 89.2234043 65.3785634 81.9468085 65.3785634"></polygon>
                        <polygon id="Path" fill="#A32035" points="11.6276596 65.3785634 15.6382979 70.1851852 12.2234043 77.4270202 15.0212766 81.0638889 21.9468085 81.0638889 19.5531915 86.0619248 8.10638298 86.0619248 5.69148936 91.1556678 24.4255319 91.1556678 31.6382979 75.98078 20.2978723 75.98078 22.893617 70.4723064 39.8085106 70.4723064 30.0212766 91.1556678 37.3085106 91.1556678 47.1702128 70.4723064 52.2659574 70.4723064 54.6808511 65.3785634"></polygon>
                        <polygon id="Path" fill="#A32035" points="102.361702 91.1556678 109.648936 91.1556678 121.946809 65.3785634 114.56383 65.3785634"></polygon>
                        <path d="M117.691489,20.6833614 C117.691489,20.6833614 112.138298,16.716835 111.968085,11.6975309 C110.645197,14.1725447 110.354582,17.0699135 111.159574,19.758193 C93.9787234,23.0335017 80.1489362,34.4758137 69.8085106,42.5364759 C59.4680851,50.597138 35.4255319,66.50578 18.1595745,53.4258137 C23.8829787,59.4021886 43.9148936,71.9717172 75.106383,46.2903199 C88.2978723,35.400982 103.021277,23.6290123 117.691489,20.6833614 Z" id="Path" fill="#C6B784"></path>
                        <path d="M89.0319149,59.5510662 L90.2765957,56.9138047 L89.3617021,55.7653199 L82.8191489,55.7653199 L79.6276596,62.4860831 L81.8297872,62.4860831 L82.893617,60.3592593 L85.0212766,60.3592593 L85.9680851,62.4860831 L88.1595745,62.4860831 L87.212766,60.3592593 L87.7234043,60.3592593 L89.0319149,59.5510662 Z M87.0851064,58.9874579 L83.5212766,58.9874579 L84.2978723,57.3498036 L87.8617021,57.3498036 L87.0851064,58.9874579 Z" id="Shape" fill="#C6B784"></path>
                        <polygon id="Path" fill="#C6B784" points="77.6276596 55.775954 74.4574468 62.4860831 76.6595745 62.4860831 79.8297872 55.775954"></polygon>
                        <polygon id="Path" fill="#C6B784" points="107.053191 55.775954 103.882979 62.4860831 106.085106 62.4860831 109.255319 55.775954"></polygon>
                        <path d="M72.2765957,59.1257015 L73.4042553,58.4876543 L74.1595745,56.8925365 L73.2340426,55.775954 L66.0957447,55.775954 L62.9042553,62.4967172 L70,62.4967172 L71.9148936,61.5077441 L72.7446809,59.7318462 L72.2765957,59.1257015 Z M69.9893617,60.9335017 L65.8617021,60.9335017 L66.393617,59.8700898 L70.5212766,59.8700898 L69.9893617,60.9335017 Z M71.1702128,58.4876543 L67.0212766,58.4876543 L67.5531915,57.3710718 L71.7021277,57.3710718 L71.1702128,58.4876543 Z" id="Shape" fill="#C6B784"></path>
                        <polygon id="Path" fill="#C6B784" points="118.414894 55.775954 116.319149 60.2103816 114.117021 55.775954 112.244681 55.775954 109.074468 62.4860831 110.893617 62.4860831 112.989362 58.0410213 115.191489 62.4860831 117.053191 62.4860831 120.234043 55.775954"></polygon>
                        <polygon id="Path" fill="#C6B784" points="130.87234 57.3179012 131.085106 56.8819024 130.159574 55.775954 124.531915 55.775954 122.882979 56.7542929 120.638298 61.49711 121.468085 62.4860831 128.43617 62.4860831 130.351064 58.4344837 126.010638 58.4344837 125.361702 59.8169192 127.489362 59.8169192 126.957447 60.9335017 123.117021 60.9335017 124.819149 57.3179012"></polygon>
                        <polygon id="Path" fill="#C6B784" points="140.37234 55.775954 139.106383 58.4344837 135.542553 58.4344837 136.797872 55.775954 134.595745 55.775954 131.425532 62.4860831 133.62766 62.4860831 134.893617 59.8169192 138.457447 59.8169192 137.202128 62.4860831 139.404255 62.4860831 142.574468 55.775954"></polygon>
                        <polygon id="Path" fill="#C6B784" points="100.755319 55.775954 96.8510638 59.5191639 96.3404255 55.775954 93.787234 55.775954 90.6170213 62.4860831 92.4361702 62.4860831 94.5957447 57.9027778 95.212766 62.4860831 96.1170213 62.4860831 100.861702 57.8815095 98.6914894 62.4860831 100.893617 62.4860831 104.06383 55.775954"></polygon>
                        <polygon id="Path" fill="#C6B784" points="162.87234 55.775954 158.957447 59.5191639 158.457447 55.775954 155.893617 55.775954 152.723404 62.4860831 154.542553 62.4860831 156.702128 57.9027778 157.319149 62.4860831 158.223404 62.4860831 162.968085 57.8815095 160.797872 62.4860831 163.010638 62.4860831 166.180851 55.775954"></polygon>
                        <path d="M150.191489,55.7865881 L150.191489,55.7865881 L148.06383,55.7865881 L141.106383,62.5073513 L143.468085,62.5073513 L144.946809,61.0823793 L149.06383,61.0823793 L149.329787,62.5073513 L151.351064,62.5073513 L150.191489,55.7865881 Z M146.425532,59.6893098 L148.553191,57.6794613 L148.914894,59.6893098 L146.425532,59.6893098 Z" id="Shape" fill="#C6B784"></path>
                        <polygon id="Path" fill="#A32035" points="125.5 25.4049102 134.414894 31.0622615 127.989362 31.0835297"></polygon>
                        <path d="M130.851064,30.2008979 C131.357081,30.2268898 131.849651,30.0330407 132.202128,29.6691919 L129.287234,27.8188552 C129.048553,28.0606661 128.928002,28.3949665 128.957447,28.7333895 C129.135935,29.6250933 129.942671,30.2502948 130.851064,30.2008979 L130.851064,30.2008979 Z" id="Path" fill="#FFFFFF"></path>
                        <polygon id="Path" fill="#C6B784" points="125.5 25.4049102 134.414894 31.0622615 127.989362 31.0835297 142.776596 34.8267396 124.56383 23.2887205"></polygon>
                        <path d="M151.946809,44.8015432 C149.531915,43.1851571 147.808511,39.3887767 151.180851,39.9842873 C151.970456,40.1497218 152.738056,40.4066777 153.468085,40.7499439 C153.468085,40.7499439 151.351064,41.6751122 151.946809,44.8015432 Z" id="Path" fill="#A32035"></path>
                        <path d="M134.787234,51.2670875 C142.484243,54.8959648 151.598168,53.6451165 158.031915,48.0768519 C158.031915,48.0768519 156.968085,45.1843715 161.712766,43.5786195 L160.648936,39.0165825 L128.212766,15.0898148 L124.904255,14.9622054 L110.553191,4.32808642 C107.74152,6.36008408 105.96717,9.52620927 105.702128,12.9842593 C90.212766,13.7180135 81.9148936,19.662486 74.393617,18.7160494 C74.393617,18.7160494 77.2659574,22.8633558 83.8723404,23.1823793 C69.2234043,25.6175926 67.1276596,34.8054714 38.9042553,37.6873176 C40.4787234,41.9409652 46.7765957,44.8866162 50.9574468,44.4612514 C46.8723404,48.0981201 28.212766,57.477413 18.1595745,53.4258137 C35.4255319,66.50578 59.4680851,50.4801627 69.8085106,42.5364759 C80.1489362,34.592789 93.9787234,23.0866723 111.159574,19.8113636 C110.354582,17.1230841 110.645197,14.2257153 111.968085,11.7507015 L124.170213,19.6305836 L126.43617,19.5136083 L157.521277,41.1753086 C155.665666,42.5145842 154.657899,44.7356571 154.87234,47.01344 C153.920892,47.698029 152.905543,48.2891929 151.840426,48.7787037 C145.851064,46.6518799 142.712766,48.1193883 142.712766,48.1193883 L147.957447,50.1079686 C144.322029,50.9198867 140.526337,50.6197594 137.06383,49.2466049 L137,46.9709035 L129.978723,43.5998878 C127.380792,44.837194 124.537286,45.4732786 121.659574,45.4608586 C114.212766,45.4608586 108.744681,41.2603816 109.031915,36.0071268 C107.660079,39.9207051 108.704264,44.274619 111.702128,47.1410494 L107.031915,52.8728395 L117.893617,52.8728395 L120.021277,49.9590909 C122.765686,50.0841385 125.505751,49.6312633 128.06383,48.629826 L134.765957,49.6932379 L134.787234,51.2670875 Z" id="Path" fill="#A32035"></path>
                        <path d="M137.06383,49.1934343 C140.526337,50.5665888 144.322029,50.8667161 147.957447,50.054798 L142.712766,48.0662177 C142.712766,48.0662177 145.851064,46.566807 151.840426,48.7255331 C152.905543,48.2360223 153.920892,47.6448584 154.87234,46.9602694 C153.854752,46.3115326 152.877755,45.6012688 151.946809,44.8334456 C149.531915,43.2170595 147.808511,39.420679 151.180851,40.0161897 L151.180851,40.0161897 C151.180851,40.0161897 147.170213,39.0484848 146.074468,42.2174523 C145.010638,45.226908 141.62766,44.9185185 135.329787,41.8877946 C136.02841,41.1051719 136.515439,40.1571193 136.744681,39.1335578 C136.744681,38.9102413 136.808511,38.6869248 136.829787,38.4636083 C134.053191,40.6861392 129.510638,42.0792088 124.670213,41.8984287 C117.361702,41.6113075 112.148936,37.8361953 113.031915,33.4655724 C113.211962,32.617636 113.575025,31.8192122 114.095745,31.1260662 C114.095745,31.1260662 102.521277,31.1260662 96.7021277,46.5136364 C99.9350474,42.1012841 104.153234,38.5037617 109.021277,36.0071268 C108.734043,41.2603816 114.244681,45.4502245 121.648936,45.4608586 C124.530235,45.4748789 127.377554,44.8387549 129.978723,43.5998878 L137,46.9496352 L137.06383,49.1934343 Z" id="Path" fill="#C6B784"></path>
                    </g>
                </g>
            </g>
        </g>
    </g>
</svg>