<?xml version="1.0" encoding="UTF-8"?>
<svg width="196px" height="200px" viewBox="0 0 196 200" version="1.1" xmlns="http://www.w3.org/2000/svg" xmlns:xlink="http://www.w3.org/1999/xlink">
    <title>EADA28F5-C946-45A6-9763-7D8A9ABC23A9@0.5x</title>
    <g id="Final-Designs" stroke="none" stroke-width="1" fill="none" fill-rule="evenodd">
        <g id="Assets" transform="translate(-749.000000, -8041.000000)" fill-rule="nonzero">
            <g id="Team-Logos" transform="translate(139.500000, 7908.000000)">
                <g id="Group" transform="translate(607.500000, 133.000000)">
                    <g id="Gamblers" transform="translate(2.500000, 0.000000)">
                        <path d="M139.466812,123.774579 C127.367245,130.346097 113.741465,133.591205 99.9788332,133.179014 C79.3848299,133.179014 63.6757156,127.088728 53.2388383,115.037278 C43.7057731,104.01881 38.7348068,87.2759024 38.7348068,66.616274 C38.7348068,45.9566456 43.8133697,29.1922179 53.346435,18.1737494 C63.6757156,6.14381997 79.3848299,0.0320132249 99.9788332,0.0320132249 C113.73957,-0.361712894 127.360614,2.88226727 139.466812,9.43644825 L139.466812,46.8389839 L114.181594,46.8389839 L98.9889438,43.567876 L98.9889438,31.6455488 L89.1761272,31.6455488 L89.1761272,60.2892628 L70.0454387,60.2892628 L76.5012391,72.7496012 L86.5722877,69.2417684 L96.4711816,92.268646 L105.401705,96.7448988 L104.110545,90.1381218 L107.596678,79.3778986 L99.2256564,73.2015306 L99.2256564,61.9463372 L113.127147,61.9463372 L116.634798,51.186114 L127.846372,51.186114 L131.354023,61.9463372 L163.546948,61.9463372 L163.546948,102.038929 L149.710015,102.038929 L139.466812,109.485003 L139.466812,123.774579 Z" id="Path" fill="#000000"></path>
                        <path d="M135.571813,121.364289 L135.571813,107.634245 L148.483413,98.2728505 L159.651948,98.2728505 L159.651948,65.9921811 L128.55651,65.9921811 L125.027339,55.2319579 L119.453831,55.2319579 L115.946179,65.9921811 L103.034579,65.9921811 L103.034579,71.5014153 L111.986622,77.9575492 L107.940987,90.4178876 L110.544826,103.782085 L93.3293587,95.1739062 L84.2912382,74.1484302 L74.4999409,77.5056198 L63.7402736,56.394062 L85.2596083,56.394062 L85.2596083,27.7718685 L102.754827,27.7718685 L102.754827,40.4474113 L114.590461,43.0729058 L135.571813,43.0729058 L135.571813,11.8467382 C124.812145,6.05773818 112.933473,3.90569355 99.9788332,3.90569355 C80.611432,3.90569355 65.8276491,9.56557092 56.1654678,20.7131621 C46.8691153,31.4733852 42.5222097,47.5276382 42.5006104,66.616274 C42.479171,85.7049098 46.8045573,101.759163 56.1654678,112.497865 C65.8276491,123.645457 80.5683933,129.305334 99.9788332,129.305334 C112.320222,129.6735 124.557156,126.943354 135.571813,121.364289 Z" id="Path" fill="#FFFFFF"></path>
                        <path d="M131.676813,118.953999 C121.750858,123.524288 110.901518,125.734043 99.9788332,125.410133 C81.7519567,125.410133 68.0011019,120.202185 59.0920973,109.936932 C50.8071535,100.360334 46.4172092,85.3821031 46.3956119,66.616274 C46.3741706,47.8504448 50.8071535,32.8506938 59.0920973,23.2740952 C68.0011019,12.944281 81.773476,7.82241478 99.9788332,7.82241478 C110.900781,7.50707943 121.748184,9.71644063 131.676813,14.2785487 L131.676813,39.0701028 L115.623389,39.0701028 L106.714385,37.2839057 L106.714385,23.8766677 L81.386128,23.8766677 L81.386128,52.391259 L57.3490312,52.391259 L72.9720682,82.0894749 L82.1823434,78.8614079 L90.3812099,97.863962 L116.010737,110.668628 L112.438528,92.3977686 L122.315903,85.23146 L132.128719,92.3332073 L136.152835,89.4064266 L132.40847,77.8929878 L143.641563,69.7367387 L155.756949,69.7367387 L155.756949,94.2700475 L146.783386,94.2700475 L131.719852,105.245475 L131.676813,118.953999 Z" id="Path" fill="#EA0029"></path>
                        <polygon id="Path" fill="#FFB71B" points="113.170185 86.9746162 116.634798 76.3219953 107.596678 69.7367387 118.786732 69.7367387 122.251345 59.0841178 125.715957 69.7367387 136.906011 69.7367387 127.846372 76.3219953 131.267946 86.9746162 122.208306 80.3893596"></polygon>
                        <path d="M14.5901133,163.587405 L14.826826,163.587405 C15.85239,163.575615 16.6775565,162.740811 16.6774888,161.715126 L16.6774888,148.523093 C16.6658621,147.505802 15.844064,146.683961 14.826826,146.672334 L14.5901133,146.672334 L15.3648094,142.518888 L24.2522946,142.518888 L25.0485099,146.672334 C24.0228782,146.672266 23.1881167,147.497476 23.1763278,148.523093 L23.1763278,152.611977 L29.0941449,152.611977 L29.0941449,148.523093 C29.0941449,147.500947 28.2655749,146.672334 27.2434821,146.672334 L27.9751395,142.454327 L36.884144,142.454327 L37.6803594,146.607773 L37.4221274,146.607773 C36.4048894,146.6194 35.5830913,147.441241 35.5714646,148.458531 L35.5714646,161.672085 C35.5713968,162.69777 36.3965633,163.532575 37.4221274,163.544364 L37.6803594,163.544364 L36.884144,167.719331 L27.9751395,167.719331 L27.2434821,163.587405 C27.7380597,163.587438 28.2120738,163.389497 28.5597657,163.037744 C28.9074575,162.685991 29.0998958,162.209696 29.0941449,161.715126 L29.0941449,156.980628 L23.1763278,156.980628 L23.1763278,161.672085 C23.1763278,162.706116 24.0145323,163.544364 25.0485099,163.544364 L24.2522946,167.719331 L15.3648094,167.719331 L14.5901133,163.587405 Z" id="Path" fill="#000000"></path>
                        <path d="M85.5608789,142.454327 L76.6088357,142.454327 L75.8126204,146.607773 L76.0923717,146.607773 C77.1144645,146.607773 77.9430345,147.436386 77.9430345,148.458531 L77.9430345,161.542963 C77.9488156,161.83776 77.8357452,162.122485 77.6292967,162.332992 C77.4228482,162.543499 77.1403869,162.662082 76.8455484,162.662026 L73.1657422,162.662026 C72.5477326,162.662026 72.0467368,162.161004 72.0467368,161.542963 L72.0467368,148.523093 C72.0583635,147.505802 72.8801616,146.683961 73.8973996,146.672334 L74.2201896,146.672334 L73.4239742,142.518888 L64.5580083,142.518888 L63.7833123,146.672334 L63.7833123,146.672334 C64.8005503,146.683961 65.6223484,147.505802 65.6339751,148.523093 L65.6339751,161.43536 C65.6457817,164.865342 68.4232579,167.642962 71.8530628,167.654769 L78.3088632,167.654769 C79.9237759,167.633924 81.4672429,166.985634 82.6127301,165.847052 L82.6127301,165.847052 C83.7553406,164.7024 84.4108076,163.160045 84.4418735,161.542963 L84.4418735,148.523093 C84.4536624,147.497476 85.2884239,146.672266 86.3140557,146.672334 L85.5608789,142.454327 Z" id="Path" fill="#000000"></path>
                        <path d="M114.95629,163.781089 L114.95629,163.781089 C115.779897,163.786869 116.571448,163.462231 117.15384,162.879808 C117.736232,162.297386 118.060854,161.505794 118.055074,160.682145 L118.055074,146.822977 C116.628898,146.822977 115.472754,147.979181 115.472754,149.405431 L115.472754,151.170107 L110.523307,151.170107 L110.523307,142.561929 L132.171758,142.561929 L132.171758,151.170107 L127.179272,151.170107 L127.179272,149.405431 C127.179272,147.979181 126.023128,146.822977 124.596952,146.822977 L124.596952,160.682145 C124.591172,161.505794 124.915794,162.297386 125.498186,162.879808 C126.080579,163.462231 126.872129,163.786869 127.695736,163.781089 L127.695736,163.781089 L126.964079,167.719331 L115.774025,167.719331 L114.95629,163.781089 Z" id="Path" fill="#000000"></path>
                        <path d="M54.2717664,142.454327 L47.170386,142.454327 C43.7237939,142.454327 40.9297789,145.248486 40.9297789,148.695256 L40.9297789,161.607524 C40.9586076,163.225084 41.6144156,164.768241 42.7589224,165.911613 C43.9246541,167.088251 45.5141182,167.747331 47.170386,167.740898 L54.2717664,167.740898 C55.8857436,167.715528 57.4276038,167.067913 58.5756333,165.933134 L58.5756333,165.933134 C59.7318783,164.795852 60.3962886,163.250633 60.4262961,161.629044 L60.4262961,148.716777 C60.4707216,147.040532 59.8340907,145.417816 58.6617106,144.219003 L58.6617106,144.219003 C57.5027767,143.100667 55.9677146,142.455907 54.3578437,142.411286 M52.959087,162.489862 L48.65522,162.489862 C48.3604382,162.495644 48.0757279,162.382567 47.8652314,162.176108 C47.6547349,161.969649 47.5362146,161.687173 47.5362146,161.392319 L47.5362146,148.759817 C47.5362146,148.141776 48.0372104,147.640754 48.65522,147.640754 L52.959087,147.640754 C53.2539255,147.640754 53.5363868,147.759281 53.7428352,147.969788 C53.9492837,148.180295 54.0623542,148.46502 54.056573,148.759817 L54.056573,161.43536 C54.056573,161.726447 53.9409454,162.005611 53.7351268,162.21144 C53.5293082,162.417269 53.2501584,162.532903 52.959087,162.532903" id="Shape" fill="#000000"></path>
                        <path d="M147.665679,142.454327 L140.564298,142.454327 C138.911158,142.454317 137.326039,143.112527 136.159113,144.283551 C134.992188,145.454575 134.33949,147.042041 134.345173,148.695256 L134.345173,161.607524 C134.345173,165.042409 137.129591,167.826933 140.564298,167.826933 L147.665679,167.826933 C149.280591,167.806088 150.824058,167.157798 151.969546,166.019215 L151.969546,166.019215 C153.112156,164.874564 153.767623,163.332209 153.798689,161.715126 L153.798689,148.716777 C153.847284,147.047969 153.227553,145.428838 152.077142,144.219003 L152.077142,144.219003 C150.926615,143.087971 149.386326,142.441016 147.773275,142.411286 M146.33148,162.532903 L142.027613,162.532903 C141.417911,162.532903 140.920333,162.044981 140.908608,161.43536 L140.908608,148.759817 C140.908608,148.141776 141.409603,147.640754 142.027613,147.640754 L146.33148,147.640754 C146.94949,147.640754 147.450485,148.141776 147.450485,148.759817 L147.450485,161.43536 C147.43876,162.044981 146.941182,162.532903 146.33148,162.532903" id="Shape" fill="#000000"></path>
                        <path d="M157.091147,163.436762 L157.263302,163.436762 C157.795768,163.448899 158.309732,163.241212 158.684298,162.862554 C159.058865,162.483897 159.260972,161.967691 159.243081,161.43536 L159.243081,148.523093 C159.243081,148.009411 159.039032,147.516768 158.675823,147.15354 C158.312613,146.790312 157.819996,146.586252 157.306341,146.586252 L157.091147,146.586252 L157.887363,142.282163 L165.698881,142.282163 L172.54203,156.227412 L172.54203,148.480052 C172.547779,147.968359 172.348538,147.475643 171.98874,147.111783 C171.628941,146.747923 171.138507,146.543179 170.626809,146.543211 L170.217941,146.543211 L170.992637,142.239122 L179.363659,142.239122 L180.159874,146.543211 C179.090242,146.543211 178.223134,147.410364 178.223134,148.480052 L178.223134,167.547167 L171.659737,167.547167 L164.881146,151.880282 L164.881146,161.43536 C164.875397,161.947053 165.074638,162.439769 165.434436,162.803629 C165.794235,163.167489 166.284669,163.372233 166.796367,163.3722 L167.119157,163.3722 L166.322942,167.67629 L157.887363,167.67629 L157.091147,163.436762 Z" id="Path" fill="#000000"></path>
                        <path d="M103.421927,152.611977 L97.331955,152.611977 C97.0048684,152.617873 96.6894406,152.490529 96.4581178,152.259194 C96.2267951,152.027859 96.099458,151.712415 96.1053529,151.385312 L96.1053529,148.523093 C96.0995808,148.18834 96.2285263,147.865302 96.463223,147.626547 C96.6979197,147.387791 97.0186895,147.253336 97.3534743,147.253386 L100.581375,147.253386 C101.282578,147.253386 101.851015,147.821853 101.851015,148.523093 L101.851015,150.416892 L108.306816,150.416892 L108.306816,148.264847 C108.321962,146.752277 107.733331,145.296114 106.671346,144.219003 L106.671346,144.219003 C105.607976,143.144466 104.158941,142.540024 102.647231,142.540408 L95.3521762,142.540408 C93.8409452,142.542413 92.3927912,143.146487 91.3280606,144.219003 L91.3280606,144.326605 C90.2674814,145.397572 89.6720716,146.843642 89.6710719,148.350929 L89.6710719,151.966364 C89.6653199,153.297984 90.1917324,154.576727 91.1332905,155.518334 C92.0748486,156.45994 93.353525,156.98638 94.6850768,156.980628 L100.753529,156.980628 C101.430963,156.980628 101.980131,157.529825 101.980131,158.207293 L101.980131,161.736647 C101.98602,162.075164 101.854146,162.401552 101.614754,162.640956 C101.375362,162.880361 101.048991,163.012241 100.710491,163.006353 L97.2243583,163.006353 C96.5231551,163.006353 95.9547176,162.437886 95.9547176,161.736647 L95.9547176,159.111152 L89.4989172,159.111152 L89.4989172,162.016412 C89.4989172,163.52892 90.0997276,164.97948 91.169177,166.048985 C92.2386264,167.118489 93.689111,167.719333 95.2015409,167.719333 L102.647231,167.719333 C104.165445,167.720672 105.621522,167.116524 106.692866,166.040736 L106.692866,166.040736 C107.765326,164.97595 108.369369,163.527721 108.371374,162.016412 L108.371374,157.712323 C108.371374,154.954907 106.136162,152.71958 103.378888,152.71958" id="Path" fill="#000000"></path>
                        <path d="M189.800536,184.698963 L183.710564,184.698963 C183.033131,184.698963 182.483962,184.149766 182.483962,183.472297 L182.483962,180.480955 C182.483912,180.146153 182.61836,179.825367 182.857104,179.590658 C183.095847,179.355949 183.418868,179.226997 183.753603,179.232769 L186.959984,179.232769 C187.294719,179.226997 187.61774,179.355949 187.856483,179.590658 C188.095226,179.825367 188.229674,180.146153 188.229624,180.480955 L188.229624,182.396275 L194.685425,182.396275 L194.685425,180.24423 C194.684425,178.736943 194.089015,177.290874 193.028436,176.219907 L193.028436,176.219907 C191.957092,175.144119 190.501016,174.539971 188.982801,174.54131 L181.752305,174.54131 C180.240595,174.540928 178.791559,175.14537 177.728189,176.219907 L177.728189,176.219907 C176.653707,177.283332 176.049297,178.732442 176.049681,180.24423 L176.049681,183.945747 C176.06153,186.718526 178.312544,188.960036 181.085205,188.960011 L187.153658,188.960011 C187.831091,188.960011 188.38026,189.509208 188.38026,190.186676 L188.38026,193.71603 C188.368747,194.412444 187.806998,194.974223 187.110619,194.985736 L183.602968,194.985736 C182.910182,194.973992 182.354747,194.40895 182.354846,193.71603 L182.354846,191.198137 L175.899046,191.198137 L175.899046,194.103398 C175.910845,197.248132 178.457098,199.794516 181.601669,199.806316 L189.068879,199.806316 C190.58011,199.804311 192.028264,199.200237 193.092994,198.127721 L193.092994,198.127721 C194.157562,197.059404 194.753681,195.611612 194.75,194.103398 L194.75,189.799308 C194.75,187.041892 192.514771,184.806565 189.757497,184.806565" id="Path" fill="#000000"></path>
                        <path d="M19.647157,182.116509 L19.647157,180.416394 C19.647157,177.171676 17.0169291,174.541312 13.7723786,174.541312 L6.06845679,174.541312 C4.5175316,174.545112 3.0315139,175.164318 1.93674454,176.262948 L1.7215512,176.499673 C0.622977825,177.594499 0.0038037864,179.080593 0,180.631598 L0,193.71603 C-0.00191079509,195.274495 0.617700079,196.769383 1.7215512,197.869476 L1.93674454,198.08468 C3.0315139,199.18331 4.5175316,199.802516 6.06845679,199.806316 L13.7723786,199.806316 C15.3391151,199.786429 16.8335073,199.143729 17.9256102,198.020119 L17.9256102,198.020119 C19.0254545,196.917348 19.6443454,195.424196 19.647157,193.866673 L19.647157,184.698963 L9.03812497,184.698963 L9.03812497,189.003052 L13.1052792,189.003052 L13.1052792,194.060357 C13.1052792,194.666513 12.613918,195.1579 12.0077932,195.1579 L7.70392623,195.1579 C7.39872765,195.200572 7.08965074,195.112957 6.85224059,194.91647 C6.61483043,194.719982 6.4709638,194.432728 6.45580482,194.124918 L6.45580482,180.416394 C6.45580482,180.125307 6.57143248,179.846143 6.77725104,179.640314 C6.98306961,179.434485 7.26221948,179.318851 7.55329088,179.318851 L11.8571578,179.318851 C12.1482292,179.318851 12.4273791,179.434485 12.6331977,179.640314 C12.8390162,179.846143 12.9546439,180.125307 12.9546439,180.416394 L12.9546439,182.116509 L19.647157,182.116509 Z" id="Path" fill="#000000"></path>
                        <path d="M21.5193391,195.609829 L21.5193391,195.609829 C22.3032312,195.605534 22.9927072,195.090582 23.2193665,194.340123 L26.468786,181.083528 C26.6457238,180.518638 26.5451122,179.903343 26.1974634,179.424241 C25.8498146,178.945139 25.2960841,178.658673 24.7042006,178.651717 L25.4788966,174.498271 L41.1449723,174.498271 L41.9411876,178.651717 C41.3192847,178.648593 40.7320578,178.937893 40.3555355,179.432898 C39.9790133,179.927902 39.8569615,180.571072 40.0259669,181.16961 L43.253867,194.297082 C43.4743974,195.051816 44.1676431,195.569584 44.9538945,195.566788 L44.1576791,199.870877 L36.0448899,199.870877 L35.2486746,195.781993 C35.669922,195.780562 36.0673498,195.586416 36.3274218,195.255017 C36.5874937,194.923618 36.6816062,194.491414 36.5828733,194.081877 L36.36768,191.499424 L29.4169349,191.499424 L29.2232609,193.909714 C29.1104997,194.360145 29.2117499,194.837411 29.4976805,195.203253 C29.783611,195.569095 30.2222673,195.782627 30.6865756,195.781993 L29.8903602,199.870877 L22.3155544,199.870877 L21.5193391,195.609829 Z M30.4498629,187.259896 L35.3347519,187.259896 L33.1828184,178.651717 L32.5372384,178.651717 L30.4498629,187.259896 Z" id="Shape" fill="#000000"></path>
                        <path d="M47.3425406,195.609829 L47.3425406,195.609829 C48.5310207,195.609829 49.4944741,194.646326 49.4944741,193.457784 L49.4944741,180.803762 C49.4944741,179.61522 48.5310207,178.651717 47.3425406,178.651717 L48.138756,174.498271 L59.716158,174.498271 L62.4060749,190.079074 L65.5478977,174.541312 L76.7594711,174.541312 L77.4696091,178.651717 L77.2328964,178.651717 C76.2073324,178.663507 75.3821659,179.498311 75.3822337,180.523996 L75.3822337,193.71603 C75.3822337,194.738175 76.2108036,195.566788 77.2328964,195.566788 L77.4696091,195.566788 L76.6949131,199.870877 L68.0871792,199.870877 L67.2909638,195.566788 C67.785508,195.572539 68.2617786,195.380091 68.6135134,195.032381 C68.9652482,194.684671 69.1631794,194.210633 69.163146,193.71603 L69.163146,178.888442 L64.5580083,199.806316 L59.3072907,199.806316 L54.7667111,178.909963 L54.7667111,193.522346 C54.7667111,194.710887 55.7301645,195.67439 56.9186445,195.67439 L57.0262412,195.67439 L56.2300258,199.97848 L48.074198,199.97848 L47.3425406,195.609829 Z" id="Path" fill="#000000"></path>
                        <path d="M99.5054078,186.140833 L100.667452,185.000249 C101.664004,184.007821 102.228551,182.662118 102.238363,181.255691 L102.238363,180.179669 C102.226565,177.070591 99.709215,174.553111 96.6002976,174.541312 L81.5367634,174.541312 L80.805106,178.651717 C81.993586,178.651717 82.9570395,179.61522 82.9570395,180.803762 L82.9570395,193.522346 C82.9570395,194.710887 81.993586,195.67439 80.805106,195.67439 L81.6013214,199.97848 L96.6648556,199.97848 C99.773773,199.96668 102.291123,197.449201 102.302927,194.340123 L102.302927,191.090535 C102.304897,189.702838 101.755261,188.371256 100.775049,187.389018 L99.5054078,186.140833 Z M89.4128398,179.082126 L94.2977288,179.082126 C94.5640352,179.082063 94.8191343,179.189309 95.0054058,179.37964 C95.1916772,179.569971 95.2934075,179.82733 95.2876182,180.093587 L95.2876182,183.687502 C95.2934075,183.953759 95.1916772,184.211118 95.0054058,184.401449 C94.8191343,184.59178 94.5640352,184.699026 94.2977288,184.698963 L89.4128398,184.698963 L89.4128398,179.082126 Z M89.4128398,189.067613 L94.3407675,189.067613 C94.8826708,189.079026 95.3192446,189.515623 95.3306569,190.057554 L95.3306569,194.23252 C95.3192446,194.774452 94.8826708,195.211048 94.3407675,195.222461 L89.4128398,195.222461 L89.4128398,189.067613 Z" id="Shape" fill="#000000"></path>
                        <path d="M105.444744,195.609829 L105.444744,195.609829 C106.633224,195.609829 107.596678,194.646326 107.596678,193.457784 L107.596678,180.803762 C107.596678,179.61522 106.633224,178.651717 105.444744,178.651717 L106.197921,174.498271 L116.204411,174.498271 L116.979108,178.651717 C116.195402,178.651633 115.444405,178.96589 114.894302,179.524112 C114.344198,180.082335 114.040953,180.837878 114.052478,181.621539 L114.052478,195.459186 L118.141152,195.459186 L118.141152,189.003052 L123.972891,189.003052 L123.972891,199.763275 L106.21944,199.763275 L105.444744,195.609829 Z" id="Path" fill="#000000"></path>
                        <path d="M126.555211,195.459186 L126.555211,195.459186 C127.743691,195.459186 128.707145,194.495683 128.707145,193.307141 L128.707145,180.803762 C128.707145,179.61522 127.743691,178.651717 126.555211,178.651717 L127.351427,174.498271 L146.718828,174.498271 L146.718828,181.987386 L140.650376,181.987386 L140.650376,178.845401 L135.162945,178.845401 L135.162945,184.698963 L143.383331,184.698963 L143.383331,189.003052 L135.162945,189.003052 L135.162945,195.459186 L140.650376,195.459186 L140.650376,191.77919 L146.718828,191.77919 L146.718828,199.806316 L127.351427,199.806316 L126.555211,195.459186 Z" id="Path" fill="#000000"></path>
                        <path d="M171.530621,194.211 L171.530621,190.401881 C171.5324,189.482281 171.168546,188.599695 170.519212,187.94855 L169.163494,186.592762 L170.519212,185.236974 C171.16458,184.583195 171.527731,183.702317 171.530621,182.783643 L171.530621,180.265751 C171.534454,178.7364 170.921583,177.270089 169.830593,176.198386 C168.757083,175.141677 167.312768,174.546929 165.806478,174.541312 L150.742944,174.541312 L150.054325,178.651717 C151.242805,178.651717 152.206258,179.61522 152.206258,180.803762 L152.206258,193.543866 C152.206258,194.732408 151.242805,195.695911 150.054325,195.695911 L150.85054,200 L160.168412,200 L160.964628,195.695911 L160.749434,195.695911 C159.560954,195.695911 158.597501,194.732408 158.597501,193.543866 L158.597501,189.067613 L163.546948,189.067613 C164.129303,189.067613 164.601395,189.53973 164.601395,190.122115 L164.601395,196.578249 C164.595534,197.439913 164.936701,198.267675 165.547993,198.87495 C166.159285,199.482225 166.989253,199.817902 167.850815,199.806316 L172.154682,199.806316 L172.950897,195.502227 C172.576209,195.507992 172.214876,195.363165 171.947886,195.100206 C171.680895,194.837247 171.530576,194.478149 171.530621,194.103398 M158.61902,178.737799 L163.546948,178.737799 C164.129303,178.737799 164.601395,179.209916 164.601395,179.792301 L164.601395,183.536859 C164.601395,184.119244 164.129303,184.59136 163.546948,184.59136 L158.640539,184.59136 L158.61902,178.737799 Z" id="Shape" fill="#000000"></path>
                    </g>
                </g>
            </g>
        </g>
    </g>
</svg>