<?xml version="1.0" encoding="UTF-8"?>
<svg width="200px" height="164px" viewBox="0 0 200 164" version="1.1" xmlns="http://www.w3.org/2000/svg" xmlns:xlink="http://www.w3.org/1999/xlink">
    <title>C4F29C3D-F389-45F8-A4F5-8F8776D31ED3@0.5x</title>
    <g id="Final-Designs" stroke="none" stroke-width="1" fill="none" fill-rule="evenodd">
        <g id="Assets" transform="translate(-447.000000, -8059.000000)" fill-rule="nonzero">
            <g id="Team-Logos" transform="translate(139.500000, 7908.000000)">
                <g id="Group" transform="translate(307.500000, 133.000000)">
                    <g id="Breakers" transform="translate(0.000000, 18.000000)">
                        <path d="M155.587076,38.2710614 C162.121057,30.3261996 153.112353,24.5902232 153.112353,24.5902232 C152.483187,25.9507151 151.67484,27.2208204 150.708846,28.3667046 C134.082681,1.28248061 99.1160838,-7.9432211 71.3037997,7.41621695 C43.4915156,22.775655 32.6567982,57.2953044 46.6994261,85.806296 C60.7420539,114.317288 94.7021937,126.749586 123.818924,114.038589 C152.935655,101.327591 166.924995,67.962802 155.587076,38.2710614 L155.587076,38.2710614 Z" id="Path" fill="#FFFFFF"></path>
                        <path d="M149.943284,79.6164073 C102.923548,97.8753386 86.93577,56.7437558 47.4826333,45.4143116 C46.4500913,49.6233105 45.9300074,53.9417914 45.9336566,58.2757247 C45.9297598,61.151971 46.1619898,64.0236802 46.6280528,66.8618758 C80.651042,69.2132699 109.08365,84.1054324 125.480915,106.176472 C136.417414,100.365288 145.046402,90.9963478 149.943284,79.6164073 L149.943284,79.6164073 Z" id="Path" fill="#C1C5C8"></path>
                        <path d="M47.4826333,45.4143116 C52.7598756,23.775128 70.7299422,7.56850672 92.7871326,4.55564406 C114.844323,1.54279437 136.498447,12.3370316 147.379542,31.7691005 C145.875069,32.866735 144.305458,33.872079 142.679349,34.7795975 C135.106097,21.0087378 121.341608,11.7552234 105.736955,9.94416911 C90.1323024,8.13311487 74.6162457,13.9883701 64.0935433,25.6590387 C85.4580577,19.976503 107.374489,16.6097342 120.851937,34.0670538 C104.276634,28.2420094 91.9564309,37.4516362 93.2026942,49.7252008 C94.3955463,61.6603071 114.691835,79.456085 144.993838,76.9443686 C147.465477,71.0312523 148.736419,64.6851458 148.732628,58.2757247 C148.728,54.5269452 148.291903,50.7911697 147.432953,47.14223 C149.513718,45.6476749 150.951398,43.4199504 151.456604,40.907473 C155.744811,53.5550248 155.205786,67.3426514 149.943284,79.6164073 C102.923548,97.8753386 86.93577,56.7437558 47.4826333,45.4143116 Z" id="Path" fill="#4197CB"></path>
                        <path d="M48.782308,75.6261628 C53.6228604,89.978968 64.2449054,101.65047 78.0750159,107.812988 C91.9051264,113.975506 107.681475,114.066786 121.581891,108.064713 C107.57033,88.7191526 80.277163,76.1605706 48.782308,75.6261628 Z" id="Path" fill="#003595"></path>
                        <path d="M153.308195,29.4177065 C150.35277,36.0443625 131.267137,41.5131351 131.017885,47.3916203 L131.017885,47.3916203 C125.196055,45.4321252 119.267402,49.3333018 113.855058,46.839399 C112.25272,54.1964122 122.596705,51.7559502 125.997224,53.0563424 C125.196055,54.6773792 125.427503,56.779383 127.101057,57.1356548 C131.391764,50.6158804 141.575516,51.4353056 147.450757,47.1600436 C149.531522,45.6654885 150.969201,43.437764 151.474407,40.9252866 C148.559,42.9937857 145.198842,44.3483535 141.664534,44.8799039 C147.237112,40.6402691 159.592923,34.6905295 153.308195,29.4177065 Z" id="Path" fill="#003595"></path>
                        <path d="M50.2422164,147.753395 L41.9812709,147.753395 L42.7290289,142.551826 L36.9428062,142.551826 L33.9517742,163.75 L25.7086324,163.75 L29.3940111,137.56402 L47.5360446,137.56402 C48.587954,137.550446 49.5920246,138.00297 50.2789151,138.800203 C50.9658055,139.597435 51.265204,140.657771 51.096797,141.696774 L50.2422164,147.753395 Z M47.2155769,153.88127 L48.3194101,163.732186 L40.0762683,163.732186 L38.4739297,149.481313 L49.9929638,149.481313 L49.8861412,150.318552 C49.6099555,151.862213 48.6193417,153.183761 47.2155769,153.88127 L47.2155769,153.88127 Z" id="Shape" fill="#003595"></path>
                        <path d="M173.070371,147.753395 L164.827229,147.753395 L165.574987,142.551826 L159.788764,142.551826 L156.797732,163.75 L148.55459,163.75 L152.239969,137.56402 L170.382003,137.56402 C171.433912,137.550446 172.437983,138.00297 173.124873,138.800203 C173.811764,139.597435 174.111162,140.657771 173.942755,141.696774 L173.070371,147.753395 Z M170.061535,153.88127 L171.165368,163.732186 L162.922226,163.732186 L161.319888,149.481313 L172.838922,149.481313 L172.714295,150.318552 C172.452779,151.863289 171.466027,153.18852 170.061535,153.88127 L170.061535,153.88127 Z" id="Shape" fill="#003595"></path>
                        <path d="M62.9897101,142.551826 L62.170737,148.32343 L70.698739,148.32343 L70.0578036,152.883709 L61.5298016,152.883709 L60.9244737,157.10553 L52.6813318,157.10553 L55.440915,137.51058 L74.0992576,137.51058 L73.4049108,142.551826 L62.9897101,142.551826 Z M71.1082255,158.780008 L70.4138788,163.75 L51.7555362,163.75 L52.4498829,158.780008 L71.1082255,158.780008 Z" id="Shape" fill="#003595"></path>
                        <path d="M137.676492,142.551826 L136.857519,148.32343 L145.385521,148.32343 L144.744585,152.883709 L136.216583,152.883709 L135.611255,157.10553 L127.368114,157.10553 L130.127697,137.51058 L148.786039,137.51058 L148.091693,142.551826 L137.676492,142.551826 Z M145.795007,158.780008 L145.100661,163.75 L126.40671,163.75 L127.101057,158.780008 L145.795007,158.780008 Z" id="Shape" fill="#003595"></path>
                        <path d="M100.021535,141.696774 L96.9236805,163.732186 L88.6805387,163.732186 L89.7309606,156.214851 L84.8349261,156.214851 L85.4580577,151.654571 L90.3540923,151.654571 L91.6715707,142.551826 L85.1019825,142.551826 L82.1109505,163.75 L73.8678087,163.75 L76.9656633,141.714587 C77.3478698,139.385188 79.325451,137.652916 81.6836602,137.581744 L96.4785864,137.581744 C97.5237546,137.57442 98.5193986,138.026836 99.2015761,138.819148 C99.8837536,139.611459 100.183566,140.663645 100.021535,141.696774 Z" id="Path" fill="#003595"></path>
                        <path d="M104.668317,137.56402 L112.911459,137.56402 L109.22608,163.732186 L100.982938,163.732186 L104.668317,137.56402 Z M120.282216,150.977655 L124.430493,163.732186 L116.187351,163.732186 L112.163701,151.458622 L119.943945,137.653088 L128.187087,137.653088 L120.282216,150.977655 Z" id="Shape" fill="#003595"></path>
                        <path d="M180.209679,153.061845 C179.15777,153.07542 178.153699,152.622896 177.466809,151.825663 C176.779918,151.02843 176.48052,149.968095 176.648927,148.929092 L177.663741,141.803655 C178.038105,139.477039 180.009774,137.743403 182.363934,137.670902 L196.393299,137.670902 C197.445208,137.657328 198.449279,138.109851 199.136169,138.907084 C199.82306,139.704317 200.122458,140.764652 199.954051,141.803655 L199.437742,145.366374 L191.1946,145.366374 L191.586283,142.605267 L185.800061,142.605267 L185.034499,148.091853 L194.93339,148.091853 C195.9853,148.078279 196.98937,148.530802 197.676261,149.328035 C198.363151,150.125268 198.66255,151.185603 198.494143,152.224606 L198.369517,153.061845 L180.209679,153.061845 Z M189.307402,158.762194 L189.877122,154.736323 L198.120264,154.736323 L197.443721,159.599433 C197.123253,161.879573 194.096614,163.732186 191.817732,163.732186 L178.714163,163.732186 C177.662254,163.745761 176.658183,163.293237 175.971293,162.496004 C175.284402,161.698772 174.985004,160.638436 175.153411,159.599433 L175.705327,155.733884 L183.948469,155.733884 L183.521179,158.762194 L189.307402,158.762194 Z" id="Shape" fill="#003595"></path>
                        <path d="M21.8274122,137.56402 L3.68537874,137.56402 L2.99103202,142.551826 L17.0203965,142.551826 L16.2014234,148.305616 L12.0887544,148.305616 L11.447819,152.865896 L15.560488,152.865896 L14.7237112,158.762194 L8.90188101,158.762194 L10.9493136,144.190677 L2.74177935,144.190677 L0,163.732186 L18.1420335,163.732186 C20.5002427,163.661105 22.4778239,161.928833 22.8600304,159.599433 L23.5543772,154.718509 C23.8472949,152.879853 22.6758414,151.125583 20.8660091,150.692637 C22.8408969,150.247478 24.3482056,148.647722 24.6760142,146.648952 L25.3881647,141.696774 C25.5565716,140.657771 25.2571732,139.597435 24.5702827,138.800203 C23.8833923,138.00297 22.8793216,137.550446 21.8274122,137.56402 Z" id="Path" fill="#003595"></path>
                        <polygon id="Path" fill="#4197CB" points="33.6491102 124.079132 32.4740619 132.415893 29.554245 132.415893 26.1003151 128.621598 25.5662023 132.415893 22.0944687 132.415893 23.269517 124.079132 26.1893339 124.079132 29.6610675 127.855613 30.1951804 124.079132"></polygon>
                        <polygon id="Path" fill="#4197CB" points="48.0701575 130.296075 47.7674935 132.415893 39.0258464 132.415893 40.2008947 124.079132 48.7645042 124.079132 48.4618402 126.198949 43.3877681 126.198949 43.2631417 127.178697 47.7140822 127.178697 47.429222 129.191632 42.9782815 129.191632 42.8180477 130.296075"></polygon>
                        <polygon id="Path" fill="#4197CB" points="71.6601422 124.079132 67.1201829 132.415893 63.3101778 132.415893 62.2419521 127.962495 59.8206404 132.415893 56.0284391 132.415893 53.8207726 124.079132 57.4883476 124.079132 58.6455921 128.817547 61.2627451 124.079132 64.5208336 124.079132 65.6780781 128.870988 68.2952311 124.079132"></polygon>
                        <path d="M82.1821655,132.041807 C81.4036817,131.732332 80.7387856,131.191417 80.277163,130.492025 C79.8723516,129.838164 79.7144887,129.06105 79.8320689,128.300953 C79.9475288,127.456631 80.327787,126.670746 80.9180984,126.05644 C81.5565327,125.356048 82.3575569,124.823777 83.2503912,124.506658 C84.2493699,124.119799 85.3127102,123.926358 86.3838534,123.936623 C87.4036288,123.919271 88.4159508,124.113356 89.3570816,124.506658 C90.1332604,124.820053 90.7970961,125.360105 91.2620842,126.05644 C91.6706809,126.728554 91.8283545,127.523668 91.7071782,128.300953 C91.5836679,129.142819 91.204542,129.926364 90.6211487,130.545465 C89.971275,131.232383 89.1737146,131.762353 88.2888559,132.095248 C87.2889539,132.478817 86.2262438,132.672144 85.1553938,132.665283 C84.1314763,132.66945 83.1182462,132.456979 82.1821655,132.041807 Z M86.7043211,130.082312 C87.0710612,129.923342 87.394564,129.679054 87.6479205,129.369768 C87.9045482,129.065265 88.0710408,128.695077 88.128622,128.300953 C88.1948231,127.925136 88.1386543,127.537982 87.9683882,127.19651 C87.7977608,126.883702 87.537286,126.629289 87.2206302,126.466153 C86.8587797,126.296278 86.4630458,126.210996 86.0633856,126.216763 C85.6411925,126.215267 85.2231494,126.300134 84.8349261,126.466153 C84.4591187,126.626473 84.1288255,126.877389 83.8735229,127.19651 C83.6197085,127.514503 83.4594211,127.896938 83.4106251,128.300953 C83.3332527,128.676519 83.3899537,129.067342 83.570859,129.405396 C83.7357653,129.718156 83.9983614,129.968386 84.318617,130.117939 C84.6754145,130.303925 85.0736901,130.395886 85.4758615,130.385143 C85.903018,130.378842 86.3231294,130.275279 86.7043211,130.082312 Z" id="Shape" fill="#4197CB"></path>
                        <path d="M101.481444,130.313889 L100.52004,130.313889 L100.217376,132.415893 L96.6566241,132.415893 L97.8316724,124.079132 L102.905745,124.079132 C103.746094,124.059264 104.58349,124.185847 105.380467,124.453217 C105.991842,124.646278 106.523311,125.034152 106.893787,125.55766 C107.227878,126.040558 107.35601,126.636698 107.249862,127.214324 C107.17468,127.799887 106.919617,128.347641 106.519908,128.78192 C106.07221,129.257538 105.51644,129.618071 104.899766,129.832922 L106.680142,132.415893 L102.923548,132.415893 L101.481444,130.313889 Z M103.386446,126.519594 C103.072569,126.323463 102.70541,126.230066 102.336024,126.25239 L101.03635,126.25239 L100.769293,128.211885 L102.051164,128.211885 C102.472015,128.241358 102.892417,128.148571 103.26182,127.944681 C103.522965,127.788266 103.694661,127.517364 103.724718,127.214324 C103.762968,126.935576 103.629404,126.661268 103.386446,126.519594 L103.386446,126.519594 Z" id="Shape" fill="#4197CB"></path>
                        <polygon id="Path" fill="#4197CB" points="113.783843 124.079132 117.344596 124.079132 116.490015 130.224821 121.243619 130.224821 120.923152 132.415893 112.608795 132.415893"></polygon>
                        <polygon id="Path" fill="#4197CB" points="135.094946 130.296075 134.810086 132.415893 126.050635 132.415893 127.225683 124.079132 135.771489 124.079132 135.486629 126.198949 130.412557 126.198949 130.270127 127.178697 134.721067 127.178697 134.436207 129.191632 129.967463 129.191632 129.825033 130.296075"></polygon>
                        <path d="M148.056085,130.955178 L144.050239,130.955178 L143.142247,132.415893 L139.581494,132.415893 L145.349913,124.079132 L148.910666,124.079132 L152.328988,132.415893 L148.55459,132.415893 L148.056085,130.955178 Z M147.361738,128.942242 L146.631784,126.840238 L145.314306,128.942242 L147.361738,128.942242 Z" id="Shape" fill="#4197CB"></path>
                        <polygon id="Path" fill="#4197CB" points="168.868683 124.079132 167.693635 132.415893 164.773818 132.415893 161.213065 128.621598 160.678952 132.415893 157.314041 132.415893 158.453482 124.079132 161.373299 124.079132 164.827229 127.855613 165.361342 124.079132"></polygon>
                        <path d="M175.990188,132.362452 C175.308463,132.25988 174.647393,132.049424 174.031774,131.738976 L175.473879,129.690413 C175.981688,129.943493 176.520356,130.129136 177.076217,130.242634 C177.659316,130.3831 178.256835,130.454842 178.856593,130.456397 C179.215884,130.469995 179.575334,130.43403 179.924819,130.349516 C180.138464,130.349516 180.263091,130.153566 180.280894,130.011058 C180.298698,129.868549 180.280894,129.708227 179.924819,129.619159 C179.494213,129.488171 179.053568,129.392844 178.607341,129.334141 C177.940317,129.22525 177.280399,129.076538 176.631123,128.888801 C176.137992,128.752557 175.689621,128.488303 175.331448,128.122817 C174.970408,127.74328 174.81751,127.21117 174.921962,126.69773 C175.016825,126.152509 175.285375,125.652605 175.687524,125.272642 C176.193971,124.800236 176.803586,124.452563 177.4679,124.257268 C178.357238,123.992595 179.281985,123.866424 180.209679,123.883182 C180.913555,123.887139 181.61602,123.946703 182.310523,124.061318 C182.925037,124.168891 183.523325,124.354463 184.090899,124.613539 L182.737813,126.644289 C181.8394,126.248276 180.870823,126.036283 179.889212,126.020813 C178.975285,126.020813 178.494584,126.198949 178.447107,126.555221 C178.447107,126.715543 178.553929,126.840238 178.803182,126.929306 C179.228619,127.0528 179.663222,127.142152 180.102857,127.19651 C180.769653,127.290782 181.42974,127.427632 182.079074,127.606223 C182.55964,127.735454 183.004234,127.973108 183.378749,128.300953 C183.737504,128.689008 183.889633,129.225066 183.788235,129.743854 C183.68979,130.287829 183.421808,130.786676 183.022674,131.168941 C182.510069,131.628855 181.902065,131.969525 181.242297,132.166502 C180.354024,132.43776 179.429171,132.569955 178.500518,132.558401 C177.659332,132.576019 176.818466,132.510383 175.990188,132.362452 Z" id="Path" fill="#4197CB"></path>
                    </g>
                </g>
            </g>
        </g>
    </g>
</svg>