<?xml version="1.0" encoding="UTF-8"?>
<svg width="200px" height="159px" viewBox="0 0 200 159" version="1.1" xmlns="http://www.w3.org/2000/svg" xmlns:xlink="http://www.w3.org/1999/xlink">
    <title>D9E33DC1-EDDD-4DF3-9043-AB91122F2F2F@0.5x</title>
    <g id="Final-Designs" stroke="none" stroke-width="1" fill="none" fill-rule="evenodd">
        <g id="Assets" transform="translate(-147.000000, -8061.000000)" fill-rule="nonzero">
            <g id="Team-Logos" transform="translate(139.500000, 7908.000000)">
                <g id="Group" transform="translate(7.500000, 133.000000)">
                    <g id="Bandits" transform="translate(0.000000, 20.750000)">
                        <path d="M179.866232,17.5708983 L181.992797,13.7274882 L158.17184,14.0534918 L157.983193,14.4996018 L164.345738,15.2373993 L158.120391,15.2373993 L155.462185,21.5000987 L161.79043,21.5000987 L149.905677,52.5047501 L150.505917,52.5047501 L154.141657,44.8865624 L151.757846,52.1444304 L157.005659,52.1444304 L170.93123,21.3799921 L174.927114,21.3799921 C173.745953,22.5043937 172.857017,23.9002925 172.337506,25.4464572 C170.451038,32.018002 182.267193,42.0726372 173.572286,45.2640401 C171.857314,45.8988891 164.894529,45.9846795 162.716515,44.5605588 L163.145258,45.3841467 C164.945978,46.7739512 169.233408,47.1857451 170.982679,47.0999547 C168.839613,47.6520162 166.591702,47.6520162 164.448637,47.0999547 L166.352255,51.6983203 C171.874464,53.1567571 176.899331,52.5905405 180.569371,50.136935 C186.143029,46.4307896 185.954382,40.8887296 183.896416,35.3638277 C182.387241,31.3659949 181.409707,29.6501869 182.181444,27.9000627 C183.570571,24.4684466 190.104613,23.284539 193.31161,23.6791749 L198.16498,14.7741311 C194.667213,14.6389663 191.175561,15.1687918 187.87515,16.3355165 C191.537244,14.7047604 195.511984,13.89654 199.519808,13.9677014 L200,13.1441135 C192.994389,12.5282438 185.968252,14.0730714 179.866232,17.5708983 L179.866232,17.5708983 Z" id="Path" fill="#C10230"></path>
                        <polygon id="Path" fill="#C10230" points="149.288287 14.2250726 145.841194 22.2893704 148.327903 13.8132786 147.556165 13.8304367 133.3219 52.0243238 140.233236 52.05864 156.868462 14.1221241"></polygon>
                        <polygon id="Path" fill="#C10230" points="109.346596 14.7912892 105.419311 23.061484 108.266164 14.2937049 107.425827 14.2937049 98.6966215 37.4399554 100.102898 14.9113958 91.3050935 15.0315023 77.5510204 52.1101142 78.4085063 52.1101142 81.9584977 43.3594932 79.5918367 51.629688 83.999314 51.6640041 91.9053336 33.3391742 90.8249014 51.7154784 99.2625622 51.7841107 116.806723 14.6883407"></polygon>
                        <path d="M139.530098,27.4539526 C141.433716,15.8722483 129.960556,12.6980034 119.190533,14.5682342 L116.240782,20.9681982 C118.785111,20.2676663 121.44242,20.0752673 124.061053,20.4019815 C120.974351,20.4703309 117.920323,21.0501255 115.023152,22.1177896 L114.611559,22.9928517 C115.997123,22.5613355 117.413089,22.2344147 118.847539,22.0148411 L107.082833,50.1026188 C110.515803,50.5716167 114.006283,50.3911873 117.372663,49.5707183 C113.737802,50.919226 109.840049,51.4066827 105.985251,50.994839 L105.590808,51.9042173 C120.048019,53.8430804 136.923341,43.4281255 139.530098,27.4539526 Z M130.818042,30.1306132 C128.578277,36.2875195 123.779604,41.1699059 117.664209,43.5139159 L127.353799,22.4781093 C130.337849,23.2502229 132.498714,25.1719279 130.818042,30.1820874 L130.818042,30.1306132 Z" id="Shape" fill="#C10230"></path>
                        <path d="M83.4333733,15.1859251 L74.3097239,15.2888735 L69.0447608,22.3065285 L73.1778426,14.6197084 L72.2860573,14.6197084 L59.3551706,36.5820514 L56.8684617,36.6849999 C54.6643508,34.1020573 51.746957,32.227807 48.48225,31.2973626 C60.727148,27.6598496 63.9169954,20.5392462 63.7969474,15.5634028 C63.6768993,12.0116802 61.1558909,9.47228427 57.1085577,7.72216006 L56.4911679,7.96237319 C58.430098,9.08355681 60.0117997,10.7314705 61.0529926,12.7151615 C56.97136,7.91089895 51.9464929,6.14361666 44.5892643,5.42297728 C32.0588876,4.63416245 19.4819909,5.79175492 7.30577945,8.85459337 L7.70022295,9.31786155 C13.6101699,8.57924948 19.5632493,8.2410368 25.5187789,8.3055348 C20.2289354,8.57892237 14.9697694,9.27895633 9.79248842,10.3988206 L16.3951295,18.3944861 C20.631998,16.8496436 24.9922288,15.6672153 29.4289144,14.8599215 L11.4903104,54.5980359 C7.83742068,54.8897233 3.99588407,55.0613041 0,55.1299364 L1.32052821,55.9535243 C6.1857492,56.3569054 11.0708888,56.4657716 15.9492368,56.2795278 C14.54296,56.9486929 7.47727662,57.3776449 4.59612416,57.3604869 L14.8859544,64.5840387 C34.5566798,62.8682307 47.5904648,57.7208065 54.0387584,51.4581072 L57.5544504,51.4581072 L63.453953,41.9696887 L69.456354,41.9696887 L67.3469388,51.4924233 L74.2068256,51.4924233 L76.6420854,42.0211629 L78.6143029,42.0211629 L80.7923169,37.7488009 L70.5024867,37.7488009 L81.8898988,36.7879484 L82.5415881,35.5525666 L78.0826616,35.7413055 L83.4333733,15.1859251 Z M42.5312982,13.470117 C48.4993998,13.470117 52.6324816,14.6883407 52.3066369,17.4164755 C51.7235466,22.4609512 46.8015778,25.3606668 35.4484651,26.9735263 L42.5312982,13.470117 Z M21.6257932,53.4484445 L31.4182816,34.7289787 C35.2340564,34.0568668 39.157871,34.363841 42.8228434,35.6211989 C39.5349871,34.8536285 36.1101611,34.8948407 32.8417081,35.7413055 L33.5619962,36.7193161 C40.1474876,35.8099378 45.7211456,38.2120691 46.5957812,42.0897952 C47.573315,46.4479477 37.57503,51.0291552 21.6257932,53.4484445 Z M70.7425827,36.0329928 L66.8838964,36.2560479 L72.8519979,26.4931001 L70.7425827,36.0329928 Z" id="Shape" fill="#C10230"></path>
                        <polygon id="Path" fill="#000000" points="77.3623735 2.30020664 78.305608 0.00102385332 68.4445207 0.00102385332 67.5012862 2.30020664 70.8111816 2.30020664 67.5527354 10.2100817 70.7940319 10.2100817 74.0524781 2.30020664"></polygon>
                        <path d="M103.429943,0.00102385332 L97.4961413,6.21224898 L96.6215057,0.00102385332 L92.8314183,0.00102385332 L88.6297376,10.2958721 L91.7852855,10.2958721 L93.997599,4.80528638 C93.997599,5.35434496 94.3405934,8.08247975 94.5635397,10.2100817 L97.393243,10.2100817 L102.41811,4.80528638 L100.205797,10.2958721 L103.429943,10.2958721 L107.631624,0.00102385332 L103.429943,0.00102385332 Z" id="Path" fill="#000000"></path>
                        <path d="M120.356714,1.04766676 C120.336822,0.846979853 120.259403,0.65631597 120.133768,0.498608187 C119.984098,0.342142474 119.802874,0.219318114 119.602127,0.138288497 C119.349219,0.0466978395 119.082205,0.000237840793 118.81324,0.00101404467 L111.113017,0.00101404467 L106.911336,10.2958721 L110.152632,10.2958721 L111.353113,7.36184037 L115.812039,7.36184037 C116.119801,7.35709593 116.425524,7.31092653 116.720974,7.22457573 C117.00958,7.14001203 117.286212,7.01892639 117.544161,6.86425604 C117.798363,6.71568657 118.029473,6.53070829 118.230149,6.31519747 C118.42231,6.13110329 118.574149,5.90907662 118.676042,5.66319041 L120.270966,1.7168319 C120.360182,1.50582128 120.389841,1.27437006 120.356714,1.04766676 Z M115.829189,4.90823487 L112.227748,4.90823487 L113.291031,2.31736472 L116.875322,2.31736472 L115.829189,4.90823487 Z" id="Shape" fill="#000000"></path>
                        <path d="M147.590465,5.14844799 C147.923729,4.98525751 148.225614,4.76454139 148.48225,4.49644094 C148.678486,4.30909785 148.83077,4.08056011 148.928143,3.8272758 L149.819928,1.7168319 C149.911081,1.51237301 149.94658,1.28743585 149.922826,1.06482484 C149.889741,0.864657936 149.807212,0.675927606 149.68273,0.515766267 C149.549717,0.358861469 149.386384,0.230466078 149.202538,0.138288497 C148.933841,0.0389461669 148.648527,-0.00765849403 148.362202,0.00102385332 L140.370434,0.00102385332 L136.168753,10.2958721 L144.417767,10.2958721 C144.71999,10.2921638 145.020191,10.2459565 145.309552,10.1586075 C145.599367,10.0625512 145.880492,9.9420103 146.149889,9.7982878 C146.40029,9.64424555 146.630699,9.45982787 146.835877,9.24922923 C147.026682,9.05738348 147.178154,8.83006416 147.28177,8.58006409 L148.053507,6.69267524 C148.152182,6.48439714 148.187944,6.25183087 148.156405,6.0235101 C148.1303,5.82647275 148.046797,5.64148337 147.916309,5.4916096 C147.850573,5.34300096 147.735437,5.22174632 147.590465,5.14844799 L147.590465,5.14844799 Z M142.668496,2.31736472 L146.441434,2.31736472 L145.755445,4.03317276 L141.982507,4.03317276 L142.668496,2.31736472 Z M144.383468,7.82510855 L140.387584,7.82510855 L141.125021,6.1093005 L145.155205,6.1093005 L144.383468,7.82510855 Z" id="Shape" fill="#000000"></path>
                        <path d="M83.6563197,10.2958721 L86.7775682,10.2958721 L86.7775682,0.0868142557 L82.6787858,0.0868142557 L74.3783228,10.2958721 L77.8082662,10.2958721 L79.4203396,8.3055348 L83.7420683,8.3055348 L83.6563197,10.2958721 Z M81.0152632,6.17793282 L83.7249185,2.84926521 L83.7249185,6.17793282 L81.0152632,6.17793282 Z" id="Shape" fill="#000000"></path>
                        <path d="M126.907906,10.2958721 L130.012005,10.2958721 L130.132053,0.00102385332 L125.947522,0.00102385332 L117.629909,10.2958721 L121.059853,10.2958721 L122.671926,8.3055348 L126.907906,8.3055348 L126.907906,10.2958721 Z M124.26685,6.17793282 L126.993655,2.84926521 L126.907906,6.17793282 L124.26685,6.17793282 Z" id="Shape" fill="#000000"></path>
                        <path d="M157.640199,10.2958721 L160.761447,10.2958721 L160.847196,0.00102385332 L156.662665,0.00102385332 L148.362202,10.2958721 L151.792145,10.2958721 L153.404219,8.3055348 L157.725948,8.3055348 L157.640199,10.2958721 Z M154.999143,6.17793282 L157.777397,2.84926521 L157.777397,6.17793282 L154.999143,6.17793282 Z" id="Shape" fill="#000000"></path>
                        <polygon id="Path" fill="#000000" points="172.954896 0.00102385332 168.547419 4.35917629 167.689933 0.00102385332 164.311439 0.00102385332 165.752015 6.84709796 164.362888 10.2100817 168.050077 10.2100817 169.439204 6.84709796 176.522037 0.00102385332"></polygon>
                        <path d="M82.3186417,62.1990655 L50.5916652,60.8607353 L53.5928657,59.1449272 L69.2162579,58.7502914 L56.5940662,58.3384974 L58.7377808,57.171748 L105.042017,56.2966859 L104.664723,57.3604869 C100.771737,57.7036485 98.7823701,58.3041813 97.8048362,59.4366146 C95.2323787,58.4757621 90.4133082,57.3604869 88.9555822,61.3240034 L86.6746699,61.238213 C85.7345336,61.13765 84.7838782,61.2550721 83.8964157,61.5813746 C83.5534214,61.650007 82.970331,61.873062 82.3186417,62.1990655 Z" id="Path" fill="#C10230"></path>
                        <path d="M117.304064,63.6918185 L117.406963,63.0741276 C121.848739,62.0274847 122.791974,59.4537727 122.997771,58.2698651 C123.114219,57.4658869 123.025732,56.6455049 122.740525,55.8848919 L192.076831,54.5808778 L187.549305,57.3433288 L162.116275,58.1154424 L182.027097,59.093453 L170.776882,65.9566852 L117.304064,63.6918185 Z" id="Path" fill="#C10230"></path>
                        <path d="M115.280398,68.3759745 C116.261539,66.9658516 116.949695,65.3729858 117.304064,63.6918185 L117.406963,63.0741276 C121.848739,62.0274847 122.791974,59.4537727 122.997771,58.2698651 C123.114219,57.4658869 123.025732,56.6455049 122.740525,55.8848919 C122.242909,54.4874014 120.976432,53.5085877 119.499228,53.3798122 C118.74072,54.4918539 117.638052,55.3237798 116.36083,55.7476273 L115.280398,53.345496 C113.594054,52.4867178 111.59888,52.4867178 109.912536,53.345496 C108.695559,53.927018 107.318995,54.0840712 106.002401,53.7916061 L105.127765,56.1765793 L104.750472,57.2403803 C100.857486,57.5835419 98.8681187,58.1840747 97.8905848,59.316508 C95.3181273,58.3556555 90.4990568,57.2403803 89.0413308,61.2038969 L86.7604185,61.1181065 C85.8202822,61.0175434 84.8696268,61.1349655 83.9821643,61.4612681 C83.6048705,61.5985327 83.0217801,61.8215878 82.2671926,62.1475913 C80.725652,62.8199108 79.2303489,63.5937206 77.7911164,64.4639322" id="Path" fill="#FFFFFF"></path>
                        <path d="M77.7911164,64.5154064 L77.0193792,63.9491898 C75.2487062,65.3303409 73.5807836,66.8385112 72.0288115,68.4617649 C67.0382439,66.128266 60.6071,67.8955483 55.3592866,69.336827 C51.8264449,70.2976795 47.8477105,71.3957967 46.7844281,70.3663118 C46.2191101,69.8517505 45.8955777,69.1234477 45.8926428,68.3588164 C45.8926428,65.4247847 49.9056766,59.5910373 53.7300635,55.9192081 C38.7755102,60.4832575 36.7346939,70.0746245 39.0499057,74.3126704 C41.8281598,79.4600945 48.8766935,78.8424036 54.244555,76.148585 C60.7785972,72.8885497 65.2032241,72.7169689 67.9643286,73.1459209 L67.1582919,74.2097219 L66.8838964,77.0922794 C67.1239925,78.1389223 67.9300292,79.563043 71.9087635,81.2102187 C73.3198376,81.1264063 74.600756,80.3574804 75.3387069,79.151249 C75.6432071,79.0539654 75.9278176,78.902874 76.179043,78.705139 C77.0956066,77.9252839 77.6685435,76.8158331 77.7739667,75.6166845 L83.4162236,72.3566492 L83.2790259,71.9620133 C84.4514455,71.5727459 85.6569241,71.2913304 86.8804665,71.1212674 L90.2075116,71.2928482 C89.4872235,72.2193845 88.664037,73.1459209 87.8580003,74.0552991 C86.1171224,75.7984374 84.6486369,77.7940065 83.5019722,79.9748369 C82.1299949,79.9748369 79.9176814,79.9748369 79.8662322,79.9748369 C79.5959217,80.8189159 79.4458158,81.6968862 79.4203396,82.5828651 C76.8307323,82.4284424 74.2754245,82.2568616 71.6858172,82.0338066 C69.1490346,81.783739 66.5909213,81.8529109 64.0713428,82.2397035 C48.002058,78.3448193 40.3704339,82.119597 33.6134454,85.4482646 C29.0344709,87.7131312 23.4779626,90.5956887 14.4400617,87.9361862 C29.3603156,106.363965 43.5945807,99.9468426 51.3462528,95.6058482 C51.1158726,98.7655171 51.9754316,101.908677 53.7815126,104.510892 C55.2309084,106.664012 57.0410796,108.550527 59.1322243,110.087268 C56.3639086,111.734687 53.3877641,113.004205 50.2829703,113.862046 L47.6076145,120.982649 C48.7394958,121.686131 57.331504,127.845881 60.3155548,134.897852 L59.4923684,136.733767 L66.8838964,147.749255 C68.9183872,142.712865 70.0056224,137.343841 70.0908935,131.912346 L61.4302864,121.617498 C62.6664112,121.18923 63.8749099,120.684966 65.0488767,120.107587 C64.8020612,120.698221 64.5155781,121.271466 64.1913908,121.823395 L67.87858,125.066272 C71.8933232,126.341362 75.6295414,128.367589 78.8886983,131.037284 L78.8886983,133.834051 L87.4635569,137.746094 C89.0756303,133.593838 87.7208026,128.171885 85.7485851,123.899523 L76.2819413,119.627161 C79.2928902,116.633866 81.5652842,112.979814 82.9188818,108.954835 C88.8238482,110.033276 94.6461161,111.523953 100.342994,113.415936 C100.154347,115.595012 99.8971017,118.220198 99.4340593,121.428759 C98.18213,130.0078 90.0188647,138.981476 88.9727319,139.719273 L89.2642771,140.937497 L85.2169439,142.653305 L88.6468873,158.25 C91.939633,153.102576 111.284514,122.218031 114.371463,117.499559 C116.257932,117.859879 118.898988,118.20304 121.23135,118.477569 C119.15126,120.901959 116.751155,123.031936 114.097067,124.808901 L114.199966,125.88986 L111.387412,126.661974 L104.784771,137.265668 C109.466644,138.31231 116.137884,135.54986 118.79609,133.696787 L134.110787,117.39661 L132.601612,110.739275 L124.764191,106.14091 C126.518058,102.665113 127.038165,98.6958564 126.239067,94.8852088 C128.268318,91.7048144 131.063482,89.0852824 134.368033,87.2670211 C136.219131,87.8781957 138.126433,88.3035247 140.061739,88.5367191 C142.702795,88.948513 145.206654,88.9999872 144.554965,91.4192766 L145.532499,92.2257064 L155.342137,89.2230423 L158.000343,82.7544459 L157.091408,81.9308581 L152.958326,78.1389223 C150.540216,75.8912138 148.190705,73.7292956 146.510033,72.2537007 L149.09964,70.8467381 C137.849425,62.6623337 120.133768,66.2655306 117.098268,67.9641806 L118.333048,68.907875 C116.806723,68.7191361 115.331847,68.4274488 115.314697,68.4274488" id="Path" fill="#FFFFFF"></path>
                        <path d="M143.440233,71.9105391 L145.772595,70.6236831 C134.196536,65.064465 120.61396,68.4446068 120.61396,68.4446068 L124.541245,70.8467381 C121.332885,70.9693736 118.121201,70.7159991 114.971703,70.0917826 C114.929557,70.9071079 115.088579,71.7202834 115.434745,72.4595977 L112.519293,69.0279816 C114.312791,67.249404 115.449553,64.9142764 115.74344,62.4049625 L114.199966,62.4049625 L114.56011,61.7701135 C122.877723,61.1867388 121.917338,56.0907889 120.099468,55.3015172 C120.099468,55.3015172 119.276282,56.8629025 115.434745,57.8923873 L114.011319,54.7181425 C111.610358,53.75729 110.135483,55.9535243 107.151432,55.7133111 L105.968102,58.9561883 C100.463042,59.3508242 98.3707769,60.157254 98.8166695,61.7872716 C96.8787515,60.5347317 92.3683759,59.5052469 91.3050935,60.809261 C92.6004742,61.3747868 93.76742,62.1978847 94.7350369,63.2285504 L86.5203224,62.936863 C85.8250408,62.8445378 85.1177221,62.9270985 84.4623564,63.1770761 C82.0610404,64.0754206 79.7615844,65.2257092 77.6024696,66.6086922 L76.9507803,66.128266 C75.2802971,67.5258964 73.6993978,69.0273371 72.2174584,70.6236831 C64.122792,65.3389943 49.4769336,75.4107875 45.4124507,71.6360098 C40.6962785,67.2263831 49.0996399,58.9561883 49.0996399,58.9561883 C32.9274567,68.5990296 39.9073915,81.2616929 53.2841708,74.6043577 C62.7165152,69.8858856 68.2730235,71.1727416 70.7082833,72.2880169 C70.0222946,73.0772886 69.3191562,73.9180345 68.6331676,74.8274128 L68.5988681,76.9206986 C68.5988681,76.9206986 68.8561139,78.0531319 72.0288115,79.4257783 C72.6525024,79.2846877 73.1986068,78.9102089 73.5551363,78.3791354 L72.2174584,78.07029 C72.1888726,76.8293506 73.0973214,75.7652821 74.3268736,75.5995264 L74.3268736,77.5383895 C74.3268736,77.5383895 75.7674498,77.8300769 76.0418453,74.5528835 L81.1867604,71.5845356 L80.9466644,70.9325285 C82.7906768,70.1649625 84.7283675,69.6456851 86.7089693,69.3883013 L93.2087121,69.7314629 C91.1335963,73.8322441 85.4398902,78.0359738 84.6338535,81.7421192 C82.6616361,81.7421192 81.2039101,81.7421192 81.2039101,81.7421192 C81.031326,82.6594741 81.1022865,83.6060751 81.4097067,84.4874121 C78.5114046,84.3501474 75.0814612,84.1270924 71.4971703,83.835405 C68.9939789,83.5751444 66.4670634,83.6559528 63.9855942,84.0756181 C36.9233408,77.3839668 34.5909792,93.0321361 18.607443,90.441266 C34.5738295,105.180057 45.8068942,96.4980684 53.9701595,92.2600225 C53.7986623,92.6546584 53.6443149,93.0836104 53.5071171,93.5125624 C51.1061567,100.993485 57.5373006,107.496398 62.0819756,110.07011 C58.9105836,112.488105 55.2991887,114.265544 51.4491511,115.303325 L49.5455325,120.450749 C49.5455325,120.450749 57.5201509,125.872702 60.9843938,132.718776 L63.2824558,132.272666 L61.395987,136.562186 L66.3865546,144.1289 C67.5165632,140.359915 68.1620157,136.462248 68.3073229,132.530037 L58.240439,120.519381 C61.4076928,119.675752 64.4950057,118.556199 67.4669868,117.173555 C67.4355485,118.656709 67.0472925,120.110436 66.3351055,121.411601 L68.7532156,123.539203 C72.4646512,124.767931 75.9431079,126.612413 79.0430458,128.995473 L80.5865203,128.171885 L80.5865203,132.701618 L86.2116275,135.309646 C86.5017315,131.821486 85.83152,128.320444 84.2737095,125.186379 L73.1778426,120.107587 C79.0430458,114.617001 80.9466644,109.812739 81.5297548,106.895865 C88.5227998,108.082296 95.4060487,109.844119 102.109415,112.163396 C101.903619,114.582685 101.612073,117.653982 101.080432,121.60034 C99.7770537,131.208865 90.790602,139.993802 90.790602,139.993802 L91.2364946,141.898349 L87.1548619,143.614157 L89.3500257,153.720267 C91.0649974,150.940658 111.113017,119.112418 113.513977,115.474905 C117.223967,116.176024 120.967553,116.68572 124.729892,117.001975 C122.200282,120.24222 119.246975,123.127716 115.949237,125.581015 L116.103584,126.987977 L116.103584,126.987977 L112.553593,127.965988 L107.803121,135.669966 C111.33964,135.312325 114.744759,134.137574 117.749957,132.23835 L132.292917,116.796078 L131.143886,111.785918 L122.569028,106.638494 C124.874472,103.022473 125.587931,98.6154934 124.541245,94.4562568 C126.896821,90.5219029 130.299031,87.3200084 134.368033,85.2080515 C139.358601,87.4214438 146.68153,86.168904 146.372835,90.0637882 L154.227405,87.7131312 L156.096724,83.1147656 C151.363403,79.0311425 145.052307,73.0601305 143.440233,71.9105391 Z M108.043217,77.641338 C109.493896,77.6850867 110.905137,78.1240899 112.12485,78.9110359 C109.518093,79.9405207 105.264963,81.2102187 101.83502,82.1024389 L108.043217,77.641338 Z" id="Shape" fill="#000000"></path>
                        <path d="M113.188132,58.3384974 L112.502144,56.4682667 C111.17763,56.8903488 110.031222,57.7415188 109.243697,58.887556 C110.572334,58.823548 111.892493,58.6397842 113.188132,58.3384974 L113.188132,58.3384974 Z" id="Path" fill="#A2A9AD"></path>
                        <path d="M101.955068,64.3438256 C99.7184858,63.3579032 97.4282387,62.4986417 95.0951809,61.7701135 C96.7758532,62.5937014 97.4275424,65.5277332 101.955068,64.3438256 Z" id="Path" fill="#C10230"></path>
                        <path d="M107.87172,60.0543055 C114.337163,61.0494742 119.602127,59.8998828 119.293432,57.9095454 C119.293432,57.9781778 116.257932,59.8484085 107.87172,60.0543055 Z" id="Path" fill="#A2A9AD"></path>
                        <path d="M110.495627,68.4446068 C110.495627,68.4446068 113.428228,65.9566852 113.685474,63.9320317 C110.66842,64.2834076 107.618328,64.2372589 104.613274,63.794767 C106.328246,65.9910013 109.415195,66.2312145 110.495627,68.4446068 Z" id="Path" fill="#C10230"></path>
                        <path d="M123.083519,74.878887 C125.278683,74.0038249 127.26805,73.163079 128.948722,72.4252815 C125.216462,72.9424158 121.430769,72.9424158 117.698508,72.4252815 C117.698508,72.4252815 118.504545,73.9523507 123.083519,74.878887 Z" id="Path" fill="#C10230"></path>
                        <path d="M133.870691,70.2118891 C131.566133,69.6868619 129.193812,69.5247706 126.839307,69.7314629 C128.270104,70.0818259 129.613031,70.7244087 130.783742,71.6188517 L133.870691,70.2118891 Z" id="Path" fill="#C10230"></path>
                        <path d="M120.253816,75.9941622 C117.558867,75.0705851 114.628655,75.1008706 111.953353,76.0799526 C113.404505,76.4363811 114.821858,76.918631 116.189333,77.5212314 C117.57846,77.0236471 118.933288,76.5089047 120.253816,75.9941622 Z" id="Path" fill="#C10230"></path>
                        <path d="M148.396501,86.3233267 C148.225004,83.3892949 145.686846,84.7276252 139.821643,83.2520303 C135.688561,82.1882293 134.985423,79.6831495 135.002572,78.1046061 C127.744828,81.7468196 121.437697,87.0347026 116.583776,93.5468786 C116.583776,93.5468786 119.344881,96.0176421 115.434745,103.103929 L104.904819,120.725278 C106.141023,114.004175 106.681237,107.173453 106.516892,100.341478 C105.074553,101.242156 103.774102,102.352415 102.658206,103.63583 C104.116819,98.9858682 106.205663,94.5579005 108.866404,90.4755822 C107.040328,88.681094 105.041217,87.0718297 102.898302,85.6713196 C113.618731,82.5850281 123.939368,78.2485924 133.647745,72.751285 C133.914326,73.1307717 134.291723,73.4184529 134.728177,73.5748729 C134.516522,72.3068788 134.665077,71.0049002 135.15692,69.8172533 L137.780827,72.7856012 L139.032756,72.1164361 C144.104536,75.5197822 148.836847,79.4040076 153.164123,83.7152985 L152.220888,85.4311065 L152.220888,85.4311065 L148.396501,86.3233267 Z" id="Path" fill="#A2A9AD"></path>
                        <path d="M93.088664,89.4289392 L87.4464071,91.1447473 C86.4036264,90.4900106 85.4619066,89.6865572 84.6510033,88.7597741 C80.1906146,88.7337694 75.7355453,88.4473143 71.3085234,87.9018701 C63.8312468,86.9924918 57.8288458,91.1619054 57.7945464,96.3779618 C57.7945464,103.773095 72.2860573,105.368796 72.5261533,111.168227 C79.6775853,103.824569 76.7106843,96.8069138 75.4930544,94.6106795 L75.0643114,93.9243563 C77.6196193,94.6449957 79.4717887,97.2530239 80.6551192,99.4664163 C85.033158,99.718033 89.3555941,100.572549 93.5002572,102.005812 C94.8131841,98.4091362 96.8769434,95.1335872 99.5541074,92.3972872 L93.088664,89.4289392 Z" id="Path" fill="#A2A9AD"></path>
                        <path d="M143.405934,77.1094375 L141.365117,77.1094375 L141.365117,75.4965779 L141.365117,75.4965779 L139.770194,74.244038 C138.055222,78.8252455 145.258103,78.4477677 145.258103,78.4477677 L143.405934,77.1094375 Z" id="Path" fill="#000000"></path>
                        <polygon id="Path" fill="#C10230" points="143.405934 77.212386 141.365117 75.4965779 141.365117 77.212386"></polygon>
                        <path d="M41.8281598,90.235369 C40.7151343,91.6498668 39.1752748,92.6669105 37.4378323,93.1350846 C43.2687361,94.2675179 49.4426342,87.9876605 57.5716001,86.8723853 C44.2805694,83.4407692 41.7252615,90.441266 30.5779455,92.1742321 C34.4297279,92.4511967 38.2909946,91.7857456 41.8281598,90.235369 L41.8281598,90.235369 Z" id="Path" fill="#C10230"></path>
                    </g>
                </g>
            </g>
        </g>
    </g>
</svg>