<?xml version="1.0" encoding="UTF-8" standalone="no"?>
<svg
   width="200"
   height="71.996162"
   viewBox="0 0 200 71.996162"
   version="1.1"
   id="svg59"
   sodipodi:docname="SMALLLogos_USFL_Stallions.svg"
   inkscape:version="1.1.1 (3bf5ae0d25, 2021-09-20)"
   xmlns:inkscape="http://www.inkscape.org/namespaces/inkscape"
   xmlns:sodipodi="http://sodipodi.sourceforge.net/DTD/sodipodi-0.dtd"
   xmlns="http://www.w3.org/2000/svg"
   xmlns:svg="http://www.w3.org/2000/svg"
   xmlns:rdf="http://www.w3.org/1999/02/22-rdf-syntax-ns#"
   xmlns:cc="http://creativecommons.org/ns#"
   xmlns:dc="http://purl.org/dc/elements/1.1/">
  <defs
     id="defs63">
    <inkscape:path-effect
       effect="spiro"
       id="path-effect1381"
       is_visible="true"
       lpeversion="1" />
    <inkscape:path-effect
       effect="spiro"
       id="path-effect1199"
       is_visible="true"
       lpeversion="1" />
    <inkscape:path-effect
       effect="spiro"
       id="path-effect1195"
       is_visible="true"
       lpeversion="1" />
    <clipPath
       clipPathUnits="userSpaceOnUse"
       id="clipPath1076">
      <path
         id="path1078"
         style="fill:#ff0000;fill-opacity:1;fill-rule:nonzero;stroke:none"
         d="M 0,0.75 V 70.689453 C 0.33251053,70.651773 0.66572144,70.620493 0.99804688,70.580078 1.8209052,70.479326 2.6428889,70.359747 3.4628906,70.238281 3.7961349,70.187728 4.1282603,70.131242 4.4609375,70.078125 L 5.484375,61.228516 c 0.5705291,0.06598 1.1406268,0.133322 1.7109375,0.201172 1.1264662,0.133813 2.2517683,0.269801 3.3769535,0.414062 1.08598,0.139378 2.171746,0.282229 3.255859,0.435547 1.013239,0.143638 2.026077,0.292676 3.037109,0.451172 0.917254,0.144398 1.833213,0.294066 2.748047,0.453125 0.805556,0.139936 1.61018,0.284321 2.414063,0.433594 0.714211,0.132001 1.42792,0.266314 2.140625,0.40625 0.602098,0.117816 1.20435,0.238637 1.80664,0.355468 0.543625,0.10482 1.088286,0.206612 1.632813,0.306641 0.540834,0.09923 1.081872,0.197568 1.623047,0.294922 0.542708,0.09833 1.084885,0.198988 1.626953,0.300781 0.436495,0.08215 0.872463,0.164676 1.308594,0.248047 0.03256,-0.0019 0.06509,-0.004 0.09766,-0.0059 1.134008,-0.06338 2.269369,-0.111207 3.404297,-0.154297 1.201513,-0.04322 2.403604,-0.07582 3.605469,-0.107422 1.252743,-0.03327 2.506678,-0.05218 3.759765,-0.06641 1.279181,-0.02006 2.556761,-0.01885 3.835938,-0.002 1.325633,0.01893 2.651107,0.08203 3.974609,0.15625 1.274889,0.07452 2.548294,0.176579 3.820312,0.289063 0.603755,0.0552 1.205888,0.122239 1.808594,0.183594 0.07972,-0.07915 0.158683,-0.15908 0.238282,-0.238282 0.113033,-0.111926 0.223269,-0.223643 0.335937,-0.335937 0.197936,-0.199906 0.405019,-0.393008 0.613281,-0.582031 0.270929,-0.243735 0.555917,-0.470714 0.845703,-0.691407 0.249853,-0.187392 0.507306,-0.365576 0.765625,-0.541015 0.194315,-0.130978 0.387651,-0.259743 0.582032,-0.390625 0.182919,-0.123024 0.36665,-0.246978 0.548828,-0.371094 0.145867,-0.0979 0.289509,-0.199499 0.43164,-0.302734 0.03692,-0.02678 0.07275,-0.05491 0.109375,-0.08203 l -1.90625,-2.175781 c 0.240066,-0.209888 0.480829,-0.420158 0.728516,-0.621094 0.525064,-0.423497 1.060167,-0.833506 1.625,-1.203125 0.45647,-0.300452 0.918829,-0.591271 1.390625,-0.867187 0.37788,-0.224124 0.756926,-0.447098 1.136719,-0.667969 0.377702,-0.220675 0.754904,-0.443202 1.134765,-0.660156 0.391131,-0.223745 0.783616,-0.445615 1.177735,-0.664063 0.435837,-0.240399 0.872443,-0.477902 1.318359,-0.699218 0.418025,-0.208556 0.838631,-0.413467 1.263672,-0.607422 0.143191,-0.06537 0.287926,-0.127232 0.431641,-0.191406 0.04311,-0.0474 0.08584,-0.09516 0.128906,-0.142579 0.03349,-0.03688 0.06612,-0.07444 0.09961,-0.111328 l 0.113282,0.103516 c 0.146635,-0.06411 0.292056,-0.130966 0.439453,-0.193359 0.387205,-0.164187 0.775655,-0.325864 1.166015,-0.482422 0.361132,-0.144746 0.722825,-0.288025 1.085938,-0.427735 0.336663,-0.129998 0.6738,-0.258066 1.011718,-0.384765 0.335251,-0.126163 0.6707,-0.253874 1.007813,-0.375 0.330056,-0.11801 0.659717,-0.232702 0.992187,-0.34375 0.308273,-0.1033 0.617951,-0.206008 0.927735,-0.304688 0.284649,-0.09101 0.568499,-0.181664 0.853515,-0.271484 0.280808,-0.08852 0.563148,-0.176465 0.84375,-0.265625 0.289958,-0.09141 0.578913,-0.180935 0.869141,-0.271485 0.294135,-0.09161 0.589953,-0.182074 0.884766,-0.271484 0.304958,-0.09273 0.609343,-0.186487 0.916015,-0.273438 0.294997,-0.08466 0.590623,-0.167296 0.886719,-0.248046 0.312441,-0.08561 0.625221,-0.169227 0.939453,-0.248047 0.31206,-0.07817 0.623756,-0.15347 0.9375,-0.22461 0.298451,-0.06792 0.598759,-0.134945 0.898438,-0.197265 0.293111,-0.0612 0.586572,-0.122425 0.880859,-0.177735 0.271346,-0.0509 0.542561,-0.100547 0.814453,-0.148437 0.267606,-0.04706 0.534684,-0.0942 0.802735,-0.138672 0.278672,-0.04548 0.558364,-0.08898 0.83789,-0.128906 0.26162,-0.03675 0.522875,-0.07178 0.785157,-0.103516 0.243789,-0.02943 0.488195,-0.05838 0.732421,-0.08398 0.222357,-0.02327 0.443423,-0.04551 0.666016,-0.06641 0.17389,-0.01672 0.347667,-0.03332 0.521484,-0.05078 0.175771,-0.01781 0.351515,-0.03551 0.527344,-0.05273 0.259901,-0.02337 0.520363,-0.04453 0.78125,-0.05273 0.178105,-0.0054 0.356965,-0.0088 0.535156,-0.0098 0.09216,-5.34e-4 0.185184,-1.49e-4 0.277344,0 v 7.566406 c 0.191972,0.02522 0.383804,0.05144 0.576172,0.07617 0.414032,0.05376 0.828978,0.108209 1.242187,0.167969 0.359482,0.05176 0.719203,0.104636 1.078126,0.160156 0.332481,0.05117 0.663954,0.10288 0.996093,0.15625 0.274563,0.04351 0.549057,0.08739 0.824219,0.126953 0.198294,0.02809 0.397006,0.05306 0.595703,0.07813 l 0.181641,-2.732422 c 0.126389,0.0082 0.253221,0.02366 0.378906,0.03906 0.164851,0.0202 0.328761,0.04886 0.492188,0.07813 0.164886,0.02949 0.328528,0.06404 0.492187,0.09961 0.151905,0.03296 0.302067,0.06689 0.453125,0.103516 0.170226,0.04089 0.339295,0.08736 0.507805,0.134765 0.18545,0.05237 0.36988,0.111215 0.55274,0.171875 0.15746,0.05276 0.31251,0.109816 0.46875,0.166016 0.0716,0.02659 0.14565,0.04838 0.21875,0.07031 0.10945,0.03117 0.21968,0.05842 0.33008,0.08594 0.14843,0.03713 0.29758,0.07184 0.44726,0.103516 0.17099,0.03443 0.34368,0.06257 0.51563,0.0918 0.23469,0.03923 0.46976,0.07406 0.70507,0.109376 0.28609,0.04244 0.573,0.08259 0.85939,0.123046 0.3294,0.04658 0.65729,0.09555 0.98632,0.144532 0.34409,0.05143 0.68924,0.10403 1.0332,0.15625 0.35117,0.05364 0.70124,0.10477 1.05273,0.15625 0.2373,0.03463 0.11983,0.01813 0.35743,0.05273 l -0.006,0.03711 c 0.32168,-0.04958 0.64898,-0.08732 1.01367,-0.07813 0.21628,0.0055 0.43242,0.02331 0.64844,0.03516 0.36984,0.04519 0.73952,0.08969 1.10937,0.134765 0.3521,0.04281 0.70435,0.08565 1.05664,0.126953 0.3348,0.03875 0.67047,0.07601 1.00586,0.109375 0.35289,0.03384 0.7052,0.06555 1.05859,0.09375 0.38122,0.0304 0.76316,0.06155 1.14454,0.08984 0.39672,0.02917 0.79256,0.0572 1.18945,0.08398 0.40659,0.02778 0.81393,0.05507 1.2207,0.08008 0.40391,0.02475 0.80873,0.04996 1.21289,0.07031 0.39416,0.01853 0.78714,0.03552 1.18164,0.04492 0.4294,0.01006 0.85962,0.01769 1.28907,0.02539 0.4518,0.0078 0.90365,0.01554 1.35547,0.02344 0.46536,0.0082 0.93111,0.01649 1.39648,0.02539 0.46584,0.0095 0.93066,0.0194 1.39648,0.0293 0.4658,0.01 0.9327,0.01917 1.39844,0.03125 0.46084,0.01171 0.92006,0.0239 1.38086,0.03711 0.3174,0.009 0.63532,0.01963 0.95313,0.0293 l 0.46484,-1.578125 c -0.005,-0.0061 -0.19144,-0.05107 -0.15234,-0.04297 0.0836,0.01702 0.16815,0.03256 0.25195,0.04883 0.13527,0.02604 0.26888,0.05289 0.4043,0.07813 0.16052,0.03036 0.32181,0.06001 0.48242,0.08984 0.15535,0.0293 0.31115,0.05831 0.46679,0.08594 0.13993,0.02477 0.27944,0.04901 0.41993,0.07031 0.14603,0.02124 0.29299,0.03866 0.43945,0.05664 0.14709,0.01716 0.29382,0.03105 0.44141,0.04297 0.15635,0.01203 0.31398,0.01718 0.4707,0.02148 0.17465,0.0025 0.34885,-0.0014 0.52344,-0.0059 0.21075,-0.0065 0.42234,-0.01674 0.63281,-0.0293 0.24055,-0.01435 0.48041,-0.0327 0.7207,-0.05078 0.2539,-0.01921 0.50803,-0.04067 0.76172,-0.0625 0.26552,-0.02299 0.5296,-0.04702 0.79492,-0.07227 0.28494,-0.02738 0.57059,-0.05599 0.85547,-0.08398 0.30507,-0.02995 0.6108,-0.05764 0.91602,-0.08594 0.31928,-0.02993 0.63747,-0.05741 0.95703,-0.08398 0.34985,-0.02847 0.70044,-0.05267 1.05078,-0.07422 0.36677,-0.02206 0.73441,-0.03705 1.10156,-0.05078 0.35768,-0.01286 0.71449,-0.02165 1.07227,-0.03125 0.35603,-0.009 0.7123,-0.01759 1.06836,-0.02539 0.35766,-0.0078 0.71656,-0.01604 1.07422,-0.02344 0.36171,-0.0075 0.72227,-0.01438 1.08398,-0.02148 0.36531,-0.0072 0.73039,-0.01263 1.0957,-0.01953 0.36274,-0.0067 0.72516,-0.01409 1.08789,-0.02148 0.36566,-0.0071 0.73203,-0.01504 1.09766,-0.02344 0.36426,-0.0093 0.72954,-0.02041 1.09375,-0.03125 0.38324,-0.01109 0.76523,-0.0232 1.14844,-0.03516 0.39483,-0.0123 0.79069,-0.02337 1.18554,-0.03516 0.40946,-0.0127 0.81897,-0.0236 1.22852,-0.0332 0.42846,-0.0093 0.85664,-0.01463 1.28516,-0.01953 0.42124,-0.0047 0.84242,-0.01027 1.26367,-0.01367 0.27519,-0.0022 0.13833,1.47e-4 0.41211,-0.002 l 0.0117,1.447265 c 0.0612,-0.0081 0.12233,-0.01742 0.18359,-0.02539 0.32031,-0.04105 0.64033,-0.08052 0.96094,-0.119141 0.31822,-0.03836 0.63662,-0.077 0.95508,-0.113281 0.32223,-0.03663 0.64436,-0.07258 0.96679,-0.107422 0.31403,-0.03385 0.62731,-0.06642 0.94141,-0.09961 0.29081,-0.03148 0.58252,-0.0637 0.87305,-0.09766 0.29002,-0.03407 0.57927,-0.07018 0.86914,-0.105468 0.28003,-0.03366 0.56003,-0.06808 0.83984,-0.103516 0.27137,-0.03388 0.5431,-0.06751 0.81445,-0.101562 0.26024,-0.03304 0.52112,-0.06383 0.78125,-0.09766 0.27341,-0.03554 0.54657,-0.07077 0.82032,-0.103515 0.27355,-0.03215 0.54806,-0.06366 0.82226,-0.08984 0.26035,-0.02465 0.52033,-0.04674 0.78125,-0.06445 0.21206,-0.01514 0.42467,-0.02965 0.63672,-0.04492 0.20222,-0.01409 0.40314,-0.02849 0.60547,-0.04102 0.18555,-0.01133 0.37099,-0.02185 0.55664,-0.03125 0.15056,-0.0077 0.30259,-0.01699 0.45312,-0.02539 0.15933,-0.0087 0.31719,-0.01574 0.47657,-0.02344 0.15975,-0.0072 0.32061,-0.01348 0.48047,-0.01758 0.14653,-0.0036 0.29288,-0.0067 0.43945,-0.0059 h 0.26172 0.1875 0.10937 v 3.863281 c 0.71231,-0.0356 1.42445,-0.07113 2.13672,-0.109375 0.0385,-0.348359 0.0779,-0.696071 0.11524,-1.044922 0.0397,-0.368067 0.0809,-0.737249 0.11914,-1.105469 0.033,-0.321522 0.0636,-0.643054 0.0937,-0.964843 0.0237,-0.251255 0.0467,-0.502295 0.0664,-0.753907 0.0171,-0.215779 0.0287,-0.432744 0.0469,-0.648437 0.0155,-0.155149 0.0312,-0.308438 0.0527,-0.462891 l 9.2832,1.22461 -0.2207,-1.861329 c 0.35011,-0.04137 0.7006,-0.08225 1.05078,-0.123046 0.72807,-0.08441 1.45668,-0.166851 2.18555,-0.244141 0.69092,-0.0738 1.38114,-0.14697 2.07227,-0.21875 0.63117,-0.06577 1.26162,-0.131369 1.89257,-0.199219 0.62653,-0.06692 1.25405,-0.132955 1.88086,-0.197265 0.5558,-0.05724 1.11242,-0.114056 1.66797,-0.173829 0.41839,-0.0459 0.83483,-0.09983 1.25196,-0.15625 0.45434,-0.06095 0.90838,-0.120964 1.36328,-0.177734 0.39043,-0.04956 0.78182,-0.0999 1.17187,-0.152344 0.22311,-0.02996 0.4456,-0.05869 0.66797,-0.09375 0.099,-0.01515 0.19847,-0.03417 0.29688,-0.05273 -0.0253,0.0059 -0.0416,0.01107 -0.0684,0.01758 L 200,58.933594 V 0.75 Z" />
    </clipPath>
  </defs>
  <sodipodi:namedview
     id="namedview61"
     pagecolor="#ffffff"
     bordercolor="#666666"
     borderopacity="1.0"
     inkscape:pageshadow="2"
     inkscape:pageopacity="0.0"
     inkscape:pagecheckerboard="0"
     showgrid="false"
     inkscape:zoom="5.6568542"
     inkscape:rotation="-1"
     inkscape:cx="112.88234"
     inkscape:cy="51.033374"
     inkscape:window-width="1920"
     inkscape:window-height="1017"
     inkscape:window-x="-8"
     inkscape:window-y="-8"
     inkscape:window-maximized="1"
     inkscape:current-layer="svg59"
     fit-margin-top="0"
     fit-margin-left="0"
     fit-margin-right="0"
     fit-margin-bottom="0" />
  <title
     id="title2">C0B7D072-2E9B-4DCA-A98F-CC80334D9390@0.5x</title>
  <g
     id="Final-Designs"
     stroke="none"
     stroke-width="1"
     fill="none"
     fill-rule="evenodd"
     clip-path="url(#clipPath1076)"
     transform="translate(0,-0.75)">
    <g
       id="Assets"
       transform="translate(-1947,-8093)"
       fill-rule="nonzero">
      <g
         id="Team-Logos"
         transform="translate(139.5,7908)">
        <g
           id="Group"
           transform="translate(1807.5,133)">
          <g
             id="Stallions"
             transform="translate(0,52.75)">
            <path
               d="m 167.89362,61.784231 4.54255,-9.570707 h -14.28723 c 1.54481,-0.739324 2.99792,-1.656532 4.32978,-2.732968 -2.27659,-2.456482 1.73405,-3.243407 3.51064,-3.530528 L 163.82979,36.804686 129.45745,11.538019 126.14894,11.41041 110.6383,0 c -5.46809,3.1902357 -7.21277,6.9440797 -8.02128,9.5707071 -5.858874,0.6110219 -11.63823,1.8298769 -17.24468,3.6368689 -4.085106,1.201655 -8.968085,3.083894 -16.638297,1.254826 0.48248,3.205633 2.102362,6.130843 4.563829,8.241442 -1.744681,0.797559 -3.37234,1.658923 -5.074468,2.573457 -6.276595,3.339113 -14.30851,7.784175 -33.797872,9.209147 0.420341,4.772785 3.220688,9.011644 7.446808,11.272166 -8.989361,4.849158 -19.734042,6.805836 -31.127659,2.318238 2.444992,6.046962 7.089654,10.944358 13,13.707379 H 3.9361702 l 7.4468088,8.943294 -3.3510641,7.146128 3.5212771,4.59394 H 5.8297872 L 0,94.75 H 184.2234 L 200,61.784231 Z"
               id="Path"
               fill="#ffffff" />
            <polygon
               id="polygon5"
               fill="#a32035"
               points="150.73404,65.378563 138.42553,91.155668 145.81915,91.155668 155.6383,70.472306 160.62766,70.472306 150.79787,91.155668 158.08511,91.155668 168.01064,70.185185 164,65.378563 " />
            <path
               d="m 139.7766,65.378563 h -13.26596 l -9.92553,20.970483 4.01063,4.806622 h 13.26596 l 9.92553,-20.970483 z m -15.76596,20.683362 7.44681,-15.589619 h 4.9468 l -7.4468,15.589619 z"
               id="Shape"
               fill="#a32035" />
            <path
               d="M 70.946809,65.378563 H 57.680851 L 51.93617,77.42702 h -5.510638 l 3.5,4.253648 -4.542553,9.570707 h 7.382978 l 4.106383,-8.645539 h 4.978724 l -4.095745,8.645539 h 7.276596 l 9.925532,-21.06619 z M 59.244681,77.42702 62.542553,70.472306 h 4.989362 l -3.308511,6.954714 z"
               id="path8"
               fill="#a32035" />
            <polygon
               id="polygon10"
               fill="#a32035"
               points="191.08511,70.472306 193.62766,65.378563 168.58511,65.378563 172.59574,70.185185 169.18085,77.42702 171.97872,81.063889 178.90426,81.063889 176.51064,86.061925 165.06383,86.061925 162.64894,91.155668 181.38298,91.155668 188.59574,75.98078 177.25532,75.98078 179.85106,70.472306 " />
            <polygon
               id="polygon12"
               fill="#a32035"
               points="100.2234,91.155668 102.62766,86.061925 95.404255,86.061925 105.23404,65.378563 97.946809,65.378563 87.382979,87.774018 90.053191,91.155668 " />
            <polygon
               id="polygon14"
               fill="#A32035"
               points="84.212766,91.155668 86.62766,86.061925 79.404255,86.061925 89.223404,65.378563 81.946809,65.378563 71.37234,87.774018 74.053191,91.155668 "
               style="fill:#a32035;fill-opacity:1" />
            <polygon
               id="polygon16"
               fill="#a32035"
               points="12.223404,77.42702 15.021277,81.063889 21.946808,81.063889 19.553192,86.061925 8.106383,86.061925 5.6914894,91.155668 24.425532,91.155668 31.638298,75.98078 20.297872,75.98078 22.893617,70.472306 39.808511,70.472306 30.021277,91.155668 37.308511,91.155668 47.170213,70.472306 52.265957,70.472306 54.680851,65.378563 11.62766,65.378563 15.638298,70.185185 " />
            <polygon
               id="polygon18"
               fill="#a32035"
               points="121.94681,65.378563 114.56383,65.378563 102.3617,91.155668 109.64894,91.155668 " />
            <path
               d="m 117.69149,20.683361 c 0,0 -5.55319,-3.966526 -5.7234,-8.98583 -1.32289,2.475014 -1.61351,5.372382 -0.80852,8.060662 C 93.978723,23.033502 80.148936,34.475814 69.808511,42.536476 59.468085,50.597138 35.425532,66.50578 18.159575,53.425814 23.882979,59.402189 43.914894,71.971717 75.106383,46.29032 88.297872,35.400982 103.02128,23.629012 117.69149,20.683361 Z"
               id="path20"
               fill="#c6b784" />
            <path
               d="m 89.031915,59.551066 1.244681,-2.637261 -0.914894,-1.148485 h -6.542553 l -3.191489,6.720763 h 2.202127 l 1.06383,-2.126824 h 2.12766 l 0.946808,2.126824 h 2.19149 l -0.946809,-2.126824 h 0.510638 z m -1.946809,-0.563608 h -3.563829 l 0.776595,-1.637654 h 3.56383 z"
               id="path22"
               fill="#c6b784" />
            <polygon
               id="polygon24"
               fill="#c6b784"
               points="76.659575,62.486083 79.829787,55.775954 77.62766,55.775954 74.457447,62.486083 " />
            <polygon
               id="polygon26"
               fill="#c6b784"
               points="106.08511,62.486083 109.25532,55.775954 107.05319,55.775954 103.88298,62.486083 " />
            <path
               d="m 72.276596,59.125701 1.127659,-0.638047 0.75532,-1.595118 -0.925532,-1.116582 h -7.138298 l -3.19149,6.720763 H 70 l 1.914894,-0.988973 0.829787,-1.775898 z m -2.287234,1.807801 h -4.12766 l 0.531915,-1.063412 h 4.12766 z m 1.180851,-2.445848 h -4.148936 l 0.531914,-1.116582 h 4.148937 z"
               id="path28"
               fill="#c6b784" />
            <polygon
               id="polygon30"
               fill="#c6b784"
               points="114.11702,55.775954 112.24468,55.775954 109.07447,62.486083 110.89362,62.486083 112.98936,58.041021 115.19149,62.486083 117.05319,62.486083 120.23404,55.775954 118.41489,55.775954 116.31915,60.210382 " />
            <polygon
               id="polygon32"
               fill="#c6b784"
               points="130.15957,55.775954 124.53191,55.775954 122.88298,56.754293 120.6383,61.49711 121.46809,62.486083 128.43617,62.486083 130.35106,58.434484 126.01064,58.434484 125.3617,59.816919 127.48936,59.816919 126.95745,60.933502 123.11702,60.933502 124.81915,57.317901 130.87234,57.317901 131.08511,56.881902 " />
            <polygon
               id="polygon34"
               fill="#c6b784"
               points="135.54255,58.434484 136.79787,55.775954 134.59574,55.775954 131.42553,62.486083 133.62766,62.486083 134.89362,59.816919 138.45745,59.816919 137.20213,62.486083 139.40426,62.486083 142.57447,55.775954 140.37234,55.775954 139.10638,58.434484 " />
            <polygon
               id="polygon36"
               fill="#c6b784"
               points="96.340425,55.775954 93.787234,55.775954 90.617021,62.486083 92.43617,62.486083 94.595745,57.902778 95.212766,62.486083 96.117021,62.486083 100.8617,57.881509 98.691489,62.486083 100.89362,62.486083 104.06383,55.775954 100.75532,55.775954 96.851064,59.519164 " />
            <polygon
               id="polygon38"
               fill="#c6b784"
               points="158.45745,55.775954 155.89362,55.775954 152.7234,62.486083 154.54255,62.486083 156.70213,57.902778 157.31915,62.486083 158.2234,62.486083 162.96809,57.881509 160.79787,62.486083 163.01064,62.486083 166.18085,55.775954 162.87234,55.775954 158.95745,59.519164 " />
            <path
               d="m 150.19149,55.786588 v 0 h -2.12766 l -6.95745,6.720763 h 2.3617 l 1.47873,-1.424972 h 4.11702 l 0.26596,1.424972 h 2.02127 z m -3.76596,3.902722 2.12766,-2.009849 0.3617,2.009849 z"
               id="path40"
               fill="#c6b784" />
            <polygon
               id="polygon42"
               fill="#a32035"
               points="127.98936,31.08353 125.5,25.40491 134.41489,31.062262 " />
            <path
               d="m 130.85106,30.200898 c 0.50602,0.02599 0.99859,-0.167857 1.35107,-0.531706 l -2.9149,-1.850337 c -0.23868,0.241811 -0.35923,0.576111 -0.32978,0.914534 0.17848,0.891704 0.98522,1.516906 1.89361,1.467509 z"
               id="path44"
               fill="#ffffff" />
            <polygon
               id="polygon46"
               fill="#c6b784"
               points="127.98936,31.08353 142.7766,34.82674 124.56383,23.288721 125.5,25.40491 134.41489,31.062262 " />
            <path
               d="m 151.94681,44.801543 c -2.4149,-1.616386 -4.1383,-5.412766 -0.76596,-4.817256 0.78961,0.165435 1.55721,0.422391 2.28723,0.765657 0,0 -2.11702,0.925168 -1.52127,4.051599 z"
               id="path48"
               fill="#a32035" />
            <path
               d="m 134.78723,51.267088 c 7.69701,3.628877 16.81094,2.378028 23.24468,-3.190236 0,0 -1.06383,-2.892481 3.68086,-4.498232 l -1.06383,-4.562038 -32.43617,-23.926767 -3.30851,-0.12761 -14.35107,-10.6341186 c -2.81167,2.0319977 -4.58602,5.1981229 -4.85106,8.6561726 -15.489364,0.733755 -23.787236,6.678227 -31.308513,5.73179 0,0 2.87234,4.147307 9.478723,4.46633 -14.648936,2.435214 -16.74468,11.623092 -44.968085,14.504939 1.574468,4.253647 7.872341,7.199298 12.053192,6.773933 C 46.87234,48.09812 28.212766,57.477413 18.159575,53.425814 35.425532,66.50578 59.468085,50.480163 69.808511,42.536476 80.148936,34.592789 93.978723,23.086672 111.15957,19.811364 c -0.80499,-2.68828 -0.51437,-5.585649 0.80852,-8.060662 l 12.20212,7.879882 2.26596,-0.116976 31.08511,21.661701 c -1.85561,1.339275 -2.86338,3.560348 -2.64894,5.838131 -0.95145,0.684589 -1.9668,1.275753 -3.03191,1.765264 -5.98937,-2.126824 -9.12766,-0.659316 -9.12766,-0.659316 l 5.24468,1.988581 c -3.63542,0.811918 -7.43111,0.51179 -10.89362,-0.861364 L 137,46.970903 129.97872,43.599888 c -2.59793,1.237306 -5.44143,1.873391 -8.31915,1.860971 -7.4468,0 -12.91489,-4.200477 -12.62766,-9.453732 -1.37183,3.913578 -0.32765,8.267492 2.67022,11.133922 l -4.67022,5.73179 h 10.86171 l 2.12766,-2.913748 c 2.74441,0.125048 5.48447,-0.327828 8.04255,-1.329265 l 6.70213,1.063412 z"
               id="path50"
               fill="#a32035" />
            <path
               d="m 137.06383,49.193434 c 3.46251,1.373155 7.2582,1.673282 10.89362,0.861364 l -5.24468,-1.98858 c 0,0 3.13829,-1.499411 9.12766,0.659315 1.06511,-0.489511 2.08046,-1.080675 3.03191,-1.765264 -1.01759,-0.648736 -1.99459,-1.359 -2.92553,-2.126823 -2.4149,-1.616387 -4.1383,-5.412767 -0.76596,-4.817256 v 0 c 0,0 -4.01064,-0.967705 -5.10638,2.201262 -1.06383,3.009456 -4.44681,2.701066 -10.74468,-0.329657 0.69862,-0.782623 1.18565,-1.730676 1.41489,-2.754237 0,-0.223317 0.0638,-0.446633 0.0851,-0.66995 -2.7766,2.222531 -7.31915,3.615601 -12.15958,3.434821 -7.30851,-0.287121 -12.52127,-4.062234 -11.6383,-8.432857 0.18005,-0.847936 0.54311,-1.64636 1.06383,-2.339506 0,0 -11.57446,0 -17.393612,15.38757 3.232919,-4.412352 7.451102,-8.009874 12.319152,-10.506509 -0.28724,5.253255 5.2234,9.443097 12.62766,9.453732 2.8813,0.01402 5.72861,-0.622104 8.32978,-1.860971 L 137,46.949635 Z"
               id="path52"
               fill="#c6b784" />
          </g>
        </g>
      </g>
    </g>
  </g>
  <metadata
     id="metadata882">
    <rdf:RDF>
      <cc:Work
         rdf:about="">
        <dc:title>C0B7D072-2E9B-4DCA-A98F-CC80334D9390@0.5x</dc:title>
      </cc:Work>
    </rdf:RDF>
  </metadata>
  <path
     style="fill:none;stroke:#a32035;stroke-width:1;stroke-linecap:butt;stroke-linejoin:miter;stroke-miterlimit:4;stroke-dasharray:none;stroke-opacity:1"
     d="m 117.64717,52.331291 c -1.88255,3.645126 -4.33551,6.994943 -7.24221,9.890114 -4.56996,4.551834 -10.39894,8.007436 -16.774345,8.986179 -2.999787,0.460523 -6.083444,0.368905 -9.050598,-0.268901"
     id="path1193"
     inkscape:path-effect="#path-effect1195"
     inkscape:original-d="m 117.64717,52.331291 c -2.41304,3.297733 -4.82711,6.594438 -7.24221,9.890114 -2.41511,3.295676 -11.181862,5.991815 -16.774345,8.986179 -5.592483,2.994363 -6.032697,-0.178238 -9.050598,-0.268901" />
  <path
     style="fill:none;stroke:#a32035;stroke-width:1;stroke-linecap:butt;stroke-linejoin:miter;stroke-miterlimit:4;stroke-dasharray:none;stroke-opacity:1"
     d="m 107.48,53.090397 c -2.05239,3.250145 -4.37291,6.330914 -6.93024,9.200722 -1.930982,2.166926 -4.014842,4.228429 -6.440542,5.822241 -2.425701,1.593812 -5.22178,2.707363 -8.121277,2.83842 -0.469082,0.0212 -0.939318,0.01683 -1.407924,-0.0131"
     id="path1197"
     inkscape:path-effect="#path-effect1199"
     inkscape:original-d="m 107.48,53.090397 c -2.9217,3.313865 -4.00643,5.888926 -6.93024,9.200722 -2.923804,3.311797 -10.089547,5.741721 -14.561819,8.660661 -4.472271,2.918939 -0.937565,-0.0078 -1.407924,-0.0131"
     sodipodi:nodetypes="cssc" />
  <path
     style="fill:#a32035;fill-opacity:1;stroke:#a32035;stroke-width:0.1;stroke-linecap:butt;stroke-linejoin:miter;stroke-miterlimit:4;stroke-dasharray:none;stroke-opacity:1"
     d="m 84.697364,70.494373 c -0.487114,-0.04046 -1.862437,0.03467 -1.862437,0.03467 l 1.683174,0.861882"
     id="path1562"
     sodipodi:nodetypes="ccc" />
  <path
     style="font-variation-settings:normal;opacity:1;vector-effect:none;fill:#a32035;fill-opacity:1;stroke:none;stroke-width:0.224716;stroke-linecap:butt;stroke-linejoin:miter;stroke-miterlimit:4;stroke-dasharray:none;stroke-dashoffset:0;stroke-opacity:1;-inkscape-stroke:none;stop-color:#000000;stop-opacity:1"
     d="m 107.10796,52.780541 c -0.0665,0.02456 -0.0863,0.12139 -0.0305,0.166725 0.0683,0.04942 0.14212,0.09221 0.21338,0.13757 0.0631,0.03499 0.14768,-0.01256 0.15295,-0.08375 0.0186,-0.02856 0.061,-0.01076 0.0896,-0.02305 0.0725,-0.01576 0.10166,-0.119583 0.0441,-0.16776 -0.0463,-0.04764 -0.11925,-0.02611 -0.17828,-0.03281 -0.0938,0.0016 -0.18854,-0.0087 -0.28164,0.0014 l -0.005,9.6e-4 z"
     id="path25337" />
  <path
     style="fill:#a32035;fill-opacity:1;stroke:#a32035;stroke-width:1px;stroke-linecap:butt;stroke-linejoin:miter;stroke-opacity:1"
     d="m 107.57749,52.810276 c -3.3214,4.94973 -7.13934,9.566071 -11.377926,13.757239 -1.05202,1.040251 -2.139649,2.062002 -3.397829,2.840367 -1.25818,0.778366 -2.709022,1.305971 -4.18808,1.270507 -0.152178,-0.0036 -0.304785,-0.01319 -0.456362,8.11e-4 -0.151577,0.014 -0.304065,0.05304 -0.430087,0.13842 -0.05381,0.03645 -0.103255,0.08246 -0.131006,0.141231 -0.01984,0.04201 -0.02779,0.08934 -0.02432,0.135674 0.0035,0.04633 0.01818,0.09161 0.04126,0.131927 0.04616,0.08064 0.124712,0.139787 0.211292,0.173518 0.08658,0.03373 0.180948,0.04357 0.273834,0.04113 0.09289,-0.0024 0.184988,-0.01679 0.276966,-0.02997 1.995967,-0.286149 4.031002,-0.03383 6.041363,-0.189437 3.604142,-0.278976 6.99902,-1.863422 9.99104,-3.892089 3.00626,-2.038323 5.68383,-4.539068 8.06122,-7.285043 1.76678,-2.040697 3.37558,-4.224563 4.71158,-6.569996 0.20498,-0.359863 0.40697,-0.733456 0.46674,-1.14327 0.0809,-0.55439 -0.11643,-1.130985 -0.47632,-1.560362 -0.35989,-0.429377 -0.87037,-0.717672 -1.41082,-0.865341 -1.08088,-0.295337 -2.22806,-0.04926 -3.31686,0.215417 -0.76707,0.186469 -1.53481,0.382876 -2.26608,0.680207 -0.73127,0.29733 -1.42902,0.700184 -1.98892,1.256663 -0.22954,0.228135 -0.43464,0.48084 -0.61068,0.752401 z"
     id="path1379"
     inkscape:path-effect="#path-effect1381"
     inkscape:original-d="m 107.57749,52.810276 c -0.20456,0.2498 -7.584284,9.172493 -11.377926,13.757239 -3.793642,4.584746 -5.056273,2.741583 -7.585909,4.110874 -2.529637,1.369292 -0.589966,0.09382 -0.886449,0.139231 -0.296483,0.04541 0.197506,-0.05096 -0.131006,0.141231 -0.328512,0.192187 0.596555,0.413233 0.779027,0.452273 0.182471,0.03904 3.668528,-0.0899 6.041363,-0.189437 2.372836,-0.09953 6.66169,-2.593726 9.99104,-3.892089 3.32935,-1.298363 5.37515,-4.855695 8.06122,-7.285043 2.68608,-2.429348 3.14205,-4.378997 4.71158,-6.569996 1.56952,-2.190998 0.31216,-0.76118 0.46674,-1.14327 0.15458,-0.38209 -3.46834,-1.472524 -5.204,-2.210286 -1.73567,-0.737762 -2.83567,1.292247 -4.255,1.93687 -1.41933,0.644624 -0.40612,0.502601 -0.61068,0.752401 z"
     sodipodi:nodetypes="sssssssssssssss" />
</svg>
