<?xml version="1.0" encoding="UTF-8" standalone="no"?>
<svg
   width="106.53036"
   height="103.83698"
   viewBox="0 0 106.53036 103.83698"
   version="1.1"
   id="svg123"
   sodipodi:docname="SMALLLogos_USFL_Generals.svg"
   inkscape:version="1.1.1 (3bf5ae0d25, 2021-09-20)"
   xmlns:inkscape="http://www.inkscape.org/namespaces/inkscape"
   xmlns:sodipodi="http://sodipodi.sourceforge.net/DTD/sodipodi-0.dtd"
   xmlns="http://www.w3.org/2000/svg"
   xmlns:svg="http://www.w3.org/2000/svg"
   xmlns:rdf="http://www.w3.org/1999/02/22-rdf-syntax-ns#"
   xmlns:cc="http://creativecommons.org/ns#"
   xmlns:dc="http://purl.org/dc/elements/1.1/">
  <defs
     id="defs127" />
  <sodipodi:namedview
     id="namedview125"
     pagecolor="#ffffff"
     bordercolor="#666666"
     borderopacity="1.0"
     inkscape:pageshadow="2"
     inkscape:pageopacity="0.0"
     inkscape:pagecheckerboard="0"
     showgrid="false"
     inkscape:zoom="4.3823529"
     inkscape:cx="52.369128"
     inkscape:cy="84.771812"
     inkscape:window-width="1920"
     inkscape:window-height="1017"
     inkscape:window-x="-8"
     inkscape:window-y="-8"
     inkscape:window-maximized="1"
     inkscape:current-layer="svg123" />
  <title
     id="title2">BAAA0853-F465-4AE7-BD43-2B42F91BB2F5@0.5x</title>
  <g
     id="Final-Designs"
     stroke="none"
     stroke-width="1"
     fill="none"
     fill-rule="evenodd"
     transform="translate(-47.594146,-0.25)">
    <g
       id="Assets"
       transform="translate(-1047,-8056)"
       fill-rule="nonzero">
      <g
         id="Team-Logos"
         transform="translate(139.5,7908)">
        <g
           id="Group"
           transform="translate(907.5,133)">
          <g
             id="Generals"
             transform="translate(0,15.25)">
            <path
               d="m 150.59757,38.014598 c 0.54293,-1.538712 0.80895,-3.161327 0.78573,-4.792718 0.12938,-3.662548 -2.03038,-7.020468 -5.41823,-8.424061 0.0862,-1.514131 -0.0967,-3.031552 -0.54018,-4.481928 -0.83091,-3.392667 -3.65644,-5.930561 -7.12063,-6.395743 -0.31539,-1.398119 -0.86911,-2.731607 -1.63693,-3.9421339 -1.74329,-3.1719354 -5.36535,-4.8219726 -8.90487,-4.0566353 -0.46753,0.1342201 -0.89479,0.3814037 -1.24407,0.7197256 -3.17563,-1.4230938 -7.25158,-1.2758772 -10.85282,3.1733357 1.82979,0.9316779 3.39918,2.3031879 4.56703,3.9912059 0.58929,0.670653 1.26043,1.455808 2.02979,2.208249 h -16.1892 L 100.86776,0 95.662339,16.013895 H 79.440402 c 0.769355,-0.752441 1.440495,-1.537596 2.029788,-2.208249 1.170876,-1.691474 2.74647,-3.063496 4.583393,-3.9912059 C 82.435977,5.3652272 78.360031,5.2180106 75.184395,6.6411044 74.835119,6.3027825 74.407856,6.0555989 73.940331,5.9213788 70.400806,5.1560415 66.778745,6.8060787 65.035454,9.9780141 c -0.761075,1.2140159 -1.3143,2.5463209 -1.636926,3.9421339 -3.464186,0.465182 -6.289721,3.003076 -7.120628,6.395743 -0.443518,1.450376 -0.626406,2.967797 -0.540186,4.481928 -3.387812,1.401177 -5.543504,4.762926 -5.401855,8.424061 -0.03664,1.630983 0.224063,3.255014 0.769355,4.792718 -3.056948,2.369394 -4.273063,6.415794 -3.028313,10.076158 0.484563,1.710509 1.277862,3.318131 2.340804,4.743646 -2.455389,2.96069 -2.455389,7.311758 0,11.106675 1.057085,1.596117 2.40671,2.978064 3.97773,4.072993 -1.636926,3.860346 -0.130954,8.1787 3.552129,11.155747 1.571956,1.235404 3.366965,2.157248 5.287271,2.715328 -0.491078,4.383783 2.65182,8.293202 7.267951,9.912585 1.695132,0.585279 3.477473,0.878433 5.270902,0.866942 2.184858,-0.0028 4.349974,-0.413339 6.384011,-1.210448 2.391667,1.30317 4.970103,2.230073 7.644445,2.748043 -0.77054,0.58513 -1.498109,1.224708 -2.177112,1.913816 -0.404843,0.400047 -0.6788,0.913344 -0.785724,1.472166 -0.532679,2.610741 0.950982,5.212261 3.470283,6.084951 0.292743,0.11094 0.603605,0.16641 0.916678,0.16368 0.796025,-0.008 1.551313,-0.35313 2.078896,-0.94883 2.067082,-2.43731 4.635274,-4.401113 7.529865,-5.757808 2.88736,1.360872 5.44937,3.324218 7.51349,5.757808 0.53138,0.59993 1.29352,0.94502 2.09526,0.94883 0.31307,0.003 0.62394,-0.0527 0.91668,-0.16368 2.5193,-0.87269 4.00296,-3.47421 3.47028,-6.084951 -0.10138,-0.55724 -0.36966,-1.070596 -0.76935,-1.472166 -0.68833,-0.685365 -1.42107,-1.324688 -2.19348,-1.913816 2.6687,-0.519583 5.2415,-1.446444 7.62807,-2.748043 2.03436,0.796001 4.19926,1.20648 6.38401,1.210448 1.79353,0.01277 3.57609,-0.280423 5.2709,-0.866942 4.61613,-1.63574 7.74266,-5.496087 7.26795,-9.912585 1.92169,-0.554627 3.71733,-1.476797 5.28728,-2.715328 3.73219,-2.927975 5.25453,-7.311758 3.6176,-11.155747 1.57102,-1.094929 2.92065,-2.476876 3.97773,-4.072993 2.46359,-3.292978 2.46359,-7.813697 0,-11.106675 1.06906,-1.421768 1.86294,-3.030573 2.34081,-4.743646 1.24639,-3.663743 0.0225,-7.713964 -3.04469,-10.076158 z M 130.25058,25.435757 c -0.0999,0.228146 -0.16077,0.471437 -0.18006,0.719726 0.006,0.787255 0.32384,1.54008 0.88394,2.093747 0.3765,0.507079 1.0149,1.537596 1.63693,2.502682 0.2128,0.343506 0.4256,0.703368 0.67114,1.079589 h -5.40186 l -3.76493,-11.58104 c 1.1627,0.785316 2.25778,1.66622 3.27386,2.633542 0.89758,0.918796 1.86042,1.7716 2.88098,2.551754 z m -7.75902,-9.078357 -5.04174,15.523173 h -6.23669 l -1.93157,-5.921379 z m -21.6238,15.670389 13.35732,9.699939 -5.10721,15.703104 H 92.601287 L 87.494078,41.727728 Z m -8.430165,-6.117667 -1.931573,5.921379 H 84.269334 L 79.227602,16.3574 Z M 71.468573,25.435757 c 1.042555,-0.772399 2.027325,-1.619781 2.946467,-2.535397 1.019613,-0.963276 2.114356,-1.843905 3.273851,-2.633541 l -3.764929,11.581039 h -5.450964 l 0.654771,-1.079588 c 0.589293,-0.965087 1.30954,-2.093748 1.636926,-2.600827 0.566062,-0.508722 0.887696,-1.234849 0.88394,-1.995603 -0.01745,-0.253845 -0.07836,-0.502817 -0.180062,-0.736083 z m -5.991149,29.557822 c 0.154119,-1.510595 0.197886,-3.030405 0.130954,-4.547357 0,-1.243162 0,-2.584469 0,-3.27148 0.193665,-0.813271 0.04579,-1.670314 -0.409232,-2.371823 -0.167682,-0.213617 -0.366296,-0.401061 -0.589293,-0.556152 0.556008,-1.333948 1.015527,-2.70604 1.375018,-4.105707 0.130954,-0.50708 0.261908,-1.014159 0.409231,-1.472166 l 4.223269,3.058834 -4.436069,13.592999 c -0.215918,-0.145415 -0.453473,-0.255826 -0.703878,-0.327148 z m 4.239638,10.436022 C 69.386406,63.86221 68.943291,62.320633 68.391152,60.816814 68.227459,60.293377 68.047398,59.76994 67.883705,59.262861 l 11.081989,8.04784 -2.029788,6.2976 c -0.727218,-1.131421 -1.51405,-2.223452 -2.357174,-3.27148 -0.834832,-1.095946 -1.636926,-2.175535 -2.095265,-2.829831 -0.605663,-0.948729 -0.982156,-1.63574 -1.898834,-1.832029 -0.276482,-0.121379 -0.56844,-0.203949 -0.867571,-0.24536 z m -2.242588,-8.015127 c -0.02104,-0.341309 -0.110087,-0.674983 -0.261909,-0.981444 l 11.851344,-8.603992 5.041732,3.664058 -1.915203,5.921378 z m 51.563166,20.005101 c -3.91225,1.63574 -9.21589,3.974848 -10.49269,9.81444 -2.58912,0.39343 -5.15266,0.939631 -7.67719,1.63574 -2.530422,-0.694606 -5.099322,-1.240785 -7.693549,-1.63574 -1.276802,-5.855949 -6.547704,-8.1787 -10.492695,-9.81444 l -0.491078,-0.212646 5.205425,-3.77856 13.471897,9.81444 -5.058098,-15.91575 5.058098,-3.664058 5.04174,3.664058 -5.04174,15.91575 13.45554,-9.81444 5.17268,3.794917 z m 5.72924,-3.811274 -1.99705,-6.281242 11.08199,-8.047841 c -0.14732,0.50708 -0.32738,1.030516 -0.50744,1.553953 -0.55376,1.501924 -0.99155,3.044031 -1.30955,4.612787 -0.30396,-0.0038 -0.60698,0.03475 -0.90031,0.114502 -0.91667,0.261718 -1.29317,0.883299 -1.88246,1.832028 -0.40923,0.654296 -1.26043,1.733885 -2.11164,2.829831 -0.8521,1.084766 -1.64446,2.2151 -2.37354,3.385982 z m 9.46143,-16.177469 h -14.73233 l -1.9152,-5.921379 5.04173,-3.664058 11.85134,8.603993 c -0.13853,0.310324 -0.22163,0.642485 -0.24554,0.981444 z m 1.99705,-2.437253 c -0.2618,0.06804 -0.51064,0.178555 -0.73661,0.327148 l -4.4197,-13.592999 4.2069,-3.058834 c 0.14732,0.458007 0.27827,0.965086 0.4256,1.472166 0.35334,1.399479 0.80741,2.77162 1.35865,4.105707 -0.223,0.155091 -0.42161,0.342535 -0.5893,0.556152 -0.45502,0.701509 -0.60289,1.558552 -0.40923,2.371823 0,0.687011 0,2.028318 0,3.27148 -0.0424,1.518107 0.0178,3.037344 0.18006,4.547357 z"
               id="path32"
               fill="#011e41" />
            <path
               d="m 58.92972,37.851024 c 0.04197,-0.54444 0.04197,-1.0913 0,-1.63574 0.522017,-2.821319 2.117912,-5.330688 4.452439,-7.000967 -1.442716,1.818949 -2.551165,3.879171 -3.273852,6.084952 5.123578,-0.899656 6.367642,-6.771963 8.724815,-8.963855 -1.794757,-1.009138 -4.013287,-0.881361 -5.680133,0.327148 0.872943,-3.120021 3.202876,-5.625017 6.253057,-6.722891 -1.763049,1.329358 -3.285524,2.950311 -4.501546,4.792718 4.910778,0.458007 7.529859,-4.645502 10.247156,-6.068596 -1.280198,-1.291225 -3.169777,-1.769572 -4.910778,-1.243162 0.622032,-3.075191 3.9941,-5.021722 6.023888,-6.03588 -1.785937,1.334621 -3.297664,3.000759 -4.452439,4.90722 4.910778,0.605223 7.333429,-5.054437 9.821556,-6.6411049 -1.815548,-1.3908487 -4.339294,-1.3908487 -6.154842,0 -1.534031,0.9443529 -2.832745,2.2253449 -3.797668,3.7458449 0.326325,-1.634935 0.825665,-3.230569 1.489603,-4.7600037 -2.33405,-0.4543768 -4.686403,0.6942359 -5.76198,2.8134727 -1.289189,2.127544 -1.782162,4.642781 -1.391387,7.099112 0.640538,-2.103245 1.661381,-4.071379 3.011944,-5.806877 -0.995148,1.933331 -1.643363,4.026047 -1.915203,6.183097 -1.284314,0.878844 -2.394371,1.988096 -3.273852,3.27148 -0.108339,-1.867252 -0.03708,-3.740585 0.2128,-5.594231 -2.545204,0.172228 -4.652021,2.042103 -5.123578,4.547357 -0.715618,2.502693 -0.530256,5.176914 0.523816,7.557119 0.09295,-2.304643 0.591655,-4.57488 1.473234,-6.706534 -0.458069,2.245738 -0.51901,4.554289 -0.180062,6.821036 -1.042439,1.228463 -1.852288,2.636358 -2.389912,4.15478 -0.636715,-1.843297 -1.091757,-3.744326 -1.358649,-5.676018 -2.499549,0.891297 -4.09449,3.342244 -3.895884,5.986808 -0.01416,2.737749 0.942752,5.391984 2.700928,7.491689 -0.582004,-2.352585 -0.731756,-4.791213 -0.44197,-7.197256 0.186966,2.403134 0.790709,4.755474 1.78425,6.951895 -0.70695,1.509164 -1.1393,3.132072 -1.276803,4.792719 -1.163875,-1.616067 -2.167155,-3.341772 -2.995574,-5.152581 -2.013419,1.308592 -2.930098,3.991205 -2.128004,7.262685 0.800771,2.749741 2.537779,5.133505 4.910778,6.739249 -1.286794,-2.197026 -2.168352,-4.607089 -2.602712,-7.115469 0.905418,2.346642 2.206499,4.520917 3.846776,6.428458 -0.190454,1.754116 -0.0573,3.528264 0.392862,5.234369 -1.667536,-1.222734 -3.203563,-2.61512 -4.583393,-4.15478 -1.636926,1.962888 -1.636926,4.90722 0.163693,7.851552 1.68171,2.51186 4.198128,4.348557 7.104259,5.185296 -2.002774,-1.793177 -3.666217,-3.931923 -4.910778,-6.313957 1.637191,2.053879 3.613578,3.813082 5.843825,5.201653 0.292504,1.878086 0.942641,3.682714 1.915204,5.316156 -2.038388,-0.654547 -4.002515,-1.520768 -5.860195,-2.58447 -0.998525,2.502683 0,5.512444 2.766405,7.769765 2.527495,1.924808 5.647779,2.908229 8.823031,2.780758 -2.578508,-1.119977 -4.934862,-2.693435 -6.956936,-4.645501 2.321171,1.514348 4.884454,2.620796 7.578968,3.27148 0.921195,1.763533 2.171335,3.334792 3.683083,4.629144 -2.293236,0.05366 -4.585951,-0.127209 -6.842351,-0.539794 -0.114585,2.82983 1.866096,5.479729 5.450964,6.739249 3.165648,1.034636 6.593706,0.93048 9.690602,-0.294433 -2.954356,-0.229414 -5.843238,-0.988512 -8.528385,-2.240964 2.72473,0.660682 5.540251,0.865199 8.331954,0.605224 2.900084,2.231007 6.308258,3.709061 9.919771,4.301996 11.671285,1.488523 16.631165,6.117667 19.643115,9.487289 1.19159,-0.46004 1.88145,-1.707784 1.63692,-2.960687 -2.35878,-2.231562 -5.14201,-3.967043 -8.18463,-5.103508 2.24496,-0.654951 4.5384,-1.13081 6.85872,-1.423094 3.61535,-0.586829 7.02901,-2.059201 9.93614,-4.285639 2.78719,0.254019 5.59724,0.04397 8.31559,-0.621581 -2.67711,1.23738 -5.55448,1.985286 -8.49565,2.208249 3.0969,1.224913 6.52496,1.329069 9.6906,0.294433 3.60124,-1.25952 5.56555,-3.909419 5.45097,-6.739249 -2.2564,0.412585 -4.54912,0.593458 -6.84235,0.539794 1.51487,-1.308309 2.76985,-2.889776 3.69945,-4.661859 2.68851,-0.653354 5.24597,-1.759678 7.5626,-3.27148 -2.01918,1.947976 -4.3694,3.521037 -6.94057,4.645502 3.16989,0.125005 6.28419,-0.858357 8.80666,-2.780758 2.83188,-2.257321 3.76493,-5.267083 2.78278,-7.769765 -1.86507,1.060415 -3.83427,1.926456 -5.87657,2.584469 0.97039,-1.635986 1.62555,-3.439128 1.93157,-5.316155 2.22616,-1.387743 4.19729,-3.147197 5.82746,-5.201653 -1.24456,2.382033 -2.908,4.520779 -4.91078,6.313956 2.92269,-0.810469 5.46668,-2.622983 7.18611,-5.119866 1.86609,-2.89526 1.80062,-5.888664 0.14732,-7.851552 -1.37755,1.535957 -2.90776,2.928037 -4.56702,4.15478 0.38999,-1.745487 0.45106,-3.548313 0.18006,-5.316156 1.64028,-1.907541 2.94136,-4.081816 3.84678,-6.428458 -0.42559,2.510713 -1.30771,4.922317 -2.60272,7.115469 2.373,-1.605744 4.11001,-3.989508 4.91078,-6.739249 0.987,-2.599487 0.11632,-5.537601 -2.128,-7.180898 -0.82158,1.814339 -1.82524,3.540705 -2.99558,5.152581 -0.12185,-1.663316 -0.55494,-3.289017 -1.2768,-4.792719 1.00125,-2.193708 1.60535,-4.547432 1.78425,-6.951895 0.28979,2.406043 0.14003,4.844671 -0.44197,7.197256 1.75818,-2.099705 2.71509,-4.75394 2.70093,-7.491689 0.20438,-2.646038 -1.39265,-5.100185 -3.89589,-5.986808 -0.26689,1.931692 -0.72193,3.832721 -1.35864,5.676018 -0.53763,-1.518422 -1.34748,-2.926317 -2.38992,-4.15478 0.36593,-2.261979 0.33269,-4.570513 -0.0982,-6.821036 0.89724,2.126714 1.39658,4.399822 1.47323,6.706534 1.06236,-2.378147 1.24792,-5.055323 0.52382,-7.557119 -0.49098,-2.476911 -2.58585,-4.315311 -5.10721,-4.481927 0.24988,1.853645 0.32114,3.726978 0.2128,5.594231 -0.87948,-1.283384 -1.98954,-2.392636 -3.27385,-3.27148 -0.25129,-2.152998 -0.87729,-4.245525 -1.84973,-6.183098 1.35056,1.735498 2.37141,3.703633 3.01194,5.806877 0.38491,-2.483307 -0.12562,-5.022494 -1.44049,-7.164541 -1.07466,-2.1480886 -3.45368,-3.3132986 -5.81109,-2.8461875 0.64923,1.5348655 1.14809,3.1289825 1.48961,4.7600035 -0.97491,-1.518013 -2.27828,-2.798074 -3.81404,-3.7458447 -1.81555,-1.3908487 -4.3393,-1.3908487 -6.15484,0 2.43902,1.6357397 4.91077,7.2463287 9.82155,6.6411047 -1.15477,-1.906461 -2.6665,-3.572599 -4.45244,-4.90722 2.02979,1.014159 5.40186,2.960689 6.04026,6.03588 -1.741,-0.52641 -3.63058,-0.04806 -4.91078,1.243163 2.70093,1.423094 5.30364,6.54296 10.24716,6.068595 -1.22067,-1.843946 -2.7488,-3.46502 -4.51792,-4.792718 3.05018,1.097874 5.38012,3.602871 6.25306,6.722891 -1.6603,-1.209655 -3.87504,-1.337582 -5.66376,-0.327148 2.3408,2.191892 3.58486,8.064199 8.72481,8.963856 -0.73681,-2.199707 -1.84399,-4.257583 -3.27385,-6.084953 2.3246,1.676796 3.91332,4.184105 4.43607,7.000967 -0.042,0.54444 -0.042,1.0913 0,1.63574 -1.35131,-1.773561 -3.63403,-2.566137 -5.79472,-2.01196 1.78425,2.862545 1.4405,9.160144 6.40038,11.45018 -0.13664,-2.431761 -0.69033,-4.82199 -1.63692,-7.066397 1.75832,2.178228 2.69153,4.906346 2.63545,7.704336 -0.3041,0.733756 -0.51314,1.503333 -0.62204,2.290036 -0.81736,-2.145419 -2.82891,-3.603218 -5.12357,-3.71313 0.90031,3.418696 -1.42413,9.618151 2.83188,13.478497 0.65917,-2.478068 0.88075,-5.052036 0.65477,-7.606191 1.09517,2.705381 1.21096,5.707914 0.32738,8.489491 -0.56204,0.648898 -1.03543,1.369461 -1.40775,2.14282 -0.14993,-2.399774 -1.70359,-4.484781 -3.96136,-5.316156 -0.18007,3.71313 -4.46881,9.192859 -1.4405,14.394513 1.41311,-2.279882 2.42103,-4.786786 2.97921,-7.409903 0.20999,3.00853 -0.61598,5.998348 -2.34081,8.473134 -0.85008,0.475316 -1.62739,1.070266 -2.30806,1.766599 0.66415,-2.452508 -0.17562,-5.066068 -2.14438,-6.67382 -1.42412,3.647701 -7.52986,7.655264 -6.25305,13.854718 2.16415,-1.801216 3.99765,-3.965502 5.41822,-6.395743 -0.7947,3.069001 -2.62097,5.77176 -5.17268,7.655263 -0.98815,0.164926 -1.95094,0.456302 -2.86462,0.866942 1.26134,-1.788311 1.51481,-4.098758 0.67114,-6.117667 -3.17564,2.600826 -11.14747,3.27148 -12.35879,10.092516 3.04317,-0.741739 5.91229,-2.069688 8.44653,-3.909419 -2.7628,3.276335 -6.68716,5.357258 -10.95103,5.806877 -2.65488,0.431343 -5.27934,1.032347 -7.85725,1.799314 -2.575524,-0.771916 -5.200683,-1.367614 -7.857241,-1.782957 -4.25043,-0.490229 -8.157349,-2.570851 -10.934666,-5.823234 2.534244,1.839731 5.403359,3.16768 8.446538,3.909419 -1.211325,-6.771964 -9.183155,-7.49169 -12.358791,-10.092516 -0.843676,2.018909 -0.590208,4.329356 0.67114,6.117667 -0.910813,-0.418244 -1.874633,-0.709933 -2.864621,-0.866942 -2.551716,-1.883503 -4.377979,-4.586262 -5.172686,-7.655263 1.425473,2.431554 3.264583,4.595923 5.434594,6.395743 1.276803,-6.199454 -4.812562,-10.207017 -6.236688,-13.854718 -1.983354,1.597776 -2.826203,4.220931 -2.144373,6.67382 -0.707539,-0.693479 -1.50601,-1.287771 -2.373542,-1.766599 -1.734607,-2.470189 -2.561555,-5.463537 -2.340804,-8.473134 0.542435,2.625285 1.545513,5.133933 2.962836,7.409903 3.028313,-5.201654 -1.260433,-10.681383 -1.440495,-14.394513 -2.254006,0.833013 -3.801921,2.918937 -3.944992,5.316156 -0.384024,-0.77048 -0.8624,-1.490271 -1.424125,-2.14282 -0.878366,-2.783471 -0.756787,-5.786033 0.343754,-8.489491 -0.247584,2.543165 -0.05937,5.109898 0.556555,7.589834 4.256007,-3.860346 1.931573,-10.059801 2.848251,-13.478498 -2.300721,0.103551 -4.320227,1.562455 -5.139947,3.71313 -0.108895,-0.786703 -0.317931,-1.556279 -0.622032,-2.290036 -0.05006,-2.799797 0.888869,-5.527669 2.65182,-7.704335 -0.95611,2.241316 -1.510196,4.633233 -1.636926,7.066397 4.910778,-2.306394 4.616131,-8.603993 6.40038,-11.450181 -2.160211,-0.524585 -4.425616,0.28574 -5.761979,2.061033 z"
               id="path34"
               fill="#cc9f53" />
            <path
               d="m 93.583443,95.020137 c -1.445524,0.87965 -2.780869,1.928482 -3.97773,3.124264 -0.244529,1.252902 0.445333,2.500649 1.636926,2.960689 1.548454,-1.81773 3.344804,-3.409047 5.336378,-4.727288 -0.591615,-1.061026 -1.807002,-1.611868 -2.995574,-1.357665 z"
               id="path36"
               fill="#cc9f53" />
            <path
               d="m 73.220084,8.6039925 c -2.358176,-0.4730177 -4.740627,0.693873 -5.811088,2.8461875 -1.289189,2.127544 -1.782162,4.642781 -1.391387,7.099112 0.640538,-2.103245 1.661381,-4.071379 3.011944,-5.806877 1.060957,-1.682195 2.494728,-3.0981362 4.190531,-4.1384225 z"
               id="path38"
               fill="#f0d283" />
            <path
               d="m 64.086037,16.668191 c -2.537791,0.150741 -4.655316,1.991318 -5.156317,4.481927 -0.715618,2.502693 -0.530256,5.176914 0.523816,7.557119 0.09295,-2.304643 0.591655,-4.57488 1.473234,-6.706534 0.63246,-1.99495 1.713095,-3.81895 3.159267,-5.332512 z"
               id="path40"
               fill="#f0d283" />
            <path
               d="m 57.047255,27.300501 c -2.499549,0.891297 -4.09449,3.342244 -3.895884,5.986808 -0.01416,2.737749 0.942752,5.391984 2.700928,7.491689 -0.582005,-2.352585 -0.731756,-4.791213 -0.44197,-7.197256 0.0712,-2.189367 0.630429,-4.335265 1.636926,-6.281241 z"
               id="path42"
               fill="#f0d283" />
            <path
               d="m 52.922202,40.173775 c -2.062527,1.308592 -2.979206,3.991205 -2.177112,7.262685 0.800771,2.749741 2.537779,5.133505 4.910778,6.739249 -1.286794,-2.197026 -2.168352,-4.607089 -2.602712,-7.115469 -0.55916,-2.256727 -0.603913,-4.61014 -0.130954,-6.886465 z"
               id="path44"
               fill="#f0d283" />
            <path
               d="m 52.627555,54.568287 c -1.636926,1.962888 -1.636926,4.90722 0.163692,7.851552 1.68171,2.51186 4.198129,4.348557 7.104259,5.185296 -2.002773,-1.793177 -3.666216,-3.931923 -4.910778,-6.313957 -1.282921,-2.034708 -2.088745,-4.332997 -2.357173,-6.722891 z"
               id="path46"
               fill="#f0d283" />
            <path
               d="m 56.93267,69.224517 c -0.998525,2.502683 0,5.512444 2.766405,7.769765 2.527496,1.924808 5.64778,2.908229 8.823031,2.780758 C 65.943598,78.655063 63.587244,77.081605 61.565171,75.129539 59.596849,73.533788 58.013499,71.5155 56.93267,69.224517 Z"
               id="path48"
               fill="#f0d283" />
            <path
               d="m 65.984871,82.424939 c -0.114585,2.82983 1.866095,5.479729 5.450963,6.739249 3.165648,1.034636 6.593707,0.93048 9.690602,-0.294433 -2.93913,-0.212637 -5.816414,-0.949441 -8.495646,-2.175534 -2.510251,-0.901832 -4.782723,-2.361648 -6.645919,-4.269282 z"
               id="path50"
               fill="#f0d283" />
            <polygon
               id="polygon52"
               fill="#cc9f53"
               points="114.3233,50.446222 111.14766,60.227947 100.86776,60.227947 109.18335,66.263828 106.00771,76.045553 114.3233,70.009672 122.65525,76.045553 119.47961,66.263828 127.7952,60.227947 117.5153,60.227947 " />
            <polygon
               id="polygon54"
               fill="#f0d283"
               points="117.5153,60.227947 127.7952,60.227947 114.3233,64.595373 " />
            <polygon
               id="polygon56"
               fill="#f0d283"
               points="114.3233,70.009672 122.65525,76.045553 114.3233,64.595373 " />
            <polygon
               id="polygon58"
               fill="#f0d283"
               points="109.18335,66.263828 106.00771,76.045553 114.3233,64.595373 " />
            <polygon
               id="polygon60"
               fill="#f0d283"
               points="114.3233,64.595373 114.3233,50.446222 111.14766,60.227947 100.86776,60.227947 " />
            <polygon
               id="polygon62"
               fill="#cc9f53"
               points="122.65525,24.846891 119.47961,34.612259 109.18335,34.612259 117.5153,40.664497 114.3233,50.446222 122.65525,44.393984 130.9872,50.446222 127.7952,40.664497 136.12715,34.612259 125.83088,34.612259 " />
            <polygon
               id="polygon64"
               fill="#f0d283"
               points="125.83088,34.612259 136.12715,34.612259 122.65525,38.996042 " />
            <polygon
               id="polygon66"
               fill="#f0d283"
               points="122.65525,44.393984 130.9872,50.446222 122.65525,38.996042 " />
            <polygon
               id="polygon68"
               fill="#f0d283"
               points="117.5153,40.664497 114.3233,50.446222 122.65525,38.996042 " />
            <polygon
               id="polygon70"
               fill="#f0d283"
               points="122.65525,38.996042 122.65525,24.846891 119.47961,34.612259 109.18335,34.612259 " />
            <polygon
               id="polygon72"
               fill="#cc9f53"
               points="100.86776,9.0129275 97.675758,18.794653 87.395863,18.794653 95.711446,24.846891 92.53581,34.612259 100.86776,28.576378 109.18335,34.612259 106.00771,24.846891 114.3233,18.794653 104.0434,18.794653 " />
            <polygon
               id="polygon74"
               fill="#f0d283"
               points="104.0434,18.794653 114.3233,18.794653 100.86776,23.162079 " />
            <polygon
               id="polygon76"
               fill="#f0d283"
               points="100.86776,28.576378 109.18335,34.612259 100.86776,23.162079 " />
            <polygon
               id="polygon78"
               fill="#f0d283"
               points="95.711446,24.846891 92.53581,34.612259 100.86776,23.162079 " />
            <polygon
               id="polygon80"
               fill="#f0d283"
               points="100.86776,23.162079 100.86776,9.0129275 97.675758,18.794653 87.395863,18.794653 " />
            <polygon
               id="polygon82"
               fill="#cc9f53"
               points="79.063909,24.846891 75.888273,34.612259 65.592009,34.612259 73.923962,40.664497 70.748325,50.446222 79.063909,44.393984 87.395863,50.446222 84.220226,40.664497 92.53581,34.612259 82.239546,34.612259 " />
            <polygon
               id="polygon84"
               fill="#f0d283"
               points="82.239546,34.612259 92.53581,34.612259 79.063909,38.996042 " />
            <polygon
               id="polygon86"
               fill="#f0d283"
               points="79.063909,44.393984 87.395863,50.446222 79.063909,38.996042 " />
            <polygon
               id="polygon88"
               fill="#f0d283"
               points="73.923962,40.664497 70.748325,50.446222 79.063909,38.996042 " />
            <polygon
               id="polygon90"
               fill="#f0d283"
               points="79.063909,38.996042 79.063909,24.846891 75.888273,34.612259 65.592009,34.612259 " />
            <polygon
               id="polygon92"
               fill="#cc9f53"
               points="87.395863,50.446222 84.220226,60.227947 73.923962,60.227947 82.239546,66.263828 79.063909,76.045553 87.395863,70.009672 95.711446,76.045553 92.53581,66.263828 100.86776,60.227947 90.571499,60.227947 " />
            <polygon
               id="polygon94"
               fill="#f0d283"
               points="90.571499,60.227947 100.86776,60.227947 87.395863,64.595373 " />
            <polygon
               id="polygon96"
               fill="#f0d283"
               points="87.395863,70.009672 95.711446,76.045553 87.395863,64.595373 " />
            <polygon
               id="polygon98"
               fill="#f0d283"
               points="82.239546,66.263828 79.063909,76.045553 87.395863,64.595373 " />
            <polygon
               id="polygon100"
               fill="#f0d283"
               points="87.395863,64.595373 87.395863,50.446222 84.220226,60.227947 73.923962,60.227947 " />
            <path
               d="m 120.03617,9.6672235 c 2.43902,1.6357405 4.91077,7.2463285 9.82155,6.6411045 -1.15477,-1.90646 -2.6665,-3.572599 -4.45244,-4.90722 0,0 -3.74856,-2.0773899 -5.36911,-1.7338845 z"
               id="path102"
               fill="#f0d283" />
            <path
               d="m 123.57193,78.073871 c -3.17564,2.600826 -11.14747,3.27148 -12.3588,10.092516 3.04318,-0.741739 5.9123,-2.069688 8.44654,-3.909419 1.7631,-1.732542 3.10197,-3.848555 3.91226,-6.183097 z"
               id="path104"
               fill="#f0d283" />
            <path
               d="m 130.95446,75.669333 c 0,0 1.63693,-5.430657 0.81847,-7.458975 -1.42413,3.647701 -7.52986,7.655264 -6.25306,13.854718 2.17001,-1.79982 4.00912,-3.964189 5.43459,-6.395743 z"
               id="path106"
               fill="#f0d283" />
            <path
               d="m 135.57059,72.054348 c -3.02831,-5.201654 1.26044,-10.681383 1.4405,-14.394513 1.42412,1.63574 1.53871,6.98461 1.53871,6.98461 -0.55818,2.623117 -1.5661,5.130021 -2.97921,7.409903"
               id="path108"
               fill="#f0d283" />
            <path
               d="m 142.08556,52.34368 c 0,0 -1.63693,-4.90722 -3.38844,-5.888664 0.90031,3.418697 -1.42412,9.618152 2.83188,13.478498 0.62433,-2.47859 0.81265,-5.046777 0.55656,-7.589834 z"
               id="path110"
               fill="#f0d283" />
            <path
               d="m 137.04383,35.839064 c 1.78425,2.862545 1.44049,9.160144 6.40038,11.45018 -0.13664,-2.431761 -0.69034,-4.82199 -1.63693,-7.066397 0,0 -2.89736,-3.958491 -4.76345,-4.383783 z"
               id="path112"
               fill="#f0d283" />
            <path
               d="m 132.88603,26.351772 c 1.81699,0 5.46734,2.878902 5.46734,2.878902 1.42985,1.82737 2.53704,3.885246 3.27385,6.084953 -5.15632,-0.965087 -6.40038,-6.771964 -8.74119,-8.963855 z"
               id="path114"
               fill="#f0d283" />
            <path
               d="m 126.5675,18.680151 c 1.63693,-0.523437 5.72924,1.275877 5.72924,1.275877 1.76912,1.327699 3.29724,2.948772 4.51792,4.792718 -4.94352,0.458008 -7.49712,-4.645501 -10.24716,-6.068595 z"
               id="path116"
               fill="#f0d283" />
          </g>
        </g>
      </g>
    </g>
  </g>
  <metadata
     id="metadata944">
    <rdf:RDF>
      <cc:Work
         rdf:about="">
        <dc:title>BAAA0853-F465-4AE7-BD43-2B42F91BB2F5@0.5x</dc:title>
      </cc:Work>
    </rdf:RDF>
  </metadata>
</svg>
