<?xml version="1.0" encoding="UTF-8" standalone="no"?>
<svg
   width="124.81214"
   height="133.21391"
   viewBox="0 0 124.81214 133.21391"
   version="1.1"
   id="svg45"
   sodipodi:docname="SMALLLogos_USFL_Gamblers.svg"
   inkscape:version="1.1.1 (3bf5ae0d25, 2021-09-20)"
   xmlns:inkscape="http://www.inkscape.org/namespaces/inkscape"
   xmlns:sodipodi="http://sodipodi.sourceforge.net/DTD/sodipodi-0.dtd"
   xmlns="http://www.w3.org/2000/svg"
   xmlns:svg="http://www.w3.org/2000/svg"
   xmlns:rdf="http://www.w3.org/1999/02/22-rdf-syntax-ns#"
   xmlns:cc="http://creativecommons.org/ns#"
   xmlns:dc="http://purl.org/dc/elements/1.1/">
  <defs
     id="defs49" />
  <sodipodi:namedview
     id="namedview47"
     pagecolor="#ffffff"
     bordercolor="#666666"
     borderopacity="1.0"
     inkscape:pageshadow="2"
     inkscape:pageopacity="0.0"
     inkscape:pagecheckerboard="0"
     showgrid="false"
     inkscape:zoom="1.8625"
     inkscape:cx="13.691275"
     inkscape:cy="64.697987"
     inkscape:window-width="1920"
     inkscape:window-height="1017"
     inkscape:window-x="-8"
     inkscape:window-y="-8"
     inkscape:window-maximized="1"
     inkscape:current-layer="svg45" />
  <title
     id="title2">EADA28F5-C946-45A6-9763-7D8A9ABC23A9@0.5x</title>
  <g
     id="Final-Designs"
     stroke="none"
     stroke-width="1"
     fill="none"
     fill-rule="evenodd"
     transform="translate(-39.234807)">
    <g
       id="Assets"
       transform="translate(-749,-8041)"
       fill-rule="nonzero">
      <g
         id="Team-Logos"
         transform="translate(139.5,7908)">
        <g
           id="Group"
           transform="translate(607.5,133)">
          <g
             id="Gamblers"
             transform="translate(2.5)">
            <path
               d="m 139.46681,123.77458 c -12.09957,6.57152 -25.72534,9.81662 -39.487977,9.40443 -20.594003,0 -36.303117,-6.09028 -46.739995,-18.14173 -9.533065,-11.01847 -14.504031,-27.761378 -14.504031,-48.421006 0,-20.659628 5.078563,-37.424056 14.611628,-48.442525 C 63.675716,6.14382 79.38483,0.03201322 99.978833,0.03201322 113.73957,-0.36171289 127.36061,2.8822673 139.46681,9.4364483 V 46.838984 H 114.18159 L 98.988944,43.567876 V 31.645549 H 89.176127 V 60.289263 H 70.045439 l 6.4558,12.460338 10.071049,-3.507833 9.898894,23.026878 8.930528,4.476253 -1.29116,-6.606777 3.48613,-10.760223 -8.371024,-6.176368 V 61.946337 h 13.901494 l 3.50765,-10.760223 h 11.21157 l 3.50765,10.760223 h 32.19293 v 40.092593 h -13.83694 l -10.2432,7.44607 z"
               id="Path"
               fill="#000000" />
            <path
               d="m 135.57181,121.36429 v -13.73004 l 12.9116,-9.361399 h 11.16854 v -32.28067 h -31.09544 l -3.52917,-10.760223 h -5.57351 l -3.50765,10.760223 h -12.9116 v 5.509234 l 8.95204,6.456134 -4.04563,12.460339 2.60384,13.364192 L 93.329359,95.173906 84.291238,74.14843 74.499941,77.50562 63.740274,56.394062 H 85.259608 V 27.771868 h 17.495222 v 12.675543 l 11.83563,2.625495 h 20.98135 V 11.846738 C 124.81215,6.0577382 112.93347,3.9056936 99.978833,3.9056936 c -19.367401,0 -34.151184,5.6598773 -43.813365,16.8074684 -9.296353,10.760223 -13.643258,26.814476 -13.664858,45.903112 -0.02144,19.088636 4.303947,35.142886 13.664858,45.881596 9.662181,11.14759 24.402925,16.80746 43.813365,16.80746 12.341387,0.36817 24.578327,-2.36198 35.592977,-7.94104 z"
               id="path5"
               fill="#ffffff" />
            <path
               d="m 131.67681,118.954 c -9.92595,4.57029 -20.77529,6.78004 -31.697977,6.45613 -18.226876,0 -31.977731,-5.20794 -40.886736,-15.4732 C 50.807153,100.36033 46.417209,85.382103 46.395612,66.616274 46.374171,47.850445 50.807153,32.850694 59.092097,23.274095 68.001102,12.944281 81.773476,7.8224148 99.978833,7.8224148 110.90078,7.5070794 121.74818,9.7164406 131.67681,14.278549 v 24.791554 h -16.05342 l -8.90901,-1.786197 V 23.876668 H 81.386128 V 52.391259 H 57.349031 l 15.623037,29.698216 9.210275,-3.228067 8.198867,19.002554 25.62953,12.804668 -3.57221,-18.270861 9.87737,-7.166309 9.81282,7.101747 4.02411,-2.92678 -3.74436,-11.513439 11.23309,-8.156249 h 12.11539 v 24.533309 h -8.97356 l -15.06354,10.975432 z"
               id="path7"
               fill="#ea0029" />
            <polygon
               id="polygon9"
               fill="#ffb71b"
               points="107.59668,69.736739 118.78673,69.736739 122.25135,59.084118 125.71596,69.736739 136.90601,69.736739 127.84637,76.321995 131.26795,86.974616 122.20831,80.38936 113.17019,86.974616 116.6348,76.321995 " />
          </g>
        </g>
      </g>
    </g>
  </g>
  <metadata
     id="metadata866">
    <rdf:RDF>
      <cc:Work
         rdf:about="">
        <dc:title>EADA28F5-C946-45A6-9763-7D8A9ABC23A9@0.5x</dc:title>
      </cc:Work>
    </rdf:RDF>
  </metadata>
</svg>
