<?xml version="1.0" encoding="UTF-8" standalone="no"?>
<svg
   width="126.08274"
   height="93.059479"
   viewBox="0 0 126.08274 93.05948"
   version="1.1"
   id="svg57"
   sodipodi:docname="SMALLLogos_USFL_Maulers.svg"
   inkscape:version="1.1.1 (3bf5ae0d25, 2021-09-20)"
   xmlns:inkscape="http://www.inkscape.org/namespaces/inkscape"
   xmlns:sodipodi="http://sodipodi.sourceforge.net/DTD/sodipodi-0.dtd"
   xmlns="http://www.w3.org/2000/svg"
   xmlns:svg="http://www.w3.org/2000/svg"
   xmlns:rdf="http://www.w3.org/1999/02/22-rdf-syntax-ns#"
   xmlns:cc="http://creativecommons.org/ns#"
   xmlns:dc="http://purl.org/dc/elements/1.1/">
  <defs
     id="defs61" />
  <sodipodi:namedview
     id="namedview59"
     pagecolor="#858585"
     bordercolor="#666666"
     borderopacity="1.0"
     inkscape:pageshadow="2"
     inkscape:pageopacity="0"
     inkscape:pagecheckerboard="0"
     showgrid="false"
     inkscape:zoom="4.4345238"
     inkscape:cx="57.616108"
     inkscape:cy="25.143624"
     inkscape:window-width="1920"
     inkscape:window-height="1017"
     inkscape:window-x="-8"
     inkscape:window-y="-8"
     inkscape:window-maximized="1"
     inkscape:current-layer="svg57" />
  <title
     id="title2">5D80F703-BD03-4427-A859-36679259740F@0.5x</title>
  <g
     id="Final-Designs"
     stroke="none"
     stroke-width="1"
     fill="none"
     fill-rule="evenodd"
     transform="translate(-27.397019,-69.078364)">
    <g
       id="Assets"
       transform="translate(-1347,-8057)"
       fill-rule="nonzero">
      <g
         id="Team-Logos"
         transform="translate(139.5,7908)">
        <g
           id="Group"
           transform="translate(1207.5,133)">
          <g
             id="Maulers"
             transform="translate(0,16.25)">
            <path
               d="m 99.991179,161.88784 c -29.425774,0 -53.40037,-20.87794 -53.40037,-46.53856 0.0115,-5.85109 1.268391,-11.63265 3.687042,-16.960017 l -6.174473,1.111843 -0.546882,2.982564 -3.828173,10.58898 -11.378671,2.06485 -0.952633,-9.60068 2.205168,-11.859652 4.798448,-10.889 10.673018,-1.941313 0.79386,9.794805 -0.79386,4.288537 7.850401,-1.394215 c 8.997089,-14.665737 26.76193,-24.707618 47.137696,-24.707618 29.39049,0 53.41801,20.860288 53.41801,46.520916 0,25.66062 -24.02752,46.53856 -53.488581,46.53856 z"
               id="path18"
               fill="#31006f" />
            <polygon
               id="polygon20"
               fill="#ff4d00"
               points="32.777631,109.96655 42.056982,85.753082 37.135044,86.635497 33.28923,94.647824 31.772074,102.78369 " />
            <path
               d="m 124.77728,125.63824 -19.8818,-7.67701 c -0.90791,-0.35383 -1.62078,-1.07983 -1.95819,-1.99426 l -6.580229,-25.131178 9.632179,21.601518 22.93376,11.8773 v 10.30661 z"
               id="path22"
               fill="#ff4d00" />
            <path
               d="m 119.50251,104.31909 13.91903,0.15884 -2.36394,-2.24134 v 0 c 0.34619,-2.991203 -0.59699,-5.988389 -2.59359,-8.241764 -1.9966,-2.253375 -4.85777,-3.549797 -7.86773,-3.564945 4.58675,0.705932 8.55605,7.35934 6.89777,12.159679 z"
               id="path24"
               fill="#ff4d00" />
            <path
               d="M 81.361912,132.48578 H 66.437329 c -1.055233,-2.8e-4 -2.058758,-0.45719 -2.752051,-1.25303 l -4.533827,-5.29449 c -0.795556,-0.93561 -1.073349,-2.20602 -0.740937,-3.38848 l 2.787334,-9.60067 2.963747,-4.21794 3.669401,-9.459492 -2.981388,-3.529659 -8.291436,1.500105 c -2.942106,5.117866 -4.498753,10.915006 -4.516186,16.818826 0,14.11864 8.820676,26.47245 22.281027,33.53177 z"
               id="path26"
               fill="#ffffff" />
            <path
               d="m 99.991179,74.281688 c -16.706359,0 -31.436888,7.059319 -40.028226,17.930671 l 4.763165,-0.882415 2.187528,-3.917922 c 0.338775,-0.601459 0.926766,-1.021618 1.605363,-1.14714 l 7.673987,-1.288325 c 1.008147,-0.181546 2.025941,0.264786 2.575638,1.129491 l 1.534797,2.38252 h 0.299903 l 1.640646,-3.52966 c 0.345523,-0.698887 0.998516,-1.195358 1.764135,-1.34127 l 9.102937,-1.535402 c 1.105541,-0.191773 2.20897,0.349477 2.73441,1.341271 l 1.18197,2.029554 15.242128,-2.770783 -0.86443,4.659151 -12.207812,2.223685 9.879162,18.671896 3.1578,1.76483 -1.09377,-4.11205 h -2.66384 l 1.28782,-2.559 c -0.74272,-4.981711 1.413,-9.952077 5.55702,-12.812668 2.76031,-1.835084 6.15947,-2.438267 9.38229,-1.664889 3.22281,0.773378 5.97856,2.853555 7.60633,5.741646 1.22906,2.066527 1.88096,4.425262 1.88763,6.829891 l 4.09279,5.66511 h -5.2924 l 0.2999,4.51796 h -1.99347 l -0.29991,6.42398 -2.59327,0.72358 4.46326,2.43547 c 0.86601,0.49594 1.3984,1.41956 1.39366,2.41781 v 9.63597 c 0.005,1.10086 -0.41164,2.16183 -1.16432,2.96492 l -8.20323,8.34764 -3.17545,0.52945 -6.59786,6.77695 c 18.94681,-5.2592 32.83055,-20.2073 32.83055,-37.78501 0,-21.954482 -21.52245,-39.796912 -47.966831,-39.796912 z"
               id="path28"
               fill="#ffffff" />
            <path
               d="m 83.93755,92.300601 -2.946106,0.529448 -5.698156,1.04125 3.52827,1.853072 -2.963747,19.907279 4.004586,-1.20008 1.111406,-1.65894 c 0.414794,-0.6382 1.038417,-1.11234 1.764135,-1.34127 l 8.450207,-2.52371 -3.175443,-14.683385 z"
               id="path30"
               fill="#ffffff" />
          </g>
        </g>
      </g>
    </g>
  </g>
  <metadata
     id="metadata878">
    <rdf:RDF>
      <cc:Work
         rdf:about="">
        <dc:title>5D80F703-BD03-4427-A859-36679259740F@0.5x</dc:title>
      </cc:Work>
    </rdf:RDF>
  </metadata>
</svg>
