<?xml version="1.0" encoding="UTF-8" standalone="no"?>
<svg
   width="148.79893"
   height="84.171356"
   viewBox="0 0 148.79893 84.171356"
   version="1.1"
   id="svg61"
   sodipodi:docname="SMALLLogos_USFL_Panthers.svg"
   inkscape:version="1.1.1 (3bf5ae0d25, 2021-09-20)"
   xmlns:inkscape="http://www.inkscape.org/namespaces/inkscape"
   xmlns:sodipodi="http://sodipodi.sourceforge.net/DTD/sodipodi-0.dtd"
   xmlns="http://www.w3.org/2000/svg"
   xmlns:svg="http://www.w3.org/2000/svg"
   xmlns:rdf="http://www.w3.org/1999/02/22-rdf-syntax-ns#"
   xmlns:cc="http://creativecommons.org/ns#"
   xmlns:dc="http://purl.org/dc/elements/1.1/">
  <defs
     id="defs65" />
  <sodipodi:namedview
     id="namedview63"
     pagecolor="#ffffff"
     bordercolor="#666666"
     borderopacity="1.0"
     inkscape:pageshadow="2"
     inkscape:pageopacity="0.0"
     inkscape:pagecheckerboard="0"
     showgrid="false"
     showguides="true"
     inkscape:guide-bbox="true"
     inkscape:zoom="5.1736111"
     inkscape:cx="107.73018"
     inkscape:cy="67.065558"
     inkscape:window-width="1920"
     inkscape:window-height="1017"
     inkscape:window-x="-8"
     inkscape:window-y="-8"
     inkscape:window-maximized="1"
     inkscape:current-layer="svg61">
    <sodipodi:guide
       position="7.7482339,10.374706"
       orientation="1,0"
       id="guide955" />
    <sodipodi:guide
       position="9.2032788,0.0768982"
       orientation="0,-1"
       id="guide4560" />
  </sodipodi:namedview>
  <title
     id="title2">79CF9F08-9711-4926-A34C-73B979E694F4@0.5x</title>
  <path
     style="fill:#702e3e;fill-opacity:1;stroke:none;stroke-width:1px;stroke-linecap:butt;stroke-linejoin:miter;stroke-opacity:1"
     d="M 26.560281,15.823164 21.41564,28.853039 7.871919,63.161208 l -0.123685,20.95222 1.455045,-0.019 65.450362,-0.0657 H 115.56423 L 148.79894,0 H 32.822609 L 26.560281,15.823164 7.871919,63.161208 0,84.171358 l 9.203279,-0.0769"
     id="path957"
     sodipodi:nodetypes="ccccccccccccc" />
  <g
     id="Final-Designs"
     stroke="none"
     stroke-width="1"
     fill="none"
     fill-rule="evenodd"
     transform="translate(-19.215524,-46.622142)">
    <g
       id="Assets"
       transform="translate(-1647,-8069)"
       fill-rule="nonzero">
      <g
         id="Team-Logos"
         transform="translate(139.5,7908)">
        <g
           id="Group"
           transform="translate(1507.5,133)">
          <g
             id="Panthers"
             transform="translate(0,28.5)">
            <path
               d="m 107.57725,105.94783 c -2.87639,-0.78869 -4.5858,-2.25106 -4.35569,-4.07491 0.39448,-3.286226 6.57463,-6.342413 13.97108,-6.999658 7.39645,-0.657244 11.01249,0.427209 10.65088,3.713432 -0.0616,0.442063 -0.21256,0.866956 -0.44378,1.248765 17.83366,-4.814317 21.36752,-14.410088 21.36752,-14.410088 -3.22748,-3.652684 -6.89944,-6.88735 -10.93031,-9.628634 -2.48392,-5.954509 -7.08647,-10.777983 -12.91913,-13.53924 -19.72387,-9.119269 -41.436558,-12.257612 -50.460226,-13.25991 0.401367,1.79233 0.973789,3.542041 1.709401,5.225095 -10.407687,1.324775 -20.613998,3.918273 -30.39119,7.722624 L 52.038133,46.122142 H 168.01446 l -2.79421,7.081811 H 110.7002 c 5.44531,1.717636 10.77135,3.792461 15.94345,6.210961 h 36.07824 l -2.95858,7.459727 h -23.58645 c 1.26338,1.525021 2.36505,3.176979 3.28731,4.929335 h 18.32676 l -3.0572,7.722624 h -6.80474 c 0.80539,0.755831 1.64366,1.544525 2.30112,2.366081 h 3.68179 l -7.79093,19.717339 h -13.41223 c -1.38067,0.49293 -3.5996,1.19947 -5.40762,1.64311 h 18.08021 l -4.93097,12.66839 h -23.88231 c -0.44319,0.57594 -0.92072,1.12464 -1.42998,1.64311 h 24.57265 l -4.93097,12.58624 H 93.869165 c -3.796095,-3.68144 -7.000644,-7.92689 -9.500329,-12.58624 h 11.850756 l -1.462853,-1.64311 H 83.530572 c -1.646583,-3.33877 -2.919891,-6.84885 -3.796844,-10.46662 10.634451,0.69011 17.915845,9.05354 22.386592,15.67528 12.17948,-3.77915 13.42866,-10.46662 13.42866,-10.46662 -1.56935,0.64129 -3.23729,1.00812 -4.93097,1.08446 -4.93096,0.2136 -8.80999,-2.18534 -10.02629,-5.75089 2.25264,0.85801 4.74523,0.84042 6.98553,-0.0493 z"
               id="path24"
               fill="#b2a77e" />
            <path
               d="M 40.631164,74.975181 27.087443,109.28335 c 7.427724,-14.8783 18.45643,-27.665559 32.084155,-37.200045 3.944888,-2.69981 8.106592,-5.068503 12.442472,-7.081811 -10.818998,1.542753 -21.29631,4.915497 -30.982906,9.973687 z"
               id="path26"
               fill="#b2a77e" />
            <path
               d="M 57.001972,85.622544 C 44.378698,96.61496 34.697567,111.55084 28.418803,130.21659 h 20.890862 c -3.084604,-15.30356 -0.34131,-31.207061 7.692307,-44.594046 z"
               id="path28"
               fill="#4197cb" />
            <path
               d="m 133.33333,79.82236 c -3.48455,-7.706193 -7.10059,-10.483052 -10.96318,-12.274043 -6.08603,-2.795035 -12.37782,-5.118655 -18.81985,-6.950362 l -3.50099,1.643111 c -4.337257,-2.536533 -9.080587,-4.30427 -14.020382,-5.225095 3.802467,2.70263 7.162592,5.9785 9.960553,9.71079 l -4.421434,2.103183 c -1.051939,-0.607952 -2.038132,-1.232334 -2.95858,-1.840285 -2.597914,0.0085 -5.084539,1.055253 -6.90605,2.907025 -1.821511,1.851771 -2.826638,4.354813 -2.791517,6.951644 0,0 -0.279421,15.379524 25.59172,11.92899 h 0.0822 c -1.82222,1.338374 -3.37293,3.011258 -4.56936,4.929335 6.31919,-3.362144 13.45218,-4.892983 20.595,-4.41997 -11.40363,-4.198143 -23.16598,-7.349497 -35.141355,-9.41503 16.699965,0.481177 33.121705,4.396481 48.241285,11.501781 1.61775,-0.76986 3.16345,-1.682677 4.61868,-2.727565 l -0.54241,-2.596116 h 3.28731 c -2.35197,-2.34477 -4.94715,-4.432351 -7.74162,-6.227393 z"
               id="path30"
               fill="#b2a77e" />
            <path
               d="m 115.1545,67.89337 c 0.35464,2.219232 1.3882,4.274175 2.95858,5.88234 l 0.60816,0.180742 1.80802,-1.90601 2.7449,3.53269 c 1.84765,0.687025 3.64381,1.505189 5.37475,2.448236 C 124.42472,71.179593 115.1545,67.89337 115.1545,67.89337 Z"
               id="path32"
               fill="#702e3e" />
            <path
               d="m 118.72124,73.940021 c 1.74227,0.525795 3.28731,1.051591 4.5858,1.643111 l -2.77778,-3.466965 z"
               id="path34"
               fill="#4197cb" />
            <path
               d="m 100.26299,75.287372 c 9.69683,3.039199 19.14783,6.812855 28.27087,11.288177 1.71512,0.889471 3.6942,1.128749 5.57199,0.673675 0.31769,-0.05782 0.61992,-0.180909 0.88757,-0.361484 -10.86881,-5.728911 -22.59966,-9.647148 -34.73043,-11.600368 z"
               id="path36"
               fill="#702e3e" />
            <path
               d="M 58.678501,130.21659 H 74.391847 C 66.607607,115.74255 64.870301,98.776928 69.5595,83.026428 57.39645,98.159485 55.884287,115.01781 58.678501,130.21659 Z"
               id="path38"
               fill="#b2a77e" />
          </g>
        </g>
      </g>
    </g>
  </g>
  <metadata
     id="metadata916">
    <rdf:RDF>
      <cc:Work
         rdf:about="">
        <dc:title>79CF9F08-9711-4926-A34C-73B979E694F4@0.5x</dc:title>
      </cc:Work>
    </rdf:RDF>
  </metadata>
</svg>
