<?xml version="1.0" encoding="UTF-8" standalone="no"?>
<svg
   width="142.30914"
   height="133.27769"
   viewBox="0 0 142.30914 133.27769"
   version="1.1"
   id="svg109"
   sodipodi:docname="SMALLLogos_USFL_Stars.svg"
   inkscape:version="1.1.1 (3bf5ae0d25, 2021-09-20)"
   xmlns:inkscape="http://www.inkscape.org/namespaces/inkscape"
   xmlns:sodipodi="http://sodipodi.sourceforge.net/DTD/sodipodi-0.dtd"
   xmlns="http://www.w3.org/2000/svg"
   xmlns:svg="http://www.w3.org/2000/svg"
   xmlns:rdf="http://www.w3.org/1999/02/22-rdf-syntax-ns#"
   xmlns:cc="http://creativecommons.org/ns#"
   xmlns:dc="http://purl.org/dc/elements/1.1/">
  <defs
     id="defs113" />
  <sodipodi:namedview
     id="namedview111"
     pagecolor="#a4a4a4"
     bordercolor="#666666"
     borderopacity="1.0"
     inkscape:pageshadow="2"
     inkscape:pageopacity="0"
     inkscape:pagecheckerboard="0"
     showgrid="false"
     inkscape:zoom="3.8802083"
     inkscape:cx="51.672483"
     inkscape:cy="96"
     inkscape:window-width="1920"
     inkscape:window-height="1017"
     inkscape:window-x="-8"
     inkscape:window-y="-8"
     inkscape:window-maximized="1"
     inkscape:current-layer="svg109" />
  <title
     id="title2">DB4EB73C-7556-41D1-860A-5D02DB3570AA@0.5x</title>
  <g
     id="Final-Designs"
     stroke="none"
     stroke-width="1"
     fill="none"
     fill-rule="evenodd"
     transform="translate(-48.469388)">
    <g
       id="Assets"
       transform="translate(-2247,-8045)"
       fill-rule="nonzero">
      <g
         id="Team-Logos"
         transform="translate(139.5,7908)">
        <g
           id="Group"
           transform="translate(2107.5,133)">
          <g
             id="Stars"
             transform="translate(0,4)">
            <polygon
               id="polygon32"
               fill="#ffffff"
               points="161.90476,42.114544 190.77853,65.8642 153.87377,86.968707 161.60242,132.16296 125.88813,102.95296 72.826909,133.2777 88.907785,107.10962 60.657596,123.24503 76.719577,97.095847 48.469388,113.23125 78.571429,64.258217 51.625095,42.114544 92.176871,42.114544 118.065,0 125.26455,42.114544 " />
            <polygon
               id="polygon34"
               fill="#ff6b00"
               points="134.90174,60.120449 128.26908,63.899232 140.47619,73.913009 147.10884,70.115332 " />
            <polygon
               id="polygon36"
               fill="#ff6b00"
               points="75.170068,105.80594 70.030234,114.15706 79.062736,108.99902 " />
            <polygon
               id="polygon38"
               fill="#ff6b00"
               points="93.839758,83.586696 87.207105,87.365479 99.395314,97.379256 106.02797,93.581578 " />
            <polygon
               id="polygon40"
               fill="#ff6b00"
               points="88.057445,103.85987 80.291005,97.49262 76.511716,103.61425 81.424792,107.65755 " />
            <polygon
               id="polygon42"
               fill="#ff6b00"
               points="143.89645,54.981303 137.26379,58.778981 149.452,68.773863 156.08466,64.99508 " />
            <polygon
               id="polygon44"
               fill="#ff6b00"
               points="97.052154,98.720724 85.393046,89.179295 81.632653,95.300925 90.419501,102.5184 " />
            <polygon
               id="polygon46"
               fill="#ff6b00"
               points="125.94482,65.278488 127.75888,75.953553 139.92819,85.929541 138.11414,75.254477 " />
            <polygon
               id="polygon48"
               fill="#ff6b00"
               points="130.91459,94.375123 132.59637,104.14328 144.76568,114.15706 143.0839,104.37001 " />
            <polygon
               id="polygon50"
               fill="#ff6b00"
               points="114.07785,88.990356 101.85185,79.014367 96.201814,82.226333 108.39002,92.24011 " />
            <polygon
               id="polygon52"
               fill="#ff6b00"
               points="130.27211,90.558551 142.44142,100.55343 140.58957,89.727219 128.42026,79.770124 " />
            <polygon
               id="polygon54"
               fill="#ff6b00"
               points="160.73318,45.345404 155.25321,48.500689 167.44142,58.495572 172.92139,55.378075 " />
            <polygon
               id="polygon56"
               fill="#ff6b00"
               points="152.89116,49.842157 146.2585,53.639835 158.44671,63.634718 165.07936,59.855934 " />
            <polygon
               id="polygon58"
               fill="#ffb71b"
               points="152.75888,99.684314 140.58957,89.727219 142.44142,100.55343 154.61073,110.52942 " />
            <polygon
               id="polygon60"
               fill="#ffb71b"
               points="87.358277,115.80083 82.218443,124.17083 91.269841,119.01279 " />
            <polygon
               id="polygon62"
               fill="#ffb71b"
               points="152.09751,95.867743 150.28345,85.268254 150.30234,85.268254 138.11414,75.254477 139.92819,85.929541 " />
            <polygon
               id="polygon64"
               fill="#ffb71b"
               points="143.0839,104.37001 144.76568,114.15706 156.935,124.17083 155.25321,114.346 " />
            <polygon
               id="polygon66"
               fill="#ffb71b"
               points="118.23507,103.59535 106.02797,93.581578 99.395314,97.379256 111.60242,107.39303 " />
            <polygon
               id="polygon68"
               fill="#ffb71b"
               points="109.24036,108.7345 97.581255,99.174178 93.820862,105.29581 102.60771,112.51328 " />
            <polygon
               id="polygon70"
               fill="#ffb71b"
               points="172.92139,55.378075 167.44142,58.495572 179.62963,68.509349 185.0907,65.391852 " />
            <polygon
               id="polygon72"
               fill="#ffb71b"
               points="168.29176,74.989963 156.08466,64.99508 149.452,68.773863 161.65911,78.78764 " />
            <polygon
               id="polygon74"
               fill="#ffb71b"
               points="100.24565,113.87365 92.479214,107.4875 88.699924,113.62803 93.613001,117.65243 " />
            <polygon
               id="polygon76"
               fill="#ffb71b"
               points="177.26757,69.850817 165.07936,59.855934 158.44671,63.634718 170.65382,73.648494 " />
            <polygon
               id="polygon78"
               fill="#ffb71b"
               points="159.29705,80.129108 147.10884,70.115332 140.47619,73.913009 152.6644,83.926786 " />
            <polygon
               id="polygon80"
               fill="#ffb71b"
               points="79.062736,108.99902 75.170068,105.80594 76.511716,103.61425 81.424792,107.65755 " />
            <polygon
               id="polygon82"
               fill="#ffb71b"
               points="147.10884,70.115332 134.90174,60.120449 137.26379,58.778981 149.452,68.773863 " />
            <polygon
               id="polygon84"
               fill="#ffb71b"
               points="97.052154,98.720724 85.393046,89.179295 87.207105,87.365479 99.395314,97.379256 " />
            <polygon
               id="polygon86"
               fill="#ffb71b"
               points="88.057445,103.85987 80.291005,97.49262 81.632653,95.300925 90.419501,102.5184 " />
            <polygon
               id="polygon88"
               fill="#ffb71b"
               points="138.11414,75.254477 125.94482,65.278488 128.26908,63.899232 140.47619,73.913009 " />
            <polygon
               id="polygon90"
               fill="#ffb71b"
               points="106.02797,93.581578 93.839758,83.586696 96.201814,82.226333 108.39002,92.24011 " />
            <polygon
               id="polygon92"
               fill="#ffb71b"
               points="143.0839,104.37001 130.91459,94.375123 130.27211,90.558551 142.44142,100.55343 " />
            <polygon
               id="polygon94"
               fill="#ffb71b"
               points="140.58957,89.727219 128.42026,79.770124 127.75888,75.953553 139.92819,85.929541 " />
            <polygon
               id="polygon96"
               fill="#ffb71b"
               points="165.07936,59.855934 152.89116,49.842157 155.25321,48.500689 167.44142,58.495572 " />
            <polygon
               id="polygon98"
               fill="#ffb71b"
               points="156.08466,64.99508 143.89645,54.981303 146.2585,53.639835 158.44671,63.634718 " />
            <polygon
               id="polygon100"
               fill="#ffb71b"
               points="126.28496,98.985239 114.07785,88.990356 108.39002,92.24011 120.59713,102.25389 " />
            <polygon
               id="polygon102"
               fill="#c10230"
               points="122.52456,45.345404 116.32653,9.0123991 93.99093,45.345404 60.714286,45.345404 82.860922,63.464672 57.860922,104.14328 101.85185,79.014367 132.59637,104.14328 125.92593,65.240701 160.73318,45.345404 " />
          </g>
        </g>
      </g>
    </g>
  </g>
  <metadata
     id="metadata930">
    <rdf:RDF>
      <cc:Work
         rdf:about="">
        <dc:title>DB4EB73C-7556-41D1-860A-5D02DB3570AA@0.5x</dc:title>
      </cc:Work>
    </rdf:RDF>
  </metadata>
</svg>
