<?xml version="1.0" encoding="UTF-8" standalone="no"?>
<svg
   width="143.79968"
   height="105.57703"
   viewBox="0 0 143.79968 105.57703"
   version="1.1"
   id="svg67"
   sodipodi:docname="SMALLLogos_USFL_Bandits.svg"
   inkscape:version="1.1.1 (3bf5ae0d25, 2021-09-20)"
   xmlns:inkscape="http://www.inkscape.org/namespaces/inkscape"
   xmlns:sodipodi="http://sodipodi.sourceforge.net/DTD/sodipodi-0.dtd"
   xmlns="http://www.w3.org/2000/svg"
   xmlns:svg="http://www.w3.org/2000/svg"
   xmlns:rdf="http://www.w3.org/1999/02/22-rdf-syntax-ns#"
   xmlns:cc="http://creativecommons.org/ns#"
   xmlns:dc="http://purl.org/dc/elements/1.1/">
  <defs
     id="defs71">
    <inkscape:path-effect
       effect="spiro"
       id="path-effect1433"
       is_visible="true"
       lpeversion="1" />
    <inkscape:path-effect
       effect="spiro"
       id="path-effect1279"
       is_visible="true"
       lpeversion="1" />
    <clipPath
       clipPathUnits="userSpaceOnUse"
       id="clipPath940">
      <path
         id="path942"
         style="fill:#ff0000;fill-opacity:1;fill-rule:nonzero;stroke:none"
         d="m 188.80664,0.75 -0.0234,2.1347656 c 0.9642,-0.00797 1.92841,-0.013813 2.89258,-0.023437 1.81756,-0.017013 3.63362,-0.032668 5.45117,-0.050781 C 198.08466,2.800997 199.04233,2.7910949 200,2.78125 V 0.75 Z M 0,15.455078 V 159 H 200 V 32.964844 c -0.85749,0.0088 -1.71499,0.01684 -2.57227,0.02539 -1.8237,0.01818 -3.64699,0.03567 -5.4707,0.05273 -1.88808,0.01883 -3.77593,0.03361 -5.66406,0.04687 -1.92636,0.01445 -3.85291,0.02606 -5.7793,0.03516 -1.92487,0.0089 -3.84857,0.01709 -5.77344,0.02539 -1.94517,0.0085 -3.89074,0.01313 -5.83593,0.01563 -2.00148,0.0037 -4.00442,-0.002 -6.00586,-0.01563 -2.06068,-0.01379 -4.1194,-0.0463 -6.17969,-0.08789 -2.0939,-0.04279 -4.18806,-0.107091 -6.28125,-0.175781 -2.08666,-0.07 -4.17352,-0.145353 -6.25977,-0.226563 -2.08301,-0.08191 -4.16515,-0.167023 -6.24804,-0.251953 -2.09221,-0.08558 -4.18498,-0.16841 -6.27735,-0.25 -2.10886,-0.08218 -4.21719,-0.161114 -6.32617,-0.240234 -2.09948,-0.07876 -4.19928,-0.157555 -6.29883,-0.234375 -2.0543,-0.07519 -4.10973,-0.148246 -6.16406,-0.222656 -1.9948,-0.07229 -3.98956,-0.145097 -5.98437,-0.216797 -1.93471,-0.06952 -3.86801,-0.137982 -5.80274,-0.207032 -1.581562,-0.05667 -3.164468,-0.112898 -4.746092,-0.167968 L 96.746094,18.9414 c -0.06576,-0.0024 -0.131501,-0.0054 -0.197266,-0.0078 -2.120163,-0.0775 -4.239323,-0.155848 -6.359375,-0.236328 -2.126017,-0.08067 -4.252985,-0.162934 -6.378906,-0.246094 -2.146179,-0.08395 -4.291404,-0.167876 -6.4375,-0.253906 -2.159268,-0.08653 -4.319161,-0.175416 -6.478516,-0.259766 -2.155526,-0.0843 -4.311015,-0.166621 -6.466797,-0.244141 -2.124754,-0.07747 -4.249847,-0.15301 -6.375,-0.21875 -2.111326,-0.06583 -4.222552,-0.127173 -6.333984,-0.189453 -2.092635,-0.06161 -4.184759,-0.122267 -6.277344,-0.185547 -2.077093,-0.06249 -4.155582,-0.124812 -6.232422,-0.195312 -2.015988,-0.06808 -4.031043,-0.138358 -6.046875,-0.210938 -1.969363,-0.07076 -3.938802,-0.14319 -5.908203,-0.21289 -1.99054,-0.07073 -3.982172,-0.142554 -5.972656,-0.214844 -1.994649,-0.07263 -3.987951,-0.145246 -5.982422,-0.222656 C 13.421934,15.970039 11.544834,15.893963 9.6679688,15.820312 7.9648695,15.755831 6.2618395,15.701015 4.5585938,15.640625 3.038876,15.585553 1.5189672,15.528786 0,15.455078 Z" />
    </clipPath>
    <clipPath
       clipPathUnits="userSpaceOnUse"
       id="clipPath1361">
      <path
         style="fill:none;stroke:#000000;stroke-width:1px;stroke-linecap:butt;stroke-linejoin:miter;stroke-opacity:1"
         d="m 49.09964,58.566165 2.059773,5.09351 25.859966,-0.04286 6.877037,-2.395155 c 2.992766,-1.042329 5.884102,-2.345582 8.763996,-3.668196 7.088277,-3.255346 14.880038,-5.629269 22.619988,-4.662777 3.99774,0.499201 7.84237,1.875757 11.48629,3.59419 7.97414,3.760519 15.05226,9.137216 22.33295,14.109127 3.00658,2.053162 6.11331,4.094339 8.34971,6.967231 1.1182,1.436445 2.00173,3.074593 2.43786,4.841946 0.43613,1.767352 0.40927,3.668436 -0.22155,5.376013 -0.71152,1.926029 -2.17397,3.537398 -3.95323,4.562137 -1.77926,1.024739 -3.8584,1.479861 -5.91133,1.443476 -4.10586,-0.07277 -7.95928,-2.04034 -11.26322,-4.479061 -0.63551,-0.469083 -1.25923,-0.958575 -1.9433,-1.353486 -0.68407,-0.394911 -1.43847,-0.695145 -2.22655,-0.748379 -0.96751,-0.06535 -1.94554,0.254062 -2.7266,0.828776 -0.78107,0.574714 -1.36824,1.39423 -1.72164,2.29726 -0.7068,1.806059 -0.47727,3.863357 0.16698,5.692659 0.91561,2.599788 2.60386,4.844324 4.27471,7.036464 1.67085,2.19214 3.37399,4.42162 4.32731,7.00782 0.99108,2.68865 1.11352,5.65951 0.55853,8.47075 -0.55499,2.81123 -1.76839,5.46815 -3.34924,7.85812 -3.1617,4.77995 -7.70528,8.44673 -12.14965,12.06499 -9.05899,7.37511 -18.35868,15.06832 -29.578891,18.31863 -6.086235,1.76308 -12.583469,2.1289 -18.81285,0.96893 -6.229381,-1.15998 -12.178798,-3.85226 -17.104378,-7.83841 -6.301562,-5.0997 -10.750578,-12.0931 -14.839835,-19.09271 -4.089258,-6.99962 -7.99361,-14.21975 -13.531757,-20.13968 -2.344752,-2.50639 -4.958586,-4.75191 -7.271949,-7.2873 -2.313364,-2.53539 -4.353398,-5.429532 -5.253807,-8.741498 -1.145294,-4.212728 -0.343747,-8.742226 1.207302,-12.823037 2.394812,-6.300751 6.583385,-11.908354 11.945608,-15.992612 5.362222,-4.084258 11.881185,-6.632291 18.591767,-7.266868"
         id="path1363"
         inkscape:path-effect="#path-effect1279"
         inkscape:original-d="m 49.09964,58.566165 2.059773,5.09351 25.859966,-0.04286 6.877037,-2.395155 c 0,0 5.843664,-2.444453 8.763996,-3.668196 2.920332,-1.223744 15.080988,-3.107506 22.619988,-4.662777 7.53899,-1.55527 7.65852,2.397139 11.48629,3.59419 3.82776,1.197052 14.88963,9.407097 22.33295,14.109127 7.44332,4.70203 7.04501,11.457805 10.56602,17.18519 3.52101,5.727386 -14.08419,1.018714 -21.12778,1.526552 -7.04359,0.50784 -2.7789,-1.400232 -4.16985,-2.101865 -1.39095,-0.701634 -2.85317,5.880141 -4.28126,8.818695 -1.42809,2.938553 5.73568,9.363874 8.60202,14.044284 2.86634,4.68042 -9.95924,18.93025 -14.94036,28.39386 -4.98112,9.46362 -19.71826,12.21343 -29.578891,18.31863 -9.860631,6.1052 -23.943819,-4.57864 -35.917228,-6.86948 C 46.278902,147.61903 39.338916,123.75596 29.880719,110.67748 20.422522,97.599005 21.531215,99.99263 17.354963,94.648682 c -4.176252,-5.343944 0.805868,-8.54768 1.207302,-12.823037 0.401434,-4.275357 20.35925,-15.505308 30.537375,-23.25948" />
    </clipPath>
    <clipPath
       clipPathUnits="userSpaceOnUse"
       id="clipPath1639">
      <path
         id="path1641"
         style="fill:none;stroke:#000000;stroke-width:1px;stroke-linecap:butt;stroke-linejoin:miter;stroke-opacity:1"
         d="m 60.544922,47.753906 c 0.01533,0.129858 0.02955,0.259659 0.03516,0.390625 0.01086,0.224266 0.01847,0.449271 0.01367,0.673828 -0.0031,0.178126 -0.0088,0.357211 -0.01758,0.535157 -0.01002,0.207041 -0.02256,0.412821 -0.04297,0.61914 -0.02184,0.213315 -0.04696,0.426781 -0.08008,0.638672 -0.02788,0.184702 -0.05743,0.368766 -0.08984,0.552734 -0.03318,0.189091 -0.06787,0.378138 -0.105469,0.566407 -0.038,0.191527 -0.07561,0.38343 -0.117187,0.574219 -0.04558,0.207728 -0.0938,0.414555 -0.144531,0.621093 -0.07189,0.286793 -0.149557,0.572579 -0.248047,0.851563 -0.08415,0.238178 -0.173733,0.474049 -0.271485,0.707031 -0.07966,0.191573 -0.161103,0.38299 -0.246093,0.572266 -0.06519,0.145958 -0.131023,0.291139 -0.195313,0.4375 -0.06072,0.138088 -0.12139,0.275769 -0.18164,0.414062 -0.04671,0.107772 -0.0941,0.216072 -0.140625,0.324219 0.02083,3.23e-4 0.04168,0.0017 0.0625,0.002 0.215481,0.0031 0.431,0.0069 0.646484,0.0098 0.217454,0.0027 0.434884,0.0038 0.652344,0.0059 0.219126,0.0019 0.437119,0.0026 0.65625,0.0039 0.21982,10e-4 0.440335,0.0013 0.660156,0.002 0.223354,6e-4 0.446568,0.0013 0.669922,0.002 0.233032,7.01e-4 0.466195,0.0017 0.699219,0.0039 0.239481,0.0023 0.479296,0.0055 0.71875,0.0098 0.244299,0.0047 0.488238,0.01043 0.732422,0.01953 0.230895,0.0081 0.46058,0.01744 0.691406,0.02734 0.227972,0.0097 0.457623,0.02045 0.685547,0.03125 0.224931,0.01096 0.448944,0.02129 0.673828,0.0332 0.22838,0.01214 0.45722,0.02597 0.685547,0.03906 0.250324,0.015 0.500041,0.03051 0.75,0.05078 0.253623,0.02057 0.506645,0.04223 0.759765,0.06836 0.266852,0.02767 0.534999,0.05902 0.800781,0.0957 0.259406,0.03547 0.517185,0.07178 0.775391,0.115234 0.08674,0.01452 0.173072,0.03175 0.259766,0.04687 -0.921585,-1.559019 -1.784085,-3.167075 -2.945313,-4.55664 C 65.7376,50.315753 63.588952,48.869379 61.251954,47.95139 61.023614,47.8617 60.776601,47.834072 60.544923,47.754124 Z m 56.408198,6.083985 c -1.28163,-0.02879 -2.55887,0.160457 -3.83984,0.210937 -1.54164,0.06076 -3.10477,-0.07672 -4.61133,0.25586 -0.75328,0.166291 -1.48842,0.452442 -2.10937,0.910156 -0.62095,0.457714 -1.12287,1.094688 -1.34961,1.832031 -0.11118,0.361538 -0.16237,0.754322 -0.37891,1.064453 -0.18166,0.260178 -0.46724,0.435211 -0.77148,0.525391 -0.30424,0.09018 -0.62687,0.101035 -0.94336,0.07813 -0.63299,-0.04587 -1.26454,-0.22216 -1.89258,-0.13086 -0.60184,0.08749 -1.142021,0.412282 -1.65039,0.746094 -0.508369,0.333813 -1.01666,0.690813 -1.601562,0.857422 -0.843261,0.240201 -1.747481,0.05919 -2.585938,-0.197266 -0.838458,-0.256457 -1.664896,-0.590323 -2.539062,-0.658203 -0.107349,-0.0083 -0.210506,0.03869 -0.31836,0.03906 l 0.230469,0.685547 c -0.108692,0.03661 -0.216905,0.07255 -0.326172,0.107421 -0.117476,0.03752 -0.234905,0.07556 -0.353516,0.109376 -0.130333,0.03672 -0.261975,0.07172 -0.394531,0.09961 -0.137624,0.02818 -0.27621,0.05178 -0.416016,0.06641 -0.125028,0.01291 -0.24933,0.02314 -0.375,0.02734 -0.11538,0.0039 -0.232198,0.0073 -0.347656,0.0059 -0.108475,-0.0016 -0.215945,-0.0039 -0.324218,-0.0098 -0.16318,0.259607 -0.289693,0.540671 -0.429688,0.814453 -0.160187,0.313268 -0.365322,0.620763 -0.669922,0.796875 -0.168504,0.09743 -0.360946,0.149268 -0.554687,0.167969 -0.193741,0.0187 -0.387739,0.0045 -0.580079,-0.02539 -0.384664,-0.05978 -0.760108,-0.181026 -1.146484,-0.228516 -0.451628,-0.05551 -0.908244,-0.0083 -1.357422,0.06445 -1.032274,0.167126 -2.043521,0.4694 -2.998047,0.896485 -1.224323,0.359225 -2.514333,0.385985 -3.779297,0.224609 v 2.398438 c -0.0038,0 -0.01542,2.9e-5 -0.01172,0 0.125328,-9e-4 -0.0041,-5.36e-4 -0.03516,0 -0.109359,0.0021 -0.218762,9.61e-4 -0.328126,0 -0.13495,-7e-4 -0.269406,-0.004 -0.404296,-0.0078 -0.154081,-0.0042 -0.308901,-0.0089 -0.462891,-0.01563 -0.164179,-0.0074 -0.328135,-0.01774 -0.492187,-0.02734 -0.168178,-0.0098 -0.335863,-0.02139 -0.503907,-0.0332 -0.182699,-0.01255 -0.364489,-0.02654 -0.546875,-0.04297 -0.204812,-0.01848 -0.409118,-0.04187 -0.613281,-0.06641 -0.220296,-0.02646 -0.440832,-0.05831 -0.660156,-0.0918 -0.220229,-0.03363 -0.438794,-0.07278 -0.658203,-0.111328 -0.216503,-0.03769 -0.432439,-0.07673 -0.648438,-0.117187 -0.216385,-0.0405 -0.434298,-0.08297 -0.65039,-0.125 -0.22003,-0.04247 -0.438537,-0.08656 -0.658204,-0.13086 -0.215431,-0.04378 -0.431029,-0.08719 -0.646484,-0.130859 -0.215044,-0.04373 -0.429536,-0.08688 -0.644531,-0.130859 -0.207405,-0.04256 -0.415477,-0.0852 -0.623047,-0.126954 -0.201816,-0.04068 -0.403314,-0.08019 -0.605469,-0.11914 -0.184023,-0.03605 -0.369707,-0.06889 -0.554687,-0.09961 -0.18419,-0.03097 -0.367673,-0.05884 -0.552735,-0.08398 -0.184094,-0.02534 -0.369832,-0.04556 -0.554687,-0.06445 -0.198,-0.02038 -0.395354,-0.03674 -0.59375,-0.05273 -0.196574,-0.0158 -0.394932,-0.02943 -0.591797,-0.04102 -0.212474,-0.0121 -0.424201,-0.02387 -0.636719,-0.03516 -0.213631,-0.01126 -0.426949,-0.02283 -0.640625,-0.0332 -0.212634,-0.01001 -0.425993,-0.01834 -0.638672,-0.02734 -0.211599,-0.0091 -0.423101,-0.01799 -0.634765,-0.02539 -0.204584,-0.0077 -0.408596,-0.01172 -0.613282,-0.01563 -0.21434,-0.0038 -0.428214,-0.0079 -0.642578,-0.0098 -0.217656,-0.0021 -0.436633,-0.0013 -0.654297,-0.002 -0.221726,-7.01e-4 -0.442335,-0.0014 -0.664062,-0.002 -0.224849,-6e-4 -0.450933,-7.96e-4 -0.675781,-0.002 -0.22911,-0.0013 -0.458395,-0.004 -0.6875,-0.0059 -0.227671,-0.0022 -0.453976,-0.0031 -0.681641,-0.0059 -0.220366,-0.0029 -0.441745,-0.0066 -0.662109,-0.0098 -0.231945,-0.0029 -0.463448,-0.009 -0.695313,-0.01563 -0.234071,-0.0066 -0.467283,-0.01608 -0.701172,-0.02734 -0.229468,-0.01118 -0.460259,-0.02529 -0.689453,-0.04102 -0.217986,-0.01465 -0.434636,-0.03253 -0.652344,-0.05078 -0.221611,-0.01812 -0.44296,-0.04102 -0.664062,-0.06445 -0.20755,-0.02215 -0.415918,-0.0465 -0.623047,-0.07227 -0.197476,-0.02479 -0.392877,-0.05153 -0.589844,-0.08008 -0.183903,-0.02719 -0.36748,-0.05887 -0.550781,-0.08984 -0.101582,-0.01706 -0.203081,-0.03618 -0.304688,-0.05469 l -0.451171,0.210938 c -0.01036,-0.02215 -0.01894,-0.04426 -0.0293,-0.06641 -0.04433,-0.09434 -0.09047,-0.187827 -0.136719,-0.28125 -0.101958,-0.02574 -0.205372,-0.04549 -0.306641,-0.07422 -0.30957,-0.08796 -0.604257,-0.216196 -0.892578,-0.357422 -0.280963,-0.139409 -0.538158,-0.318452 -0.787109,-0.507813 -0.243609,-0.186087 -0.455032,-0.406621 -0.658203,-0.634765 -0.257205,-0.323633 -0.513336,-0.673168 -0.654297,-1.066407 -0.07086,-0.19767 -0.130303,-0.399941 -0.195313,-0.599609 -0.11743,-0.547341 -0.163197,-1.138665 -0.02539,-1.6875 0.06346,-0.252717 0.144675,-0.50146 0.234375,-0.746094 0.101179,-0.275931 0.298221,-0.546986 0.451172,-0.787109 0.219797,-0.304937 0.490343,-0.564878 0.779297,-0.802735 0.140241,-0.11833 0.306581,-0.196808 0.46289,-0.291015 0.02416,-0.131055 0.05998,-0.25939 0.0918,-0.388672 -0.02622,0.01799 -0.05186,0.03673 -0.07813,0.05469 -0.241953,0.16497 -0.487157,0.327283 -0.730469,0.490235 -0.249984,0.166598 -0.49965,0.332001 -0.75,0.498047 -0.256956,0.171019 -0.514425,0.342808 -0.771484,0.513672 -0.261036,0.173569 -0.520782,0.347064 -0.78125,0.521484 -0.271935,0.181977 -0.543443,0.36449 -0.816406,0.544922 -0.301189,0.198623 -0.607742,0.391455 -0.914063,0.582031 -0.309211,0.191207 -0.620586,0.377597 -0.933594,0.5625 -0.314965,0.185398 -0.63306,0.364996 -0.951172,0.544922 -0.333844,0.188454 -0.671423,0.370565 -1.009765,0.550781 -0.351458,0.185766 -0.704799,0.365595 -1.060547,0.542969 -0.354183,0.176393 -0.711307,0.349042 -1.068359,0.519531 -0.359762,0.171758 -0.720419,0.339996 -1.082032,0.507813 -0.368848,0.170617 -0.740765,0.339006 -1.111328,0.505859 -0.394928,0.177283 -0.792548,0.347416 -1.191406,0.515625 -0.413391,0.174164 -0.830464,0.340107 -1.248047,0.503906 -0.424261,0.16586 -0.849887,0.325026 -1.277344,0.482422 -0.428559,0.156908 -0.858256,0.308381 -1.289062,0.458985 -0.423917,0.147854 -0.84999,0.292025 -1.275391,0.435546 -0.426184,0.142776 -0.85356,0.281737 -1.28125,0.419922 -0.41574,0.134036 -0.831503,0.266926 -1.248047,0.398438 -0.401383,0.126724 -0.803287,0.251529 -1.205078,0.376953 -0.388396,0.121548 -0.778359,0.239827 -1.167968,0.357422 -0.357942,0.107831 -0.715739,0.214285 -1.074219,0.320312 -0.331439,0.09796 -0.664123,0.194876 -0.996094,0.291016 -0.322674,0.09351 -0.646236,0.184424 -0.970703,0.271484 -0.355479,0.09531 -0.713713,0.174417 -1.074219,0.248047 -0.374879,0.07608 -0.755123,0.130402 -1.134765,0.175782 -0.355554,0.04104 -0.711032,0.06367 -1.06836,0.08203 -0.3345,0.01636 -0.671021,0.01947 -1.005859,0.01953 -0.308804,-5.4e-4 -0.617168,-0.0074 -0.925781,-0.01758 -0.289972,-0.01 -0.57945,-0.025 -0.869141,-0.04102 -0.269919,-0.01521 -0.538855,-0.0327 -0.808594,-0.05078 -0.261762,-0.01699 -0.523609,-0.03666 -0.785156,-0.05664 -0.254983,-0.01997 -0.510725,-0.03955 -0.765625,-0.06055 -0.254193,-0.02132 -0.507721,-0.04483 -0.761719,-0.06836 -0.253187,-0.02432 -0.506883,-0.04889 -0.759765,-0.07617 -0.269907,-0.02883 -0.537945,-0.06512 -0.806641,-0.103515 -0.330309,-0.04718 -0.658335,-0.11466 -0.982422,-0.19336 -0.316342,-0.07818 -0.62582,-0.179185 -0.931641,-0.291015 -0.245961,-0.0913 -0.486143,-0.19552 -0.724609,-0.304688 -0.209048,-0.09569 -0.413035,-0.200637 -0.615223,-0.31026 C 10.323297,65.68859 9.9296565,65.365827 9.5703125,65.005859 9.4000898,64.777555 9.2142582,64.561997 9.0605469,64.322266 9.0391087,64.28883 9.0216942,64.253067 9.0019531,64.21875 -12.143159,77.004557 -30.527321,94.369854 -44.255859,114.91797 c -19.942611,29.84899 -29.925526,66.26392 -27.810547,102.09961 2.114979,35.83569 16.348148,70.87704 39.960937,97.91601 23.6127901,27.03897 56.479214,45.88255 91.777344,52.41797 35.298131,6.53542 72.795535,0.68403 104.337895,-16.45508 31.54236,-17.13912 56.88573,-45.47296 70.24414,-78.79296 13.35841,-33.32001 14.59479,-71.38184 3.2539,-105.44141 -11.34089,-34.05957 -35.20117,-63.82648 -66.07031,-82.150391 -8.18257,-4.857172 -16.90701,-8.989942 -24.06836,-15.25586 -1.29475,-1.132856 -2.55916,-2.349661 -4.10937,-3.095703 -0.49418,-0.237822 -1.00825,-0.421853 -1.53516,-0.560547 l -0.26758,1.076172 c -0.0738,-0.01837 -0.1468,-0.03677 -0.2207,-0.05469 -0.14521,-0.03517 -0.2915,-0.0698 -0.4375,-0.101563 -0.1409,-0.03085 -0.28192,-0.06196 -0.42383,-0.08789 -0.14128,-0.026 -0.28171,-0.04935 -0.42383,-0.07031 -0.13863,-0.02059 -0.2787,-0.04074 -0.41797,-0.05664 -0.13985,-0.01625 -0.27971,-0.02824 -0.41992,-0.04102 -0.1527,-0.01386 -0.30429,-0.02761 -0.45703,-0.04102 -0.15785,-0.01386 -0.31679,-0.02881 -0.47461,-0.04297 -0.15969,-0.01437 -0.31893,-0.02751 -0.47852,-0.04297 -0.14497,-0.01407 -0.29059,-0.02877 -0.43554,-0.04297 -0.13173,-0.01293 -0.26293,-0.02681 -0.39453,-0.04102 -0.10325,-0.01104 -0.20733,-0.02197 -0.31055,-0.0332 -0.0695,-0.0075 -0.13743,-0.01478 -0.20703,-0.02148 -0.0432,-0.0041 -0.0877,-0.008 -0.13086,-0.01172 -0.0564,-0.0047 -0.11197,-0.0096 -0.16797,-0.01758 l 0.0566,-0.402344 c -1.93571,0.349894 -3.82377,0.935045 -5.71875,1.472656 -2.11837,0.601 -4.3006,1.102647 -6.5,0.996094 -1.0997,-0.05328 -2.19544,-0.260767 -3.2168,-0.671875 -1.02135,-0.411108 -1.96716,-1.028238 -2.70898,-1.841797 -0.34989,-0.383727 -0.6589,-0.82493 -0.7793,-1.330078 -0.0602,-0.252574 -0.0719,-0.518017 -0.0156,-0.771484 0.0563,-0.253466 0.18205,-0.493789 0.36914,-0.673828 0.20755,-0.199723 0.48058,-0.318355 0.75781,-0.396485 0.27724,-0.07813 0.56258,-0.118723 0.8418,-0.189453 0.94377,-0.239083 1.79896,-0.819926 2.36328,-1.613281 0.56431,-0.793355 0.83279,-1.793323 0.73242,-2.761719 -0.11748,-1.133471 -0.74121,-2.201029 -1.6543,-2.882812 -1.02721,-0.766992 -2.34922,-1.035663 -3.63086,-1.064453 z m -58.990229,1.361328 -1.095703,0.949219 c 0.07748,0.0058 0.154893,0.0124 0.232421,0.01758 0.178586,0.01234 0.356359,0.0244 0.535157,0.0332 0.184,0.0091 0.368587,0.01618 0.552734,0.02148 0.06503,0.0019 0.1302,0.0022 0.195312,0.0039 -0.0014,-0.0066 -0.0025,-0.01298 -0.0039,-0.01953 -0.05735,-0.24835 -0.130726,-0.493984 -0.25,-0.720703 -0.05264,-0.09651 -0.107215,-0.192462 -0.166015,-0.285156 z" />
    </clipPath>
  </defs>
  <sodipodi:namedview
     id="namedview69"
     pagecolor="#dddddd"
     bordercolor="#666666"
     borderopacity="1.0"
     inkscape:pageshadow="2"
     inkscape:pageopacity="0"
     inkscape:pagecheckerboard="true"
     showgrid="false"
     inkscape:zoom="4.6855346"
     inkscape:cx="78.432886"
     inkscape:cy="58.584564"
     inkscape:window-width="1920"
     inkscape:window-height="1017"
     inkscape:window-x="-8"
     inkscape:window-y="-8"
     inkscape:window-maximized="1"
     inkscape:current-layer="svg67"
     fit-margin-top="0"
     fit-margin-left="0"
     fit-margin-right="0"
     fit-margin-bottom="0">
    <inkscape:grid
       type="xygrid"
       id="grid1643"
       originx="-14.327022"
       originy="-53.428963" />
  </sodipodi:namedview>
  <title
     id="title2">D9E33DC1-EDDD-4DF3-9043-AB91122F2F2F@0.5x</title>
  <g
     id="Final-Designs"
     stroke="none"
     stroke-width="1"
     fill="none"
     fill-rule="evenodd"
     clip-path="url(#clipPath1639)"
     inkscape:export-filename="C:\Users\bigbu\OneDrive\Desktop\Final-Designs.png"
     inkscape:export-xdpi="491.51999"
     inkscape:export-ydpi="491.51999"
     transform="translate(-14.327022,-53.428962)">
    <g
       id="Assets"
       transform="translate(-147,-8061)"
       fill-rule="nonzero">
      <g
         id="Team-Logos"
         transform="translate(139.5,7908)">
        <g
           id="Group"
           transform="translate(7.5,133)">
          <g
             id="Bandits"
             transform="translate(0,20.75)">
            <path
               d="m 179.86623,17.570898 2.12657,-3.84341 -23.82096,0.326004 -0.18865,0.44611 6.36255,0.737797 h -6.22535 l -2.65821,6.2627 h 6.32825 L 149.90568,52.50475 h 0.60024 l 3.63574,-7.618188 -2.38381,7.257868 h 5.24781 l 13.92557,-30.764438 h 3.99588 c -1.18116,1.124402 -2.07009,2.5203 -2.5896,4.066465 -1.88647,6.571545 9.92968,16.62618 1.23478,19.817583 -1.71498,0.634849 -8.67776,0.720639 -10.85578,-0.703481 l 0.42875,0.823588 c 1.80072,1.389804 6.08815,1.801598 7.83742,1.715808 -2.14307,0.552061 -4.39098,0.552061 -6.53404,0 l 1.90362,4.598365 c 5.5222,1.458437 10.54707,0.892221 14.21711,-1.561385 5.57366,-3.706145 5.38501,-9.248205 3.32705,-14.773107 -1.50918,-3.997833 -2.48671,-5.713641 -1.71498,-7.463765 1.38913,-3.431616 7.92317,-4.615524 11.13017,-4.220888 l 4.85337,-8.905044 c -3.49777,-0.135165 -6.98942,0.394661 -10.28983,1.561385 3.66209,-1.630756 7.63683,-2.438976 11.64466,-2.367815 L 200,13.144114 c -7.00561,-0.61587 -14.03175,0.928957 -20.13377,4.426784 z"
               id="Path"
               fill="#c10230" />
            <polygon
               id="polygon5"
               fill="#c10230"
               points="148.3279,13.813279 147.55616,13.830437 133.3219,52.024324 140.23324,52.05864 156.86846,14.122124 149.28829,14.225073 145.84119,22.28937 " />
            <polygon
               id="polygon7"
               fill="#c10230"
               points="108.26616,14.293705 107.42583,14.293705 98.696622,37.439955 100.1029,14.911396 91.305093,15.031502 77.55102,52.110114 78.408506,52.110114 81.958498,43.359493 79.591837,51.629688 83.999314,51.664004 91.905334,33.339174 90.824901,51.715478 99.262562,51.784111 116.80672,14.688341 109.3466,14.791289 105.41931,23.061484 " />
            <path
               d="m 139.5301,27.453953 c 1.90362,-11.581705 -9.56954,-14.75595 -20.33957,-12.885719 l -2.94975,6.399964 c 2.54433,-0.700532 5.20164,-0.892931 7.82027,-0.566216 -3.0867,0.06835 -6.14073,0.648143 -9.0379,1.715808 l -0.41159,0.875062 c 1.38556,-0.431517 2.80153,-0.758437 4.23598,-0.978011 l -11.76471,28.087778 c 3.43297,0.468998 6.92345,0.288568 10.28983,-0.531901 -3.63486,1.348508 -7.53261,1.835965 -11.38741,1.424121 l -0.39444,0.909378 c 14.45721,1.938863 31.33253,-8.476092 33.93929,-24.450264 z m -8.71206,2.67666 c -2.23976,6.156907 -7.03844,11.039293 -13.15383,13.383303 l 9.68959,-21.035807 c 2.98405,0.772114 5.14491,2.693819 3.46424,7.703978 z"
               id="Shape"
               fill="#c10230" />
            <path
               d="m 83.433373,15.185925 -9.123649,0.102948 -5.264963,7.017655 4.133082,-7.68682 H 72.286057 L 59.355171,36.582051 56.868462,36.685 C 54.664351,34.102057 51.746957,32.227807 48.48225,31.297363 60.727148,27.65985 63.916995,20.539246 63.796947,15.563403 63.676899,12.01168 61.155891,9.4722843 57.108558,7.7221601 l -0.61739,0.2402131 C 58.430098,9.0835568 60.0118,10.731471 61.052993,12.715162 56.97136,7.9108989 51.946493,6.1436167 44.589264,5.4229773 32.058888,4.6341624 19.481991,5.7917549 7.3057794,8.8545934 L 7.7002229,9.3178616 C 13.61017,8.5792495 19.563249,8.2410368 25.518779,8.3055348 20.228935,8.5789224 14.969769,9.2789563 9.7924884,10.398821 l 6.6026406,7.995665 c 4.236869,-1.544842 8.5971,-2.727271 13.033785,-3.534564 L 11.49031,54.598036 C 7.8374207,54.889723 3.9958841,55.061304 0,55.129936 l 1.3205282,0.823588 c 4.865221,0.403381 9.7503608,0.512248 14.6287088,0.326004 -1.406277,0.669165 -8.4719604,1.098117 -11.3531128,1.080959 L 14.885954,64.584039 C 34.55668,62.868231 47.590465,57.720807 54.038758,51.458107 h 3.515692 l 5.899503,-9.488418 h 6.002401 l -2.109415,9.522734 h 6.859887 l 2.435259,-9.47126 h 1.972218 l 2.178014,-4.272362 h -10.28983 l 11.387412,-0.960853 0.651689,-1.235381 -4.458926,0.188739 z M 42.531298,13.470117 c 5.968102,0 10.101184,1.218224 9.775339,3.946358 -0.58309,5.044476 -5.505059,7.944192 -16.858172,9.557051 z M 21.625793,53.448444 31.418282,34.728979 c 3.815774,-0.672112 7.739589,-0.365138 11.404561,0.89222 -3.287856,-0.767571 -6.712682,-0.726358 -9.981135,0.120107 l 0.720288,0.97801 c 6.585492,-0.909378 12.15915,1.492753 13.033785,5.370479 0.977534,4.358153 -9.020751,8.93936 -24.969988,11.358649 z m 49.11679,-17.415451 -3.858687,0.223055 5.968102,-9.762948 z"
               id="path10"
               fill="#c10230" />
            <polygon
               id="polygon12"
               fill="#000000"
               points="68.444521,0.0010238533 67.501286,2.3002066 70.811182,2.3002066 67.552735,10.210082 70.794032,10.210082 74.052478,2.3002066 77.362374,2.3002066 78.305608,0.0010238533 " />
            <path
               d="M 103.42994,0.00102385 97.496141,6.212249 96.621506,0.00102385 H 92.831418 L 88.629738,10.295872 h 3.155547 l 2.212314,-5.4905856 c 0,0.5490586 0.342994,3.2771933 0.565941,5.4047956 h 2.829703 l 5.024867,-5.4047956 -2.21231,5.4905856 h 3.22414 l 4.20168,-10.29484815 z"
               id="path14"
               fill="#000000" />
            <path
               d="M 120.35671,1.0476668 C 120.33682,0.84697985 120.2594,0.65631597 120.13377,0.49860819 119.9841,0.34214247 119.80287,0.21931811 119.60213,0.1382885 119.34922,0.04669784 119.08221,2.3784079e-4 118.81324,0.00101404 h -7.70022 L 106.91134,10.295872 h 3.24129 l 1.20048,-2.9340316 h 4.45893 c 0.30776,-0.00474 0.61348,-0.050914 0.90893,-0.1372647 0.28861,-0.084564 0.56524,-0.2056493 0.82319,-0.3603197 0.2542,-0.1485694 0.48531,-0.3335477 0.68599,-0.5490585 0.19216,-0.1840942 0.344,-0.4061209 0.44589,-0.6520071 l 1.59493,-3.9463585 c 0.0892,-0.2110106 0.11887,-0.4424618 0.0857,-0.6691651 z m -4.52752,3.8605681 h -3.60144 l 1.06328,-2.5908702 h 3.58429 z"
               id="path16"
               fill="#000000" />
            <path
               d="m 147.59046,5.148448 c 0.33327,-0.1631905 0.63515,-0.3839066 0.89179,-0.6520071 0.19624,-0.1873431 0.34852,-0.4158808 0.44589,-0.6691651 l 0.89179,-2.1104439 c 0.0911,-0.2044589 0.12665,-0.4293961 0.1029,-0.6520071 -0.0331,-0.20016686 -0.11562,-0.38889719 -0.2401,-0.54905853 -0.13301,-0.1569048 -0.29635,-0.28530019 -0.48019,-0.37747777 -0.2687,-0.09934233 -0.55401,-0.14594699 -0.84034,-0.13726465 h -7.99177 L 136.16875,10.295872 h 8.24902 c 0.30222,-0.0037 0.60242,-0.04991 0.89178,-0.137264 0.28982,-0.09606 0.57094,-0.2165977 0.84034,-0.3603202 0.2504,-0.1540422 0.48081,-0.3384599 0.68599,-0.5490586 0.1908,-0.1918457 0.34227,-0.419165 0.44589,-0.6691651 l 0.77174,-1.8873889 c 0.0987,-0.2082781 0.13443,-0.4408443 0.10289,-0.6691651 -0.0261,-0.1970374 -0.1096,-0.3820267 -0.24009,-0.5319005 -0.0657,-0.1486086 -0.18087,-0.2698633 -0.32585,-0.3431616 z M 142.6685,2.3173647 h 3.77293 l -0.68599,1.7158081 h -3.77293 z m 1.71497,5.5077439 h -3.99589 l 0.73744,-1.7158081 h 4.03018 z"
               id="path18"
               fill="#000000" />
            <path
               d="m 83.65632,10.295872 h 3.121248 V 0.08681426 H 82.678786 L 74.378323,10.295872 h 3.429943 L 79.42034,8.3055348 h 4.321728 z M 81.015263,6.1779328 83.724918,2.8492652 v 3.3286676 z"
               id="path20"
               fill="#000000" />
            <path
               d="m 126.90791,10.295872 h 3.10409 l 0.12005,-10.29484815 h -4.18453 L 117.62991,10.295872 h 3.42994 l 1.61208,-1.9903372 h 4.23598 z m -2.64106,-4.1179392 2.72681,-3.3286676 -0.0858,3.3286676 z"
               id="path22"
               fill="#000000" />
            <path
               d="m 157.6402,10.295872 h 3.12125 l 0.0857,-10.29484815 h -4.18454 L 148.3622,10.295872 h 3.42994 l 1.61208,-1.9903372 h 4.32173 z m -2.64106,-4.1179392 2.77826,-3.3286676 v 3.3286676 z"
               id="path24"
               fill="#000000" />
            <polygon
               id="polygon26"
               fill="#000000"
               points="167.68993,0.0010238533 164.31144,0.0010238533 165.75202,6.847098 164.36289,10.210082 168.05008,10.210082 169.4392,6.847098 176.52204,0.0010238533 172.9549,0.0010238533 168.54742,4.3591763 " />
            <path
               d="m 82.318642,62.199066 -31.726977,-1.338331 3.001201,-1.715808 15.623392,-0.394636 -12.622192,-0.411794 2.143715,-1.166749 46.304239,-0.875062 -0.3773,1.063801 c -3.89298,0.343161 -5.88235,0.943694 -6.859884,2.076128 -2.572457,-0.960853 -7.391528,-2.076128 -8.849254,1.887388 l -2.280912,-0.08579 c -0.940136,-0.100563 -1.890792,0.01686 -2.778254,0.343162 -0.342995,0.06863 -0.926085,0.291687 -1.577774,0.617691 z"
               id="path28"
               fill="#c10230" />
            <path
               d="m 117.30406,63.691818 0.1029,-0.61769 c 4.44178,-1.046643 5.38501,-3.620355 5.59081,-4.804263 0.11645,-0.803978 0.028,-1.62436 -0.25724,-2.384973 l 69.3363,-1.304014 -4.52753,2.762451 -25.43303,0.772113 19.91083,0.978011 -11.25022,6.863232 z"
               id="path30"
               fill="#c10230" />
            <path
               d="m 115.2804,68.375974 c 0.98114,-1.410122 1.6693,-3.002988 2.02366,-4.684156 l 0.1029,-0.61769 c 4.44178,-1.046643 5.38501,-3.620355 5.59081,-4.804263 0.11645,-0.803978 0.028,-1.62436 -0.25724,-2.384973 -0.49762,-1.397491 -1.7641,-2.376304 -3.2413,-2.50508 -0.75851,1.112042 -1.86118,1.943968 -3.1384,2.367815 l -1.08043,-2.402131 c -1.68635,-0.858778 -3.68152,-0.858778 -5.36786,0 -1.21698,0.581522 -2.59354,0.738575 -3.91014,0.44611 l -0.87464,2.384973 -0.37729,1.063801 c -3.89298,0.343162 -5.882351,0.943695 -6.859885,2.076128 -2.572458,-0.960853 -7.391528,-2.076128 -8.849254,1.887389 l -2.280913,-0.08579 c -0.940136,-0.100564 -1.890791,0.01686 -2.778254,0.343161 -0.377293,0.137265 -0.960384,0.36032 -1.714971,0.686323 -1.541541,0.67232 -3.036844,1.44613 -4.476077,2.316341"
               id="path32"
               fill="#ffffff" />
            <path
               d="M 77.791116,64.515406 77.019379,63.94919 c -1.770673,1.381151 -3.438595,2.889321 -4.990567,4.512575 -4.990568,-2.333499 -11.421712,-0.566217 -16.669525,0.875062 -3.532842,0.960852 -7.511577,2.05897 -8.574859,1.029485 -0.565318,-0.514562 -0.88885,-1.242864 -0.891785,-2.007496 0,-2.934031 4.013034,-8.767779 7.83742,-12.439608 -14.954553,4.564049 -16.995369,14.155416 -14.680157,18.393462 2.778254,5.147424 9.826788,4.529734 15.194649,1.835915 6.534042,-3.260035 10.958669,-3.431616 13.719774,-3.002664 l -0.806037,1.063801 -0.274396,2.882557 c 0.240096,1.046643 1.046133,2.470764 5.024868,4.11794 1.411074,-0.08381 2.691992,-0.852739 3.429943,-2.05897 0.3045,-0.09728 0.589111,-0.248375 0.840336,-0.44611 0.916564,-0.779855 1.4895,-1.889306 1.594924,-3.088454 l 5.642257,-3.260036 -0.137198,-0.394636 c 1.17242,-0.389267 2.377898,-0.670683 3.60144,-0.840746 l 3.327046,0.171581 c -0.720289,0.926537 -1.543475,1.853073 -2.349512,2.762451 -1.740878,1.743138 -3.209363,3.738707 -4.356028,5.919538 -1.371977,0 -3.584291,0 -3.63574,0 -0.27031,0.844079 -0.420416,1.722049 -0.445892,2.608028 -2.589608,-0.154423 -5.144916,-0.326003 -7.734523,-0.549058 -2.536782,-0.250068 -5.094896,-0.180896 -7.614474,0.205897 -16.069285,-3.894885 -23.700909,-0.120107 -30.457898,3.208561 -4.578974,2.264866 -10.135482,5.147424 -19.173383,2.487921 14.920254,18.427774 29.154519,12.010657 36.906191,7.669662 -0.23038,3.159669 0.629179,6.302832 2.43526,8.905042 1.449395,2.15312 3.259567,4.03964 5.350711,5.57638 -2.768315,1.64742 -5.74446,2.91694 -8.849254,3.77478 l -2.675356,7.1206 c 1.131882,0.70348 9.72389,6.86323 12.707941,13.9152 l -0.823187,1.83592 7.391528,11.01548 c 2.034491,-5.03639 3.121726,-10.40541 3.206998,-15.8369 L 61.430286,121.6175 c 1.236125,-0.42827 2.444624,-0.93253 3.618591,-1.50991 -0.246816,0.59063 -0.533299,1.16388 -0.857486,1.71581 l 3.687189,3.24287 c 4.014743,1.27509 7.750961,3.30132 11.010118,5.97101 v 2.79677 l 8.574859,3.91204 c 1.612073,-4.15225 0.257246,-9.57421 -1.714972,-13.84657 l -9.466644,-4.27236 c 3.010949,-2.99329 5.283343,-6.64735 6.636941,-10.67232 5.904966,1.07844 11.727234,2.56911 17.424108,4.4611 -0.18864,2.17907 -0.445888,4.80426 -0.908931,8.01282 -1.251929,8.57904 -9.415194,17.55272 -10.461327,18.29051 l 0.291545,1.21823 -4.047333,1.7158 3.429943,15.5967 c 3.292746,-5.14742 22.637623,-36.03197 25.724573,-40.75044 1.88647,0.36032 4.52753,0.70348 6.85989,0.97801 -2.08009,2.42439 -4.4802,4.55437 -7.13428,6.33133 l 0.1029,1.08096 -2.81256,0.77211 -6.60264,10.6037 c 4.68187,1.04664 11.35311,-1.71581 14.01132,-3.56888 l 15.3147,-16.30018 -1.50918,-6.65733 -7.83742,-4.59837 c 1.75387,-3.4758 2.27398,-7.445054 1.47488,-11.255701 2.02925,-3.180395 4.82441,-5.799927 8.12896,-7.618188 1.8511,0.611175 3.7584,1.036504 5.69371,1.269698 2.64105,0.411794 5.14491,0.463268 4.49322,2.882558 l 0.97754,0.806429 9.80964,-3.002664 2.6582,-6.468596 -0.90893,-0.823588 -4.13308,-3.791936 c -2.41811,-2.247708 -4.76763,-4.409626 -6.4483,-5.885221 l 2.58961,-1.406963 c -11.25022,-8.184404 -28.96587,-4.581207 -32.00137,-2.882557 l 1.23478,0.943694 c -1.52633,-0.188739 -3.0012,-0.480426 -3.01835,-0.480426"
               id="path34"
               fill="#ffffff" />
            <path
               d="m 143.44023,71.910539 2.33236,-1.286856 c -11.57605,-5.559218 -25.15863,-2.179076 -25.15863,-2.179076 l 3.92729,2.402131 c -3.20836,0.122636 -6.42005,-0.130739 -9.56955,-0.754955 -0.0421,0.815325 0.11688,1.6285 0.46305,2.367815 l -2.91546,-3.431616 c 1.7935,-1.778578 2.93026,-4.113706 3.22415,-6.623019 h -1.54347 l 0.36014,-0.63485 c 8.31761,-0.583374 7.35723,-5.679324 5.53936,-6.468596 0,0 -0.82319,1.561385 -4.66472,2.59087 l -1.42343,-3.174245 c -2.40096,-0.960852 -3.87584,1.235382 -6.85989,0.995169 l -1.18333,3.242877 c -5.50506,0.394636 -7.597323,1.201066 -7.15143,2.831084 -1.937918,-1.25254 -6.448294,-2.282025 -7.511577,-0.978011 1.295381,0.565526 2.462327,1.388624 3.429944,2.419289 l -8.214715,-0.291687 c -0.695281,-0.09233 -1.4026,-0.0098 -2.057966,0.240213 -2.401316,0.898345 -4.700772,2.048633 -6.859886,3.431616 l -0.65169,-0.480426 c -1.670483,1.39763 -3.251382,2.899071 -4.733322,4.495417 -8.094666,-5.284689 -22.740524,4.787104 -26.805007,1.012327 -4.716173,-4.409627 3.687189,-12.679822 3.687189,-12.679822 -16.172183,9.642842 -9.192248,22.305505 4.184531,15.64817 9.432344,-4.718472 14.988852,-3.431616 17.424112,-2.316341 -0.685988,0.789272 -1.389127,1.630018 -2.075115,2.539396 l -0.0343,2.093286 c 0,0 0.257246,1.132433 3.429944,2.505079 0.62369,-0.14109 1.169795,-0.515569 1.526324,-1.046643 L 72.217458,78.07029 c -0.02858,-1.240939 0.879863,-2.305008 2.109416,-2.470764 v 1.938863 c 0,0 1.440576,0.291688 1.714971,-2.985506 l 5.144915,-2.968347 -0.240096,-0.652007 c 1.844013,-0.767566 3.781704,-1.286844 5.762305,-1.544228 l 6.499743,0.343162 c -2.075116,4.100781 -7.768822,8.304511 -8.574859,12.010656 -1.972217,0 -3.429943,0 -3.429943,0 -0.172584,0.917355 -0.101623,1.863956 0.205797,2.745293 -2.898302,-0.137265 -6.328246,-0.36032 -9.912537,-0.652007 -2.503191,-0.260261 -5.030107,-0.179452 -7.511576,0.240213 -27.062253,-6.691651 -29.394615,8.956518 -45.378151,6.365648 15.966387,14.738794 27.199451,6.056802 35.362716,1.818757 -0.171497,0.394635 -0.325844,0.823587 -0.463042,1.252539 -2.40096,7.480928 4.030184,13.983838 8.574859,16.557548 -3.171392,2.418 -6.782787,4.19543 -10.632825,5.23322 l -1.903619,5.14742 c 0,0 7.974619,5.42195 11.438862,12.26803 l 2.298062,-0.44611 -1.886469,4.28952 4.990568,7.56671 c 1.130008,-3.76899 1.775461,-7.66665 1.920768,-11.59886 L 58.240439,120.51938 c 3.167254,-0.84363 6.254567,-1.96318 9.226548,-3.34583 -0.03144,1.48316 -0.419695,2.93689 -1.131882,4.23805 l 2.418111,2.1276 c 3.711435,1.22873 7.189892,3.07321 10.28983,5.45627 l 1.543474,-0.82359 v 4.52974 l 5.625108,2.60803 c 0.290104,-3.48816 -0.380108,-6.98921 -1.937919,-10.12327 l -11.095866,-5.07879 c 5.865203,-5.49059 7.768821,-10.29485 8.351912,-13.21172 6.993045,1.18643 13.876294,2.94825 20.579665,5.26753 -0.2058,2.41928 -0.49735,5.49058 -1.02899,9.43694 -1.303376,9.60852 -10.289828,18.39346 -10.289828,18.39346 l 0.445893,1.90455 -4.081633,1.71581 2.195164,10.10611 c 1.714971,-2.77961 21.762994,-34.60785 24.163954,-38.24536 3.70999,0.70111 7.45357,1.21081 11.21591,1.52707 -2.52961,3.24024 -5.48291,6.12574 -8.78065,8.57903 l 0.15434,1.40697 v 0 l -3.54999,0.97801 -4.75047,7.70398 c 3.53652,-0.35765 6.94164,-1.5324 9.94684,-3.43162 l 14.54296,-15.44227 -1.14903,-5.01016 -8.57486,-5.14743 c 2.30544,-3.61602 3.0189,-8.022997 1.97222,-12.182233 2.35557,-3.934354 5.75778,-7.136249 9.82678,-9.248206 4.99057,2.213393 12.3135,0.960853 12.0048,4.855737 l 7.85457,-2.350657 1.86932,-4.598365 C 151.3634,79.031143 145.05231,73.06013 143.44023,71.910539 Z m -35.39701,5.730799 c 1.45068,0.04375 2.86192,0.482752 4.08163,1.269698 -2.60676,1.029485 -6.85989,2.299183 -10.28983,3.191403 z"
               id="path36"
               fill="#000000" />
            <path
               d="m 113.18813,58.338497 -0.68599,-1.87023 c -1.32451,0.422082 -2.47092,1.273252 -3.25844,2.419289 1.32863,-0.06401 2.64879,-0.247772 3.94443,-0.549059 z"
               id="path38"
               fill="#a2a9ad" />
            <path
               d="m 101.95507,64.343826 c -2.236584,-0.985923 -4.526831,-1.845184 -6.859889,-2.573713 1.680672,0.823588 2.332361,3.75762 6.859889,2.573713 z"
               id="path40"
               fill="#c10230" />
            <path
               d="m 107.87172,60.054305 c 6.46544,0.995169 11.73041,-0.154422 11.42171,-2.14476 0,0.06863 -3.0355,1.938863 -11.42171,2.14476 z"
               id="path42"
               fill="#a2a9ad" />
            <path
               d="m 110.49563,68.444607 c 0,0 2.9326,-2.487922 3.18984,-4.512575 -3.01705,0.351376 -6.06714,0.305227 -9.0722,-0.137265 1.71498,2.196234 4.80192,2.436447 5.88236,4.64984 z"
               id="path44"
               fill="#c10230" />
            <path
               d="m 123.08352,74.878887 c 2.19516,-0.875062 4.18453,-1.715808 5.8652,-2.453606 -3.73226,0.517135 -7.51795,0.517135 -11.25021,0 0,0 0.80603,1.52707 5.38501,2.453606 z"
               id="path46"
               fill="#c10230" />
            <path
               d="m 133.87069,70.211889 c -2.30456,-0.525027 -4.67688,-0.687118 -7.03138,-0.480426 1.43079,0.350363 2.77372,0.992946 3.94443,1.887389 z"
               id="path48"
               fill="#c10230" />
            <path
               d="m 120.25382,75.994162 c -2.69495,-0.923577 -5.62517,-0.893291 -8.30047,0.08579 1.45116,0.356428 2.86851,0.838678 4.23598,1.441278 1.38913,-0.497584 2.74396,-1.012326 4.06449,-1.527068 z"
               id="path50"
               fill="#c10230" />
            <path
               d="m 148.3965,86.323327 c -0.1715,-2.934032 -2.70965,-1.595702 -8.57486,-3.071297 -4.13308,-1.063801 -4.83622,-3.568881 -4.81907,-5.147424 -7.25774,3.642214 -13.56487,8.930097 -18.41879,15.442273 0,0 2.7611,2.470763 -1.14903,9.557051 l -10.52993,17.62135 c 1.2362,-6.7211 1.77642,-13.55183 1.61207,-20.3838 -1.44234,0.90068 -2.74279,2.01093 -3.85868,3.29435 1.45861,-4.649962 3.54745,-9.077929 6.20819,-13.160248 -1.82607,-1.794488 -3.82518,-3.403752 -5.9681,-4.804262 10.72043,-3.086292 21.04107,-7.422728 30.74944,-12.920035 0.26659,0.379487 0.64398,0.667168 1.08044,0.823588 -0.21166,-1.267994 -0.0631,-2.569973 0.42874,-3.75762 l 2.62391,2.968348 1.25193,-0.669165 c 5.07178,3.403346 9.80409,7.287572 14.13136,11.598863 l -0.94323,1.715807 v 0 z"
               id="path52"
               fill="#a2a9ad" />
            <path
               d="m 93.088664,89.428939 -5.642257,1.715808 c -1.042781,-0.654736 -1.9845,-1.45819 -2.795404,-2.384973 -4.460388,-0.026 -8.915458,-0.31246 -13.34248,-0.857904 -7.477276,-0.909378 -13.479677,3.260035 -13.513977,8.476092 0,7.395128 14.491511,8.990838 14.731607,14.790268 7.151432,-7.34366 4.184531,-14.361316 2.966901,-16.55755 l -0.428743,-0.686324 c 2.555308,0.72064 4.407478,3.328668 5.590808,5.54206 4.378039,0.251617 8.700475,1.106134 12.845138,2.539394 1.312927,-3.596674 3.376686,-6.872223 6.05385,-9.608523 z"
               id="path54"
               fill="#a2a9ad" />
            <path
               d="m 143.40593,77.109437 h -2.04081 v -1.612859 0 l -1.59493,-1.25254 c -1.71497,4.581207 5.48791,4.20373 5.48791,4.20373 z"
               id="path56"
               fill="#000000" />
            <polygon
               id="polygon58"
               fill="#c10230"
               points="141.36512,77.212386 143.40593,77.212386 141.36512,75.496578 " />
            <path
               d="m 41.82816,90.235369 c -1.113026,1.414498 -2.652885,2.431541 -4.390328,2.899716 5.830904,1.132433 12.004802,-5.147424 20.133768,-6.2627 -13.291031,-3.431616 -15.846338,3.568881 -26.993655,5.301847 3.851783,0.276965 7.71305,-0.388486 11.250215,-1.938863 z"
               id="path60"
               fill="#c10230" />
          </g>
        </g>
      </g>
    </g>
  </g>
  <metadata
     id="metadata890">
    <rdf:RDF>
      <cc:Work
         rdf:about="">
        <dc:title>D9E33DC1-EDDD-4DF3-9043-AB91122F2F2F@0.5x</dc:title>
      </cc:Work>
    </rdf:RDF>
  </metadata>
  <path
     style="fill:#ffffff;stroke-width:1"
     d="m 74.212329,105.30979 c -0.124638,-0.4287 -3.343322,-15.165441 -3.341626,-15.299611 7.73e-4,-0.0664 0.905333,-0.5002 2.009985,-0.96407 1.517508,-0.63724 1.99128,-0.90176 1.938183,-1.08213 -0.224163,-0.76147 -0.258429,-1.08897 -0.113937,-1.08897 0.213836,0 2.744989,-2.94528 4.036446,-4.69687 2.419572,-3.28162 4.619554,-7.36598 5.552575,-10.30859 0.66215,-2.08832 0.873237,-3.45051 1.630173,-10.51985 0.0695,-0.64871 0.50455,-0.45197 -3.924516,-1.77455 -5.074442,-1.5153 -13.026674,-3.34653 -13.282251,-3.05862 -0.06653,0.0749 -0.310247,0.62322 -0.541599,1.21839 -1.035389,2.6636 -2.758309,5.47897 -4.804703,7.85123 l -1.171874,1.35847 0.740793,0.32748 c 0.407437,0.18011 2.479924,1.10869 4.605528,2.06351 l 3.864734,1.73604 0.417858,0.82922 c 0.534567,1.06082 1.398442,3.6999 1.764225,5.3896 0.410667,1.89704 0.386906,5.5864 -0.04431,6.87923 -0.206428,0.61889 -0.382096,0.91142 -0.527923,0.87909 -0.120202,-0.0266 -2.07942,-0.89538 -4.353816,-1.93054 l -4.135266,-1.88211 v -1.41714 -1.41714 l -1.043478,-0.76935 c -2.711758,-1.99936 -6.096436,-3.83775 -8.772947,-4.76504 -1.114499,-0.38613 -1.416221,-0.58772 -3.05314,-2.03987 -0.999034,-0.88627 -1.816426,-1.64094 -1.816426,-1.67704 0,-0.0361 0.143983,-0.34787 0.319963,-0.69282 0.17598,-0.34495 0.293462,-0.65368 0.261072,-0.68607 -0.03239,-0.0324 -0.611156,0.18219 -1.286146,0.47686 -0.674991,0.29466 -1.310106,0.5366 -1.411369,0.53764 -0.101262,0.001 -0.222472,0.0639 -0.269355,0.13981 -0.04688,0.0759 1.827273,2.41128 4.16479,5.18982 4.84682,5.76128 4.37994,4.82408 4.084367,8.19883 -0.195114,2.22772 -0.631011,4.85362 -1.154774,6.95652 -0.557089,2.23669 -1.791142,5.81627 -1.983092,5.75228 -0.09035,-0.0301 -1.813423,-2.5054 -3.82906,-5.50064 l -3.664793,-5.44589 0.374536,-0.8469 c 0.205997,-0.46579 0.374538,-0.96068 0.374538,-1.09976 0,-0.41215 -1.371213,-2.73167 -2.520837,-4.26421 -2.15981,-2.8792 -5.171294,-5.85035 -8.377714,-8.2655 -0.850242,-0.64043 -1.565313,-1.24318 -1.589048,-1.33946 -0.02373,-0.0963 0.541083,-1.73242 1.25515,-3.63587 l 1.298305,-3.46084 2.070304,-0.71535 c 1.878795,-0.64919 5.54688,-2.29575 6.318849,-2.83646 0.296202,-0.20746 0.259586,-0.26068 -0.811537,-1.17943 -1.479521,-1.26904 -3.015756,-3.01606 -4.144263,-4.71289 -1.497208,-2.2512 -2.285406,-4.70753 -2.341061,-7.295659 -0.01536,-0.71409 -0.04577,-1.29835 -0.06758,-1.29835 -0.02181,0 -0.756549,0.37807 -1.632746,0.84016 -1.869026,0.98568 -4.459213,2.06124 -6.308063,2.619379 C 20.973499,49.001419 13.526064,47.439499 6.559994,41.88465 5.203953,40.80332 1.468945,37.07903 0.531174,35.87312 L 0,35.19007 l 0.45874,0.0996 c 0.252308,0.0548 1.119611,0.24582 1.927341,0.42452 0.973531,0.21538 2.283657,0.35363 3.88644,0.4101 4.394244,0.15483 6.865822,-0.50366 13.057164,-3.478729 4.21367,-2.024759 5.835755,-2.702114 8.177169,-3.414641 5.757585,-1.752118 12.238327,-1.851985 19.78744,-0.304923 1.275362,0.261364 2.388406,0.475576 2.47343,0.476027 0.08502,4.64e-4 1.168015,-0.07857 2.406649,-0.175603 1.835566,-0.143794 2.836201,-0.132863 5.410628,0.05911 8.216978,0.612732 7.557029,0.636683 7.561999,-0.274439 0.0012,-0.238679 0.08019,-0.743026 0.175307,-1.120773 l 0.172942,-0.686813 h 1.823416 1.823416 l 0.541854,-0.966183 c 0.757729,-1.35111 1.928345,-2.885604 3.762314,-4.931803 0.864735,-0.964803 1.715361,-1.937105 1.890282,-2.160673 l 0.318035,-0.406485 -0.479654,-0.09593 c -1.698164,-0.339633 -5.809323,0.249946 -5.967766,0.855835 -0.04072,0.155713 -1.23629,0.944604 -2.798733,1.84673 -1.500204,0.866191 -2.772463,1.643952 -2.827238,1.728357 -0.05478,0.0844 -0.140335,0.408249 -0.190131,0.719654 -0.113209,0.70797 -1.103813,2.135553 -1.719939,2.478649 -0.255072,0.14204 -0.82461,0.614514 -1.265641,1.049943 -0.766419,0.756687 -1.859783,1.27321 -2.695101,1.27321 -0.514498,0 -3.118454,-1.45555 -3.928649,-2.196024 -1.159225,-1.059467 -1.329798,-1.577581 -1.137659,-3.455648 0.110872,-1.083707 0.243097,-1.636374 0.466597,-1.950252 0.281406,-0.395195 0.287033,-0.447535 0.05759,-0.535583 -0.139865,-0.05367 -1.240458,-0.0588 -2.445763,-0.01141 -3.122268,0.122781 -6.10014,0.916138 -9.534461,2.540147 -4.015208,1.898698 -5.576235,2.351688 -8.502415,2.467298 -3.224112,0.127381 -4.91115,-0.393814 -6.653193,-2.055441 -1.916021,-1.827575 -2.578348,-4.385079 -1.909053,-7.371608 1.186663,-5.295141 6.23537,-9.8151802 13.856932,-12.4059232 0.828985,-0.281792 1.507246,-0.472858 1.507246,-0.424593 0,0.04827 -0.469565,0.583132 -1.043478,1.188589 -2.993156,3.15768 -5.594914,7.0470802 -6.440889,9.6285632 -0.523724,1.598141 -0.299039,2.863837 0.640699,3.609195 0.39375,0.312303 0.552612,0.333551 1.974103,0.264035 1.190041,-0.0582 2.257597,-0.260651 4.637681,-0.879499 8.412381,-2.187314 9.476856,-2.387831 12.676329,-2.387855 2.193957,-1.6e-5 3.27322,0.154609 4.933687,0.706849 l 0.914366,0.304099 1.404475,-1.380476 c 0.772463,-0.759261 1.872326,-1.770308 2.444141,-2.246769 1.032228,-0.860097 1.042758,-0.864518 1.472121,-0.618098 0.423196,0.242881 0.462865,0.231054 1.852687,-0.552418 1.281466,-0.722386 2.212111,-1.1159832 4.819149,-2.0381582 0.662985,-0.23451 1.261646,-0.295638 2.89541,-0.295638 h 2.059613 l 0.298162,-0.57971 c 0.924231,-1.796956 3.079822,-2.520159 5.919022,-1.985838 0.737736,0.138839 1.636463,0.35656 1.997174,0.483825 0.611435,0.215729 0.677616,0.211482 0.977506,-0.06271 0.82389,-0.753298 2.109715,-1.177486 4.724825,-1.558688 l 1.77513,-0.25876 0.18151,-0.531137 c 0.0998,-0.292125 0.36895,-1.070268 0.59804,-1.729205 l 0.41653,-1.198068 h 1.31122 c 1.11552,0 1.48811,-0.07249 2.49639,-0.48568902 1.50298,-0.61593 3.37905,-0.767056 4.711942,-0.379571 l 0.86837,0.25244 0.58504,1.23729102 0.58504,1.237291 0.69566,-0.3474 c 0.3826,-0.191069 1.07476,-0.714314 1.53811,-1.162764 0.46335,-0.44845002 0.95031,-0.81468602 1.08213,-0.81385502 0.49329,0.0031 1.80513,0.74217702 2.28259,1.28597402 0.63703,0.725539 0.89099,1.596396 0.88683,3.041017 -0.004,1.42428 -0.43324,2.357206 -1.57602,3.426138 -0.8684,0.812293 -1.36734,1.099646 -2.89963,1.6700092 l -1.08213,0.402799 -0.10138,0.767435 c -0.12898,0.976386 -0.43645,1.815808 -1.19619,3.265692 -0.38705,0.738651 -0.54107,1.178109 -0.42691,1.218101 0.26393,0.09246 2.16365,0.379097 2.20938,0.333364 0.0216,-0.02159 -0.16544,-0.176388 -0.41562,-0.344002 -0.25017,-0.167614 -0.45506,-0.351929 -0.45531,-0.409588 -0.002,-0.350561 3.67152,-1.351224 6.73958,-1.836111 2.69447,-0.425842 8.39709,-0.58466 11.13861,-0.310208 4.00427,0.400861 7.90832,1.455598 10.92227,2.950813 1.74693,0.866649 3.28821,1.849365 3.25445,2.075026 -0.0121,0.08067 -0.5542,0.436045 -1.20473,0.78973 l -1.18279,0.643062 0.58637,0.50956 c 1.9357,1.682121 10.86519,9.968736 10.83078,10.051002 -0.0228,0.05456 -0.63071,1.53022 -1.35083,3.279241 l -1.30933,3.180041 -4.56507,1.39554 c -5.83819,1.78474 -5.31421,1.67414 -5.86589,1.23814 -0.39248,-0.31017 -0.4611,-0.47208 -0.4684,-1.1051 -0.0155,-1.34791 -0.61199,-1.61797 -5.1873,-2.34868 -1.36039,-0.21726 -3.03382,-0.55508 -3.71874,-0.75071 -1.38306,-0.39503 -1.1991,-0.43751 -2.83792,0.65532 -1.61123,1.07443 -3.35303,2.6109 -4.48408,3.95547 -1.12658,1.33926 -2.04773,2.63134 -1.94744,2.73164 0.0343,0.0343 0.1383,0.80839 0.23104,1.72014 0.28035,2.7561 -0.16564,5.67189 -1.29129,8.44214 l -0.36579,0.90021 3.88344,2.27416 3.88344,2.27415 0.75745,3.38609 0.75745,3.38609 -0.98934,1.05223 c -0.54413,0.57872 -4.03866,4.29913 -7.76562,8.26756 l -6.77629,7.21534 -1.49424,0.76718 c -3.253422,1.67038 -6.412562,2.61421 -9.235152,2.75909 -1.80556,0.0927 -3.15764,-0.0272 -3.15764,-0.28004 0,-0.0831 1.46642,-2.5068 3.25873,-5.38597 l 3.25873,-5.23486 1.3403,-0.36573 1.3403,-0.36574 0.0472,-0.56461 c 0.0431,-0.51561 0.17731,-0.66205 1.545902,-1.68728 0.82426,-0.61747 2.39132,-1.99695 3.48237,-3.06552 l 1.98372,-1.94285 -0.51512,-0.10715 c -0.28332,-0.0589 -1.56664,-0.2501 -2.85183,-0.42483 -1.28519,-0.17472 -2.54249,-0.35883 -2.794,-0.40914 -0.53696,-0.10739 0.70198,-2.00678 -15.816158,24.24726 -5.654106,8.98668 -10.32768,16.340901 -10.385718,16.342731 -0.05804,0.002 -0.140917,-0.11843 -0.184174,-0.26723 z m 6.740305,-13.565211 c 6.731964,-10.71325 14.392584,-22.84438 16.619954,-26.31884 1.80441,-2.81471 1.55383,-2.65138 3.497292,-2.2795 1.43728,0.27503 6.31749,0.93262 8.02153,1.08087 0.65894,0.0573 1.19807,0.14195 1.19807,0.18804 0,0.0461 -0.48001,0.64919 -1.06667,1.34021 -1.42254,1.67557 -4.90572,5.04937 -6.40283,6.20178 l -1.20499,0.92753 0.0868,0.69961 0.0868,0.69961 -1.66256,0.44487 c -0.914412,0.24468 -1.773702,0.55594 -1.909532,0.69169 -0.36393,0.36374 -4.6714,7.43796 -4.58286,7.52651 0.10703,0.10703 1.98275,-0.20593 3.4118,-0.56926 1.55343,-0.39495 3.227082,-1.05964 4.957032,-1.96869 l 1.37475,-0.7224 7.33695,-7.77913 7.33694,-7.77912 -0.57949,-2.52605 -0.5795,-2.52606 -4.19017,-2.51212 c -2.30459,-1.38167 -4.21552,-2.53201 -4.24651,-2.55632 -0.031,-0.0243 0.26825,-0.70704 0.66498,-1.5172 1.40102,-2.86102 1.94664,-6.461209 1.42847,-9.425479 l -0.24037,-1.3751 0.63604,-0.94374 c 2.07645,-3.08095 5.12892,-5.94688 8.109,-7.613434 l 1.00863,-0.564059 0.94943,0.325098 c 1.4072,0.481843 1.93268,0.598358 4.98984,1.106405 4.60933,0.76599 5.78932,1.3087 6.02302,2.77015 0.0742,0.46401 0.16575,0.6293 0.31653,0.57144 0.11668,-0.0448 1.86085,-0.57094 3.87594,-1.16925 2.01509,-0.59832 3.70859,-1.1394 3.76333,-1.2024 0.0548,-0.063 0.4965,-1.11642 0.98168,-2.340931 l 0.88213,-2.226379 -0.81867,-0.710819 c -0.45028,-0.390949 -2.90755,-2.589078 -5.4606,-4.88473 -2.55305,-2.295652 -5.01919,-4.495941 -5.48031,-4.88953 l -0.83839,-0.715618 1.10847,-0.598392 c 0.60965,-0.329116 1.10905,-0.633175 1.10977,-0.675687 0.002,-0.09737 -2.09114,-0.980817 -3.31973,-1.401385 -1.45065,-0.49658 -4.45824,-1.182357 -6.49276,-1.480445 -2.23102,-0.326881 -8.45417,-0.377827 -10.74396,-0.08796 -2.14746,0.271854 -4.48309,0.68412 -4.48309,0.791316 0,0.05123 0.79852,0.579731 1.7745,1.174453 l 1.7745,1.081311 -1.81315,0.04807 c -1.84703,0.04897 -4.30451,-0.142776 -6.35397,-0.495762 l -1.13987,-0.196322 0.0792,0.986768 0.0792,0.98677 -0.50441,-0.58929 c -0.27743,-0.324109 -0.852762,-1.006183 -1.278522,-1.515722 l -0.77411,-0.926432 0.61255,-0.690261 c 1.158762,-1.30576 2.189892,-3.469288 2.525322,-5.298638 l 0.10629,-0.5797102 h -0.72419 c -0.60568,0 -0.71569,-0.04414 -0.67225,-0.269734 0.0406,-0.210869 0.37201,-0.325898 1.51858,-0.527089 2.82094,-0.494999 4.3808,-1.349984 5.12526,-2.809248 0.45063,-0.883299 0.34656,-2.185549 -0.23565,-2.948863 -0.39577,-0.518893 -0.87225,-0.74291 -0.87225,-0.410096 0,0.483588 -3.85654,2.482212 -4.39269,2.276475 -0.0994,-0.03815 -0.4501,-0.685796 -0.77928,-1.439201 -0.32917,-0.753405 -0.675712,-1.455959 -0.770092,-1.56123 -0.0944,-0.105272 -0.48336,-0.234135 -0.86441,-0.286365 -0.56393,-0.07729 -1.04324,0.02302 -2.57645,0.539228 -1.20123,0.404434 -2.16168,0.634191 -2.65113,0.634191 h -0.7675 l -0.58826,1.622284 c -0.555,1.530569 -0.61482,1.625845 -1.05816,1.685322 -0.25845,0.03467 -1.32315,0.17559 -2.36602,0.313152 -2.86621,0.378071 -4.364756,1.062273 -4.364756,1.99283 v 0.371603 L 83.19774,8.4063288 c -2.37153,-0.951776 -5.047326,-1.195999 -5.863427,-0.535161 -0.33421,0.270628 -0.332888,0.272333 0.594104,0.766414 0.510983,0.272351 1.270836,0.808045 1.688563,1.190431 l 0.759504,0.6952472 -1.391305,-0.08105 c -0.765217,-0.04458 -2.886956,-0.125802 -4.714976,-0.180501 l -3.323671,-0.09945 -1.391304,0.538412 c -1.606486,0.621682 -4.278892,1.937539 -5.43273,2.675002 -0.735216,0.469903 -0.82005,0.490634 -1.127258,0.275458 -0.309752,-0.216959 -0.378665,-0.194622 -1.019434,0.330439 -0.377972,0.30972 -1.455213,1.299046 -2.393866,2.198501 l -1.706645,1.635373 -1.062798,-0.489875 c -1.722539,-0.79397 -2.964714,-0.987166 -5.7307,-0.891296 -2.765457,0.09585 -4.016117,0.333025 -9.836885,1.865454 -2.114351,0.556644 -4.505144,1.125827 -5.312873,1.26485 -2.603211,0.448058 -4.23066,0.09972 -5.236773,-1.120867 -1.98506,-2.408221 -0.795767,-6.539618 3.216033,-11.1719402 l 0.861319,-0.994543 -0.695652,0.410022 c -0.382608,0.225512 -1.281221,0.841803 -1.996916,1.369537 -4.377608,3.2279262 -6.790162,6.9729312 -6.637639,10.3035982 0.198454,4.333665 4.621614,6.479874 10.103154,4.902259 0.765218,-0.220233 2.226087,-0.785339 3.246377,-1.255792 4.420228,-2.038152 7.4092,-2.97881 10.534476,-3.315303 2.337731,-0.251699 4.852961,0.01945 6.477709,0.698311 l 0.550031,0.229817 -1.012992,1.224427 -1.012992,1.224425 v 1.202687 1.202686 l 0.658676,0.630507 c 0.362271,0.346778 1.13199,0.863167 1.710487,1.147532 0.92868,0.456501 1.103142,0.495764 1.490305,0.335396 0.241171,-0.0999 0.592165,-0.345204 0.779982,-0.545127 l 0.341488,-0.363497 -0.635396,-0.171095 c -0.546292,-0.147101 -0.635255,-0.229876 -0.634378,-0.590256 0.0019,-0.765174 1.032628,-1.884086 1.738112,-1.886742 0.227702,-9.28e-4 0.270531,0.145821 0.270531,0.926517 0,1.062402 0.176309,1.172836 0.829547,0.519597 0.395317,-0.395318 0.868636,-1.634939 0.873151,-2.286785 0.0017,-0.250749 0.554812,-0.635543 2.562429,-1.782771 2.272122,-1.298377 2.552673,-1.502448 2.493202,-1.813545 -0.05759,-0.301241 0.04585,-0.39277 0.735491,-0.650796 2.902016,-1.085784 4.16639,-1.253035 7.983827,-1.056107 1.806863,0.09321 3.227667,0.230833 3.227667,0.312641 0,0.08038 -0.308008,0.607668 -0.684464,1.17176 -0.663382,0.99403 -1.39294,1.882529 -4.360379,5.310336 -1.690396,1.952643 -2.628423,3.301043 -3.095391,4.449583 l -0.345688,0.850242 -1.727841,0.04389 -1.727839,0.04389 0.0698,1.329874 0.0698,1.329872 -2.098999,-0.105269 c -1.15445,-0.0579 -3.942477,-0.246764 -6.195617,-0.419703 -4.005434,-0.307435 -6.068057,-0.302695 -8.115942,0.01865 -0.607265,0.09529 -1.203723,0.02707 -2.782609,-0.31827 -4.103855,-0.897606 -6.160512,-1.124372 -10.280194,-1.133486 -3.267033,-0.0072 -4.044551,0.03865 -5.658655,0.333879 -3.762605,0.688205 -5.971774,1.483065 -11.778179,4.237792 -4.277468,2.02936 -6.897237,3.01632 -8.997949,3.38985 -1.274915,0.2267 -4.934797,0.2815 -6.024068,0.0902 l -0.690736,-0.12131 0.381558,0.41587 c 0.209855,0.22872 1.077208,0.97432 1.927449,1.65687 3.887393,3.12073 7.435579,4.92865 11.448375,5.83334 2.007625,0.45262 5.490233,0.49385 7.566118,0.0896 3.101515,-0.60401 6.935558,-2.2076 12.274983,-5.13401 1.247268,-0.6836 1.587543,-0.81581 1.515776,-0.58898 -0.828262,2.61798 -0.955469,4.66644 -0.422221,6.799179 0.882326,3.52889 3.997601,7.56803 7.701991,9.98611 0.535651,0.34965 0.918259,0.68837 0.850241,0.75271 -0.06802,0.0643 -0.714972,0.51224 -1.437678,0.99532 -1.821614,1.21762 -5.189211,2.85763 -7.285758,3.54813 l -1.75772,0.57892 -0.888889,2.4374 c -0.488889,1.34058 -0.888889,2.50453 -0.888889,2.58656 0,0.082 0.713044,0.69949 1.584541,1.37214 1.937673,1.49554 6.238586,5.75217 7.410882,7.33458 0.473198,0.63873 1.193656,1.71699 1.601019,2.39613 0.407363,0.67914 0.751063,1.25112 0.763778,1.27107 0.01271,0.0199 0.522736,-0.0589 1.133381,-0.17528 0.610645,-0.11635 1.110264,-0.19678 1.110264,-0.17874 0,0.018 -0.370325,0.86214 -0.822944,1.87576 -0.452621,1.01362 -0.866146,1.9603 -0.918946,2.10374 -0.136445,0.37065 4.814301,7.85188 4.988638,7.53848 0.427146,-0.76787 1.412618,-5.78222 1.695513,-8.62724 0.289633,-2.91278 0.802899,-1.98577 -4.801067,-8.67121 -2.728139,-3.25463 -4.902052,-5.96614 -4.830918,-6.02558 0.07114,-0.0594 0.975323,-0.36422 2.009307,-0.67728 1.466642,-0.44406 5.272335,-1.88658 6.661093,-2.52484 0.408466,-0.18772 0.05521,1.94132 -0.560392,3.37747 l -0.310856,0.7252 1.231429,1.07109 c 0.987131,0.85861 1.468409,1.15484 2.425964,1.49323 2.449931,0.86578 6.003917,2.76201 8.131745,4.3387 l 0.908229,0.67298 0.753607,-0.38188 0.753608,-0.38188 v 2.21842 2.21842 l 2.821256,1.31246 2.821256,1.31247 0.04696,-1.71186 c 0.06951,-2.53381 -0.470216,-5.20881 -1.540154,-7.63334 l -0.361879,-0.82004 -4.560387,-2.08444 c -2.508212,-1.14644 -4.990167,-2.28447 -5.515453,-2.52895 l -0.955069,-0.44452 1.237358,-1.28869 c 2.162934,-2.25265 3.889642,-4.54066 5.114152,-6.7766 0.657212,-1.20007 1.600662,-3.5573 1.748576,-4.36886 0.05828,-0.31978 0.163855,-0.6172 0.234606,-0.66092 0.198433,-0.12264 6.790989,1.23897 10.096863,2.08538 2.912369,0.74566 7.021678,1.95185 9.140417,2.68295 l 1.08213,0.3734 -0.029,1.19187 c -0.0366,1.5063 -0.60086,6.58818 -0.97946,8.82178 -0.36767,2.16918 -1.023223,4.17307 -2.097547,6.41174 -1.761082,3.66973 -4.269607,7.32624 -7.12324,10.38304 l -0.958432,1.02668 0.211772,0.90569 c 0.116473,0.49814 0.16413,0.95142 0.105904,1.00731 -0.05823,0.0559 -0.905867,0.43144 -1.883645,0.83456 -0.977778,0.40312 -1.837959,0.78628 -1.911515,0.85145 -0.07355,0.0652 0.329504,2.26353 0.895688,4.88524 1.158276,5.363411 1.130931,5.257971 1.313184,5.063131 0.07295,-0.078 2.667996,-4.176571 5.766776,-9.107971 z"
     id="path2694" />
</svg>
